<svg width="1170" height="679" viewBox="0 0 1170 679" fill="none" xmlns="http://www.w3.org/2000/svg">
<path d="M963.211 3.81226H967.321L987.96 24.4427H983.996L963.211 3.81226Z" fill="#62E875"/>
<path d="M980.804 3.81226H984.914L1005.55 24.4427H1001.58L980.804 3.81226Z" fill="#62E875"/>
<path d="M998.397 3.81226H1002.51L1023.14 24.4427H1019.17L998.397 3.81226Z" fill="#62E875"/>
<path d="M1015.99 3.81226H1020.1L1040.73 24.4427H1036.77L1015.99 3.81226Z" fill="#62E875"/>
<path d="M1033.58 3.81226H1037.69L1058.32 24.4427H1054.36L1033.58 3.81226Z" fill="#62E875"/>
<path d="M207.081 3.81226H202.971L182.34 24.4427H186.304L207.081 3.81226Z" fill="#2871FF"/>
<path d="M189.488 3.81226H185.378L164.748 24.4427H168.711L189.488 3.81226Z" fill="#2871FF"/>
<path d="M171.895 3.81226H167.785L147.155 24.4427H151.118L171.895 3.81226Z" fill="#2871FF"/>
<path d="M154.302 3.81226H150.201L129.562 24.4427H133.526L154.302 3.81226Z" fill="#2871FF"/>
<path d="M136.718 3.81226H132.608L111.969 24.4427H115.933L136.718 3.81226Z" fill="#2871FF"/>
<path d="M37.269 94.3672V117.759L41.257 113.771V94.3672H169.442L173.43 90.3792H41.257H37.269V94.3672Z" fill="#62E875"/>
<path d="M1133.02 94.3672V117.759L1129.04 113.771V94.3672H1000.86L996.87 90.3792H1129.04H1133.02V94.3672Z" fill="#62E875"/>
<path d="M1133.02 636.104V612.72L1129.04 616.708V636.104H1000.86L996.87 640.092H1129.04H1133.02V636.104Z" fill="#62E875"/>
<path d="M37.269 636.104V612.72L41.257 616.708V636.104H169.442L173.43 640.092H41.257H37.269V636.104Z" fill="#62E875"/>
<path fill-rule="evenodd" clip-rule="evenodd" d="M561.08 46.9578H567.618L561.08 53.0576H567.618L574.157 46.9578H735.164L738.689 50.2473H906.746L909.759 53.0657H1055.68L1066.75 63.389H1152.28V142.719L1163.35 153.042V183.557L1169.89 190.128V275.566L1163.35 282.137V409.347L1152.28 419.671V506.985L1163.35 517.316V672.695H1084.35L1077.82 678.794H875.548L869.01 672.695H853.415L846.877 678.794H823.737L817.198 672.695H327.623L324.601 675.513H318.063L321.084 672.695H314.546L309.518 677.389H302.98L308.016 672.695H301.477L294.939 678.794H288.4L294.939 672.695H288.4L281.862 678.794H275.324L281.862 672.695H275.324L268.785 678.794H262.247L268.785 672.695H262.75L255.708 678.794H59.9788L53.4404 672.695H6.64826V576.462L0.109863 570.363V344.573L6.64826 338.473V167.605L1.11702 162.911V108.459L6.64826 103.765V53.0657H60.986L72.0566 63.389H109.289L120.36 53.0657H244.134L255.205 63.389H348.789L359.86 53.0657H463.004L466.529 50.2473H473.067L469.542 53.0657H476.081L481.117 48.371H487.655L482.619 53.0657H489.158L495.696 46.9659H502.234L495.696 53.0657H502.234L508.773 46.9659H515.311L508.773 53.0657H515.311L521.85 46.9659H528.388L521.85 53.0657H528.388L534.926 46.9659H541.465L534.926 53.0657H541.465L548.003 46.9659H554.542L548.003 53.0657H554.542L561.08 46.9659V46.9578ZM1116.56 668.942L1123.6 662.371H17.662V178.4L10.62 171.829V668.942H1116.56ZM1147.76 658.619V67.6126H21.6906V658.611H1147.76V658.619ZM824.728 676.918H845.862L850.889 672.695H819.692L824.72 676.918H824.728ZM876.556 676.918H1077.32L1081.84 672.695H872.031L876.556 676.918ZM1152.29 513.093V635.617L1159.33 629.046V519.672L1152.29 513.101V513.093ZM1152.29 641.245V661.9H1130.16L1123.11 668.471H1158.84V635.146L1152.3 641.245H1152.29ZM17.662 171.358V62.9261H65.9649L58.9229 56.3552H11.1236V165.258L17.662 171.358ZM2.06732 344.573V360.062L6.59953 355.367V339.878L2.06732 344.573ZM2.06732 568.957L6.59953 573.652V504.175L2.06732 499.951V568.957ZM115.779 62.918H248.61L241.568 56.3471H122.821L115.779 62.918ZM355.287 62.918H1060.21L1053.67 56.3471H361.825L355.287 62.918ZM1152.29 148.827V413.108L1159.33 407.008V154.927L1152.29 148.827Z" fill="url(#paint0_linear_688_2248)"/>
<path d="M836.416 3.06519H344.111L267.396 79.7797H913.13L836.416 3.06519Z" fill="#101010" stroke="url(#paint1_linear_688_2248)" stroke-width="4.87334" stroke-miterlimit="10"/>
<path d="M432.371 47.1939C432.589 46.5437 432.824 45.8876 433.112 45.2198C433.406 44.5521 433.671 43.9311 433.947 43.3571C434.153 42.9177 434.389 42.4901 434.647 42.0742H438.511L435.441 35.0507H435.253L427.02 54.2233H417.658L429.255 28.2556H441.598L453.201 54.2233H443.839L441.428 48.7755H431.972C432.06 48.2366 432.195 47.7094 432.366 47.1939H432.371ZM465.957 45.4249C466.056 44.886 466.198 44.3588 466.374 43.8433C466.592 43.193 466.827 42.537 467.091 41.8692C467.362 41.2014 467.627 40.5805 467.909 40.0064C468.115 39.5671 468.35 39.1394 468.609 38.7235H478.759C479.171 38.6298 479.535 38.3896 479.788 38.0499C479.976 37.7394 480.129 37.3997 480.241 37.0541V36.6381C480.129 36.2867 479.982 35.9528 479.788 35.6365C479.535 35.2967 479.171 35.0624 478.759 34.9628H464.833V54.2292H456.447V28.2615H485.24C485.681 28.2732 486.11 28.4313 486.451 28.7125C486.863 29.0347 487.233 29.4096 487.545 29.8255C487.874 30.2707 488.139 30.751 488.339 31.2665C488.521 31.7117 488.621 32.1804 488.639 32.6607V40.9905C488.627 41.4767 488.527 41.9629 488.339 42.414C488.139 42.9177 487.874 43.3981 487.545 43.8315C487.233 44.2533 486.863 44.6282 486.451 44.9504C486.11 45.2316 485.681 45.3897 485.24 45.4014H482.487L488.733 54.1999H479.041L472.802 45.4014L465.957 45.4307V45.4249ZM505.693 47.1939C505.91 46.5437 506.146 45.8876 506.44 45.2198C506.74 44.5521 506.998 43.9311 507.275 43.3571C507.481 42.9177 507.716 42.4901 507.975 42.0742H511.844L508.769 35.0507H508.58L500.336 54.2233H490.956L502.558 28.2556H514.902L526.523 54.2233H517.16L514.738 48.7755H505.281C505.375 48.2366 505.516 47.7094 505.693 47.1939ZM529.775 28.2556H538.161V47.522H558.143L556.091 54.2233H532.568C532.209 54.1882 531.862 54.0827 531.545 53.9129C531.227 53.743 530.951 53.5028 530.727 53.2216C530.216 52.6183 529.886 51.886 529.775 51.107V28.2556ZM570.07 47.522V34.957H561.407V28.2556H587.118V34.957H578.456V47.522H587.118V54.2233H561.407V47.522H570.07ZM614.975 34.957H599.221V54.2233H590.846V28.2556H619.445C619.927 28.2849 620.38 28.4841 620.727 28.8121C621.197 29.2104 621.621 29.6615 621.985 30.1594C622.373 30.669 622.703 31.2255 622.961 31.8113C623.191 32.2741 623.326 32.7837 623.355 33.2992V54.235H614.975V34.9452V34.957ZM627.084 31.3603C627.196 30.5812 627.531 29.8489 628.036 29.2456C628.26 28.9644 628.536 28.7301 628.854 28.5544C629.171 28.3845 629.518 28.2732 629.877 28.2439H656.988V34.9452H635.464V47.5103H648.602V44.5345H639.939C640.039 43.9956 640.174 43.4684 640.357 42.9529C640.574 42.3027 640.804 41.6466 641.074 40.9964C641.345 40.3461 641.609 39.7311 641.886 39.1629C642.092 38.7235 642.327 38.2959 642.591 37.88H656.999V54.2116H629.877C629.518 54.1765 629.171 54.071 628.854 53.9011C628.536 53.7313 628.26 53.4911 628.036 53.2099C627.525 52.6066 627.196 51.8743 627.084 51.0952V31.3603ZM669.102 47.5103H684.862V28.2556H693.248V54.2233H664.633C664.15 54.194 663.697 53.9949 663.35 53.6668C662.88 53.2744 662.462 52.8292 662.092 52.343C661.704 51.8392 661.38 51.2944 661.116 50.7145C660.875 50.2459 660.739 49.7245 660.716 49.1973V28.2615H669.096V47.5161L669.102 47.5103ZM711.214 47.1822C711.432 46.532 711.667 45.8759 711.955 45.2081C712.243 44.5403 712.52 43.9194 712.796 43.3453C713.002 42.906 713.231 42.4725 713.496 42.0625H717.365L714.29 35.039H714.102L705.857 54.2116H696.495L708.091 28.2439H720.435L732.038 54.2116H722.676L720.253 48.7638H710.797C710.891 48.2308 711.032 47.7036 711.214 47.1939V47.1822ZM735.296 28.2439H743.682V47.5103H763.665L761.612 54.2116H738.113C737.754 54.1765 737.407 54.071 737.09 53.9011C736.772 53.7313 736.496 53.4911 736.272 53.2099C735.766 52.6066 735.431 51.8743 735.319 51.0952L735.296 28.2439Z" fill="url(#paint2_linear_688_2248)"/>
<defs>
<linearGradient id="paint0_linear_688_2248" x1="-65.2091" y1="674.51" x2="1510.91" y2="674.51" gradientUnits="userSpaceOnUse">
<stop stop-color="#2871FF" stop-opacity="0.98"/>
<stop offset="1" stop-color="#55AF95"/>
</linearGradient>
<linearGradient id="paint1_linear_688_2248" x1="356.018" y1="41.4184" x2="824.509" y2="41.4184" gradientUnits="userSpaceOnUse">
<stop stop-color="#2871FF" stop-opacity="0.98"/>
<stop offset="1" stop-color="#55AF95" stop-opacity="0.998333"/>
</linearGradient>
<linearGradient id="paint2_linear_688_2248" x1="587.983" y1="15.4446" x2="591.869" y2="67.1538" gradientUnits="userSpaceOnUse">
<stop stop-color="white"/>
<stop offset="1" stop-color="#71717A"/>
</linearGradient>
</defs>
</svg>
