<svg width="46" height="46" viewBox="0 0 46 46" fill="none" xmlns="http://www.w3.org/2000/svg">
<g clip-path="url(#clip0_573_7504)">
<path d="M28.6667 32.9165C28.6667 35.2596 26.7598 37.1665 24.4167 37.1665V38.5831C24.4167 39.3651 23.7834 39.9998 23 39.9998C22.2166 39.9998 21.5833 39.3651 21.5833 38.5831V37.1665H21.2037C19.6921 37.1665 18.2811 36.3533 17.5232 35.0429C17.1307 34.3657 17.3631 33.5001 18.0388 33.1077C18.7174 32.7139 19.583 32.9476 19.974 33.6248C20.2276 34.0611 20.6979 34.3331 21.2022 34.3331H24.4152C25.1972 34.3331 25.8319 33.6985 25.8319 32.9165C25.8319 32.381 25.448 31.9276 24.9196 31.8398L20.6115 31.1216C18.7103 30.8056 17.3319 29.1765 17.3319 27.2498C17.3319 24.9066 19.2387 22.9998 21.5819 22.9998V21.5831C21.5819 20.8011 22.2152 20.1665 22.9986 20.1665C23.782 20.1665 24.4152 20.8011 24.4152 21.5831V22.9998H24.7949C26.3065 22.9998 27.7175 23.813 28.4754 25.1234C28.8678 25.8006 28.6355 26.6661 27.9597 27.0586C27.2797 27.4496 26.4142 27.2172 26.0246 26.5415C25.771 26.1051 25.3007 25.8331 24.7963 25.8331H21.5833C20.8013 25.8331 20.1667 26.4678 20.1667 27.2498C20.1667 27.7853 20.5506 28.2386 21.079 28.3265L25.3871 29.0447C27.2882 29.3606 28.6667 30.9898 28.6667 32.9165ZM39.5849 21.4117L36.3365 18.1633C35.2329 17.0583 33.4337 17.0583 32.3302 18.1633L29.0817 21.4117C28.5278 21.9656 28.5278 22.861 29.0817 23.4149C29.6357 23.9688 30.531 23.9688 31.0849 23.4149L32.9167 21.5831V38.5831C32.9167 39.3651 33.5499 39.9998 34.3333 39.9998C35.1167 39.9998 35.75 39.3651 35.75 38.5831V21.5831L37.5817 23.4149C37.858 23.6911 38.2207 23.83 38.5833 23.83C38.946 23.83 39.3087 23.6911 39.5849 23.4149C40.1388 22.861 40.1388 21.9656 39.5849 21.4117ZM19.7516 12.0816L21.5833 10.2498V15.9165C21.5833 16.6985 22.2166 17.3331 23 17.3331C23.7834 17.3331 24.4167 16.6985 24.4167 15.9165V10.2498L26.2484 12.0816C26.5247 12.3578 26.8873 12.4966 27.25 12.4966C27.6127 12.4966 27.9753 12.3578 28.2516 12.0816C28.8055 11.5276 28.8055 10.6323 28.2516 10.0784L25.0032 6.82997C23.8996 5.72497 22.1004 5.72497 20.9968 6.82997L17.7484 10.0784C17.1945 10.6323 17.1945 11.5276 17.7484 12.0816C18.3023 12.6355 19.1977 12.6355 19.7516 12.0816ZM16.9182 17.1617L13.6698 13.9133C12.5662 12.8083 10.7671 12.8083 9.66349 13.9133L6.41507 17.1617C5.86115 17.7156 5.86115 18.611 6.41507 19.1649C6.96899 19.7188 7.86432 19.7188 8.41824 19.1649L10.25 17.3331V38.5831C10.25 39.3651 10.8832 39.9998 11.6667 39.9998C12.4501 39.9998 13.0833 39.3651 13.0833 38.5831V17.3331L14.9151 19.1649C15.1913 19.4411 15.554 19.58 15.9167 19.58C16.2793 19.58 16.642 19.4411 16.9182 19.1649C17.4722 18.611 17.4722 17.7156 16.9182 17.1617Z" fill="url(#paint0_linear_573_7504)"/>
</g>
<defs>
<linearGradient id="paint0_linear_573_7504" x1="54.7776" y1="23.0005" x2="5.99965" y2="23.0005" gradientUnits="userSpaceOnUse">
<stop stop-color="#44CD77"/>
<stop offset="1" stop-color="#2871FF"/>
</linearGradient>
<clipPath id="clip0_573_7504">
<rect width="34" height="34" fill="white" transform="translate(6 6)"/>
</clipPath>
</defs>
</svg>
