<svg width="34" height="34" viewBox="0 0 34 34" fill="none" xmlns="http://www.w3.org/2000/svg">
<path d="M26.9167 2.83325H7.08333C3.17333 2.83325 0 6.00659 0 9.91659V24.0833C0 27.9933 3.17333 31.1666 7.08333 31.1666H26.9167C30.8267 31.1666 34 27.9933 34 24.0833V9.91659C34 6.00659 30.8267 2.83325 26.9167 2.83325ZM7.08333 5.66659H26.9167C29.2542 5.66659 31.1667 7.57909 31.1667 9.91659H2.83333C2.83333 7.57909 4.74583 5.66659 7.08333 5.66659ZM26.9167 28.3333H7.08333C4.74583 28.3333 2.83333 26.4208 2.83333 24.0833V12.7499H31.1667V24.0833C31.1667 26.4208 29.2542 28.3333 26.9167 28.3333ZM14.1667 16.9999C14.1667 17.7791 13.5292 18.4166 12.75 18.4166H11.3333V24.0833C11.3333 24.8624 10.6958 25.4999 9.91667 25.4999C9.1375 25.4999 8.5 24.8624 8.5 24.0833V18.4166H7.08333C6.30417 18.4166 5.66667 17.7791 5.66667 16.9999C5.66667 16.2208 6.30417 15.5833 7.08333 15.5833H12.75C13.5292 15.5833 14.1667 16.2208 14.1667 16.9999ZM28.3333 16.9999C28.3333 17.7791 27.6958 18.4166 26.9167 18.4166H18.4167C17.6375 18.4166 17 17.7791 17 16.9999C17 16.2208 17.6375 15.5833 18.4167 15.5833H26.9167C27.6958 15.5833 28.3333 16.2208 28.3333 16.9999ZM28.3333 22.6666C28.3333 23.4458 27.6958 24.0833 26.9167 24.0833H18.4167C17.6375 24.0833 17 23.4458 17 22.6666C17 21.8874 17.6375 21.2499 18.4167 21.2499H26.9167C27.6958 21.2499 28.3333 21.8874 28.3333 22.6666Z" fill="url(#paint0_linear_587_8619)"/>
<defs>
<linearGradient id="paint0_linear_587_8619" x1="48.7769" y1="16.9999" x2="1.14078e-05" y2="16.9999" gradientUnits="userSpaceOnUse">
<stop stop-color="#44CD77"/>
<stop offset="1" stop-color="#2871FF"/>
</linearGradient>
</defs>
</svg>
