<svg width="46" height="46" viewBox="0 0 46 46" fill="none" xmlns="http://www.w3.org/2000/svg">
<g clip-path="url(#clip0_573_7485)">
<path d="M13.7918 15.9167C16.526 15.9167 18.7502 13.6925 18.7502 10.9583C18.7502 8.22417 16.526 6 13.7918 6C11.0577 6 8.83351 8.22417 8.83351 10.9583C8.83351 13.6925 11.0577 15.9167 13.7918 15.9167ZM30.7918 30.0833C34.3066 30.0833 37.1668 27.2231 37.1668 23.7083C37.1668 20.1936 34.3066 17.3333 30.7918 17.3333C27.2771 17.3333 24.4168 20.1936 24.4168 23.7083C24.4168 27.2231 27.2771 30.0833 30.7918 30.0833ZM17.9469 32.3599C19.0236 33.4394 19.0236 35.2258 17.9285 36.3237L14.8133 39.5651C14.5356 39.8541 14.1644 40 13.7918 40C13.4377 40 13.0849 39.8683 12.8101 39.6048C12.2463 39.0622 12.2278 38.1654 12.7704 37.6016L14.5498 35.75H11.6668C8.54168 35.75 6.00018 33.2085 6.00018 30.0833V28.6667C6.00018 27.8832 6.63484 27.25 7.41684 27.25C8.19884 27.25 8.83351 27.8832 8.83351 28.6667V30.0833C8.83351 31.6459 10.1043 32.9167 11.6668 32.9167H14.5413L12.7704 31.0651C12.2278 30.5013 12.2448 29.6045 12.8101 29.0619C13.3739 28.5207 14.2707 28.5363 14.8133 29.1002L17.9469 32.3599ZM39.9421 38.1824C38.7861 34.2483 35.022 31.4986 30.7918 31.4986C26.5617 31.4986 22.7976 34.2469 21.6416 38.1824C21.5155 38.6117 21.5991 39.0735 21.8668 39.4319C22.1346 39.7889 22.5553 39.9986 23.0016 39.9986H38.5849C39.0312 39.9986 39.4519 39.7889 39.7197 39.4319C39.986 39.0735 40.0682 38.6117 39.9421 38.1824ZM13.7918 17.3333C10.3437 17.3333 7.24968 19.4116 6.08943 22.5028C5.92651 22.9377 5.98743 23.4236 6.25234 23.8061C6.51726 24.1886 6.95218 24.4167 7.41684 24.4167H20.1668C20.6315 24.4167 21.0664 24.1886 21.3313 23.8061C21.5963 23.4236 21.6558 22.9377 21.4943 22.5028C20.3354 19.4102 17.24 17.3333 13.7918 17.3333Z" fill="url(#paint0_linear_573_7485)"/>
</g>
<defs>
<linearGradient id="paint0_linear_573_7485" x1="54.7772" y1="23" x2="5.99952" y2="23" gradientUnits="userSpaceOnUse">
<stop stop-color="#44CD77"/>
<stop offset="1" stop-color="#2871FF"/>
</linearGradient>
<clipPath id="clip0_573_7485">
<rect width="34" height="34" fill="white" transform="translate(6 6)"/>
</clipPath>
</defs>
</svg>
