<svg width="37" height="37" viewBox="0 0 37 37" fill="none" xmlns="http://www.w3.org/2000/svg">
<rect x="0.299805" y="0.793945" width="36" height="36" rx="18" fill="white" fill-opacity="0.05"/>
<g clip-path="url(#clip0_688_2296)">
<g clip-path="url(#clip1_688_2296)">
<path d="M18.3008 11.2935C20.3385 11.2935 20.5928 11.301 21.3923 11.3385C22.191 11.376 22.7348 11.5012 23.2133 11.6872C23.7083 11.8777 24.1253 12.1357 24.5423 12.552C24.9237 12.9269 25.2188 13.3804 25.4071 13.881C25.5923 14.3587 25.7183 14.9032 25.7558 15.702C25.791 16.5015 25.8008 16.7557 25.8008 18.7934C25.8008 20.8312 25.7933 21.0855 25.7558 21.8849C25.7183 22.6837 25.5923 23.2275 25.4071 23.706C25.2193 24.2068 24.9241 24.6604 24.5423 25.0349C24.1672 25.4162 23.7138 25.7113 23.2133 25.8997C22.7355 26.085 22.191 26.211 21.3923 26.2485C20.5928 26.2837 20.3385 26.2935 18.3008 26.2935C16.263 26.2935 16.0088 26.2859 15.2093 26.2485C14.4105 26.211 13.8668 26.085 13.3883 25.8997C12.8875 25.7118 12.4339 25.4166 12.0593 25.0349C11.6778 24.6601 11.3827 24.2066 11.1945 23.706C11.0085 23.2282 10.8833 22.6837 10.8458 21.8849C10.8105 21.0855 10.8008 20.8312 10.8008 18.7934C10.8008 16.7557 10.8083 16.5015 10.8458 15.702C10.8833 14.9025 11.0085 14.3595 11.1945 13.881C11.3822 13.3801 11.6774 12.9265 12.0593 12.552C12.434 12.1704 12.8876 11.8753 13.3883 11.6872C13.8668 11.5012 14.4098 11.376 15.2093 11.3385C16.0088 11.3032 16.263 11.2935 18.3008 11.2935ZM18.3008 15.0435C17.3062 15.0435 16.3524 15.4386 15.6491 16.1418C14.9459 16.8451 14.5508 17.7989 14.5508 18.7934C14.5508 19.788 14.9459 20.7418 15.6491 21.4451C16.3524 22.1484 17.3062 22.5435 18.3008 22.5435C19.2954 22.5435 20.2492 22.1484 20.9524 21.4451C21.6557 20.7418 22.0508 19.788 22.0508 18.7934C22.0508 17.7989 21.6557 16.8451 20.9524 16.1418C20.2492 15.4386 19.2954 15.0435 18.3008 15.0435ZM23.1758 14.856C23.1758 14.6073 23.077 14.3689 22.9012 14.1931C22.7253 14.0172 22.4869 13.9185 22.2383 13.9185C21.9897 13.9185 21.7512 14.0172 21.5754 14.1931C21.3996 14.3689 21.3008 14.6073 21.3008 14.856C21.3008 15.1046 21.3996 15.3431 21.5754 15.5189C21.7512 15.6947 21.9897 15.7935 22.2383 15.7935C22.4869 15.7935 22.7253 15.6947 22.9012 15.5189C23.077 15.3431 23.1758 15.1046 23.1758 14.856ZM18.3008 16.5435C18.8976 16.5435 19.4699 16.7805 19.8918 17.2025C20.3137 17.6244 20.5508 18.1967 20.5508 18.7934C20.5508 19.3902 20.3137 19.9625 19.8918 20.3845C19.4699 20.8064 18.8976 21.0434 18.3008 21.0434C17.704 21.0434 17.1318 20.8064 16.7098 20.3845C16.2878 19.9625 16.0508 19.3902 16.0508 18.7934C16.0508 18.1967 16.2878 17.6244 16.7098 17.2025C17.1318 16.7805 17.704 16.5435 18.3008 16.5435Z" fill="#F4F4F4"/>
</g>
</g>
<defs>
<clipPath id="clip0_688_2296">
<rect width="18" height="18" fill="white" transform="translate(9.2998 9.79395)"/>
</clipPath>
<clipPath id="clip1_688_2296">
<rect width="18" height="18" fill="white" transform="translate(9.2998 9.79395)"/>
</clipPath>
</defs>
</svg>
