<svg width="34" height="34" viewBox="0 0 34 34" fill="none" xmlns="http://www.w3.org/2000/svg">
<g clip-path="url(#clip0_587_8700)">
<path d="M14.1667 31.1667V29.75C14.1667 27.4068 12.2598 25.5 9.91667 25.5H9.38825C10.3275 23.7249 11.3333 21.5843 11.3333 20.5417C11.3333 18.5852 9.74808 17.0708 7.79167 17.0708C5.83525 17.0708 4.25 18.5852 4.25 20.5417C4.25 21.5843 5.25583 23.7249 6.19508 25.5H5.66667C3.3235 25.5 1.41667 27.4068 1.41667 29.75V31.1667C0.63325 31.1667 0 31.7999 0 32.5833C0 33.3667 0.63325 34 1.41667 34H14.1667C14.9501 34 15.5833 33.3667 15.5833 32.5833C15.5833 31.7999 14.9501 31.1667 14.1667 31.1667ZM11.3333 31.1667H4.25V29.75C4.25 28.968 4.88467 28.3333 5.66667 28.3333H9.91667C10.6987 28.3333 11.3333 28.968 11.3333 29.75V31.1667ZM22.6667 15.5833H17C16.2166 15.5833 15.5833 14.9501 15.5833 14.1667C15.5833 13.3832 16.2166 12.75 17 12.75H22.6667C23.4501 12.75 24.0833 13.3832 24.0833 14.1667C24.0833 14.9501 23.4501 15.5833 22.6667 15.5833ZM34 7.08333V26.9167C34 30.8224 30.8224 34 26.9167 34H19.8333C19.0499 34 18.4167 33.3667 18.4167 32.5833C18.4167 31.7999 19.0499 31.1667 19.8333 31.1667H26.9167C29.2598 31.1667 31.1667 29.2598 31.1667 26.9167V7.08333C31.1667 4.74017 29.2598 2.83333 26.9167 2.83333H15.5833C13.2402 2.83333 11.3333 4.74017 11.3333 7.08333V12.8222C11.3333 13.6057 10.7001 14.2389 9.91667 14.2389C9.13325 14.2389 8.5 13.6057 8.5 12.8222V7.08333C8.5 3.17758 11.6776 0 15.5833 0H26.9167C30.8224 0 34 3.17758 34 7.08333ZM18.4167 23.375C18.4167 26.1092 20.6408 28.3333 23.375 28.3333C26.1092 28.3333 28.3333 26.1092 28.3333 23.375C28.3333 20.6408 26.1092 18.4167 23.375 18.4167C20.6408 18.4167 18.4167 20.6408 18.4167 23.375ZM25.5 23.375C25.5 24.5466 24.5466 25.5 23.375 25.5C22.2034 25.5 21.25 24.5466 21.25 23.375C21.25 22.2034 22.2034 21.25 23.375 21.25C24.5466 21.25 25.5 22.2034 25.5 23.375ZM26.9167 8.5C26.9167 9.28342 26.2834 9.91667 25.5 9.91667H17C16.2166 9.91667 15.5833 9.28342 15.5833 8.5C15.5833 7.71658 16.2166 7.08333 17 7.08333H25.5C26.2834 7.08333 26.9167 7.71658 26.9167 8.5Z" fill="url(#paint0_linear_587_8700)"/>
</g>
<defs>
<linearGradient id="paint0_linear_587_8700" x1="48.7769" y1="17" x2="1.14078e-05" y2="17" gradientUnits="userSpaceOnUse">
<stop stop-color="#44CD77"/>
<stop offset="1" stop-color="#2871FF"/>
</linearGradient>
<clipPath id="clip0_587_8700">
<rect width="34" height="34" fill="white"/>
</clipPath>
</defs>
</svg>
