<svg width="37" height="37" viewBox="0 0 37 37" fill="none" xmlns="http://www.w3.org/2000/svg">
<rect x="0.600098" y="0.793945" width="36" height="36" rx="18" fill="white" fill-opacity="0.05"/>
<g clip-path="url(#clip0_688_2291)">
<g clip-path="url(#clip1_688_2291)">
<path d="M14.8042 13.5432C14.804 13.9411 14.6458 14.3225 14.3643 14.6037C14.0829 14.8848 13.7013 15.0427 13.3034 15.0425C12.9056 15.0423 12.5242 14.8841 12.243 14.6026C11.9618 14.3212 11.804 13.9396 11.8042 13.5417C11.8044 13.1439 11.9626 12.7625 12.2441 12.4813C12.5255 12.2001 12.9071 12.0423 13.3049 12.0425C13.7028 12.0427 14.0842 12.2009 14.3654 12.4824C14.6466 12.7638 14.8044 13.1454 14.8042 13.5432ZM14.8492 16.1532H11.8492V25.5433H14.8492V16.1532ZM19.5892 16.1532H16.6042V25.5433H19.5592V20.6158C19.5592 17.8707 23.1367 17.6157 23.1367 20.6158V25.5433H26.0992V19.5957C26.0992 14.9682 20.8042 15.1407 19.5592 17.4132L19.5892 16.1532Z" fill="#F4F4F4"/>
</g>
</g>
<defs>
<clipPath id="clip0_688_2291">
<rect width="18" height="18" fill="white" transform="translate(9.6001 9.79395)"/>
</clipPath>
<clipPath id="clip1_688_2291">
<rect width="18" height="18" fill="white" transform="translate(9.6001 9.79395)"/>
</clipPath>
</defs>
</svg>
