<svg width="34" height="34" viewBox="0 0 34 34" fill="none" xmlns="http://www.w3.org/2000/svg">
<g clip-path="url(#clip0_587_8680)">
<path d="M26.9167 8.5V4.25C26.9167 1.90683 25.0098 0 22.6667 0H7.08333C3.17758 0 0 3.17758 0 7.08333V18.4167C0 22.3224 3.17758 25.5 7.08333 25.5V26.9167C7.08333 30.8224 10.2609 34 14.1667 34H26.9167C30.8224 34 34 30.8224 34 26.9167V15.5833C34 11.6776 30.8224 8.5 26.9167 8.5ZM14.501 8.5L23.9927 3.75417C24.0508 3.90858 24.0819 4.07575 24.0819 4.25V8.5H14.4996H14.501ZM2.83333 18.4167V7.08333C2.83333 4.74017 4.74017 2.83333 7.08333 2.83333H19.499L10.999 7.08333C8.58358 8.29317 7.08333 10.7185 7.08333 13.4187V22.6667C4.74017 22.6667 2.83333 20.7598 2.83333 18.4167ZM31.1667 26.9167C31.1667 29.2598 29.2598 31.1667 26.9167 31.1667H14.1667C11.8235 31.1667 9.91667 29.2598 9.91667 26.9167V13.4187C9.91667 12.6707 10.1093 11.9567 10.4592 11.3333H26.9167C29.2598 11.3333 31.1667 13.2402 31.1667 15.5833V26.9167ZM28.3333 17C28.3333 17.7834 27.7001 18.4167 26.9167 18.4167H22.6667C21.8832 18.4167 21.25 17.7834 21.25 17C21.25 16.2166 21.8832 15.5833 22.6667 15.5833H26.9167C27.7001 15.5833 28.3333 16.2166 28.3333 17ZM18.4167 15.5833V18.4167C18.4167 19.1987 17.782 19.8333 17 19.8333H14.1667C13.3847 19.8333 12.75 19.1987 12.75 18.4167V15.5833C12.75 14.8013 13.3847 14.1667 14.1667 14.1667H17C17.782 14.1667 18.4167 14.8013 18.4167 15.5833ZM28.3333 25.5C28.3333 26.2834 27.7001 26.9167 26.9167 26.9167H22.6667C21.8832 26.9167 21.25 26.2834 21.25 25.5C21.25 24.7166 21.8832 24.0833 22.6667 24.0833H26.9167C27.7001 24.0833 28.3333 24.7166 28.3333 25.5ZM18.4167 24.0833V26.9167C18.4167 27.6987 17.782 28.3333 17 28.3333H14.1667C13.3847 28.3333 12.75 27.6987 12.75 26.9167V24.0833C12.75 23.3013 13.3847 22.6667 14.1667 22.6667H17C17.782 22.6667 18.4167 23.3013 18.4167 24.0833Z" fill="url(#paint0_linear_587_8680)"/>
</g>
<defs>
<linearGradient id="paint0_linear_587_8680" x1="48.7769" y1="17" x2="1.14078e-05" y2="17" gradientUnits="userSpaceOnUse">
<stop stop-color="#44CD77"/>
<stop offset="1" stop-color="#2871FF"/>
</linearGradient>
<clipPath id="clip0_587_8680">
<rect width="34" height="34" fill="white"/>
</clipPath>
</defs>
</svg>
