<svg width="34" height="34" viewBox="0 0 34 34" fill="none" xmlns="http://www.w3.org/2000/svg">
<g clip-path="url(#clip0_587_8659)">
<path d="M24.0833 14.1667C18.615 14.1667 14.1667 18.615 14.1667 24.0833C14.1667 29.5517 18.615 34 24.0833 34C29.5517 34 34 29.5517 34 24.0833C34 18.615 29.5517 14.1667 24.0833 14.1667ZM24.0833 31.1667C20.1776 31.1667 17 27.9891 17 24.0833C17 20.1776 20.1776 17 24.0833 17C27.9891 17 31.1667 20.1776 31.1667 24.0833C31.1667 27.9891 27.9891 31.1667 24.0833 31.1667ZM25.5 25.5V28.3333C25.5 29.1153 24.8653 29.75 24.0833 29.75C23.3013 29.75 22.6667 29.1153 22.6667 28.3333V25.5C22.6667 24.718 23.3013 24.0833 24.0833 24.0833C24.8653 24.0833 25.5 24.718 25.5 25.5ZM26.2083 20.5417C26.2083 21.7147 25.2563 22.6667 24.0833 22.6667C22.9103 22.6667 21.9583 21.7147 21.9583 20.5417C21.9583 19.3687 22.9103 18.4167 24.0833 18.4167C25.2563 18.4167 26.2083 19.3687 26.2083 20.5417ZM12.75 31.1667H5.66667C4.10408 31.1667 2.83333 29.8959 2.83333 28.3333C2.83333 26.7708 4.10408 25.5 5.66667 25.5H9.91667C10.6987 25.5 11.3333 24.8653 11.3333 24.0833C11.3333 23.3013 10.6987 22.6667 9.91667 22.6667H8.5V2.83333H21.25C23.5932 2.83333 25.5 4.74017 25.5 7.08333V9.91667C25.5 10.6987 26.1347 11.3333 26.9167 11.3333C27.6987 11.3333 28.3333 10.6987 28.3333 9.91667V7.08333C28.3333 3.17758 25.1557 0 21.25 0H7.08333C3.179 0 0 3.17758 0 7.08333V28.3333C0 31.4585 2.54292 34 5.66667 34H12.75C13.532 34 14.1667 33.3653 14.1667 32.5833C14.1667 31.8013 13.532 31.1667 12.75 31.1667ZM2.83333 7.08333C2.83333 5.23883 4.02192 3.6805 5.66667 3.094V22.6667C4.62967 22.6667 3.67058 22.967 2.83333 23.4543V7.08333Z" fill="url(#paint0_linear_587_8659)"/>
</g>
<defs>
<linearGradient id="paint0_linear_587_8659" x1="48.7769" y1="17" x2="1.14078e-05" y2="17" gradientUnits="userSpaceOnUse">
<stop stop-color="#44CD77"/>
<stop offset="1" stop-color="#2871FF"/>
</linearGradient>
<clipPath id="clip0_587_8659">
<rect width="34" height="34" fill="white"/>
</clipPath>
</defs>
</svg>
