<svg width="34" height="34" viewBox="0 0 34 34" fill="none" xmlns="http://www.w3.org/2000/svg">
<g clip-path="url(#clip0_587_8639)">
<path d="M4.25 22.4258C4.09417 22.4258 3.93833 22.3975 3.7825 22.3408C2.15333 21.7742 0.8925 20.5133 0.325833 18.8842C0.0708333 18.1475 0.453333 17.34 1.19 17.0708C1.92667 16.8158 2.73417 17.1983 3.00333 17.935C3.28667 18.7283 3.92417 19.38 4.73167 19.6633C5.46833 19.9183 5.85083 20.7258 5.59583 21.4767C5.38333 22.0575 4.845 22.4258 4.26417 22.4258H4.25ZM14.1667 21.25C14.1667 20.4708 13.5292 19.8333 12.75 19.8333H9.91667C9.1375 19.8333 8.5 20.4708 8.5 21.25C8.5 22.0292 9.1375 22.6667 9.91667 22.6667H12.75C13.5292 22.6667 14.1667 22.0292 14.1667 21.25ZM18.8842 22.3408C20.5133 21.7742 21.7742 20.5133 22.3408 18.8842C22.5958 18.1475 22.2133 17.34 21.4767 17.0708C20.74 16.8158 19.9325 17.1983 19.6633 17.935C19.38 18.7283 18.7425 19.38 17.935 19.6633C17.1983 19.9183 16.8158 20.7258 17.0708 21.4767C17.2833 22.0575 17.8217 22.4258 18.4025 22.4258C18.5583 22.4258 18.7142 22.3975 18.87 22.3408H18.8842ZM22.6667 12.75V9.91667C22.6667 9.1375 22.0292 8.5 21.25 8.5C20.4708 8.5 19.8333 9.1375 19.8333 9.91667V12.75C19.8333 13.5292 20.4708 14.1667 21.25 14.1667C22.0292 14.1667 22.6667 13.5292 22.6667 12.75ZM14.1667 1.41667C14.1667 0.6375 13.5292 0 12.75 0H9.91667C9.1375 0 8.5 0.6375 8.5 1.41667C8.5 2.19583 9.1375 2.83333 9.91667 2.83333H12.75C13.5292 2.83333 14.1667 2.19583 14.1667 1.41667ZM2.83333 12.75V9.91667C2.83333 9.1375 2.19583 8.5 1.41667 8.5C0.6375 8.5 0 9.1375 0 9.91667V12.75C0 13.5292 0.6375 14.1667 1.41667 14.1667C2.19583 14.1667 2.83333 13.5292 2.83333 12.75ZM34 26.9167V18.4167C34 14.5067 30.8267 11.3333 26.9167 11.3333C26.1375 11.3333 25.5 11.9708 25.5 12.75V17C25.5 21.6892 21.6892 25.5 17 25.5H12.75C11.9708 25.5 11.3333 26.1375 11.3333 26.9167C11.3333 30.8267 14.5067 34 18.4167 34H26.9167C30.8267 34 34 30.8267 34 26.9167ZM2.98917 4.7175C3.2725 3.92417 3.91 3.2725 4.7175 2.98917C5.45417 2.73417 5.83667 1.92667 5.58167 1.17583C5.32667 0.453333 4.51917 0.0708333 3.7825 0.325833C2.15333 0.8925 0.8925 2.15333 0.325833 3.7825C0.0708333 4.51917 0.453333 5.32667 1.19 5.59583C1.34583 5.6525 1.50167 5.68083 1.6575 5.68083C2.23833 5.68083 2.79083 5.3125 2.98917 4.73167V4.7175ZM21.4767 5.58167C22.2133 5.32667 22.5958 4.51917 22.3408 3.76833C21.7742 2.13917 20.5133 0.878333 18.8842 0.311667C18.1475 0.0566667 17.34 0.439167 17.0708 1.17583C16.8158 1.9125 17.1983 2.72 17.935 2.98917C18.7283 3.2725 19.38 3.91 19.6633 4.7175C19.8758 5.29833 20.4142 5.66667 20.995 5.66667C21.1508 5.66667 21.3067 5.63833 21.4625 5.58167H21.4767Z" fill="url(#paint0_linear_587_8639)"/>
</g>
<defs>
<linearGradient id="paint0_linear_587_8639" x1="48.7769" y1="17" x2="1.14078e-05" y2="17" gradientUnits="userSpaceOnUse">
<stop stop-color="#44CD77"/>
<stop offset="1" stop-color="#2871FF"/>
</linearGradient>
<clipPath id="clip0_587_8639">
<rect width="34" height="34" fill="white"/>
</clipPath>
</defs>
</svg>
