<svg width="34" height="34" viewBox="0 0 34 34" fill="none" xmlns="http://www.w3.org/2000/svg">
<g clip-path="url(#clip0_587_8720)">
<path d="M29.991 27.9879C30.7333 26.8673 31.1668 25.5257 31.1668 24.0836C31.1668 20.1778 27.9892 17.0002 24.0835 17.0002C20.1777 17.0002 17.0001 20.1778 17.0001 24.0836C17.0001 27.9893 20.1777 31.1669 24.0835 31.1669C25.5256 31.1669 26.8672 30.7334 27.9878 29.9911L31.5819 33.5852C31.8581 33.8614 32.2208 34.0002 32.5835 34.0002C32.9461 34.0002 33.3088 33.8614 33.585 33.5852C34.139 33.0312 34.139 32.1359 33.585 31.582L29.991 27.9879ZM19.8335 24.0836C19.8335 21.7404 21.7403 19.8336 24.0835 19.8336C26.4266 19.8336 28.3335 21.7404 28.3335 24.0836C28.3335 26.4267 26.4266 28.3336 24.0835 28.3336C21.7403 28.3336 19.8335 26.4267 19.8335 24.0836ZM8.50012 6.37524C8.50012 7.54824 7.54812 8.50024 6.37512 8.50024C5.20212 8.50024 4.25012 7.54824 4.25012 6.37524C4.25012 5.20224 5.20212 4.25024 6.37512 4.25024C7.54812 4.25024 8.50012 5.20224 8.50012 6.37524ZM14.1668 6.37524C14.1668 7.54824 13.2148 8.50024 12.0418 8.50024C10.8688 8.50024 9.91679 7.54824 9.91679 6.37524C9.91679 5.20224 10.8688 4.25024 12.0418 4.25024C13.2148 4.25024 14.1668 5.20224 14.1668 6.37524ZM26.9168 0.000244141H7.08346C3.17771 0.000244141 0.00012207 3.17783 0.00012207 7.08358V24.0836C0.00012207 27.9893 3.17771 31.1669 7.08346 31.1669H14.1668C14.9502 31.1669 15.5835 30.5337 15.5835 29.7502C15.5835 28.9668 14.9502 28.3336 14.1668 28.3336H7.08346C4.74029 28.3336 2.83346 26.4267 2.83346 24.0836V12.7502H31.1668V17.0002C31.1668 17.7822 31.8 18.4169 32.5835 18.4169C33.3669 18.4169 34.0001 17.7822 34.0001 17.0002V7.08358C34.0001 3.17783 30.8225 0.000244141 26.9168 0.000244141ZM2.83346 9.91691V7.08358C2.83346 4.74041 4.74029 2.83358 7.08346 2.83358H26.9168C29.26 2.83358 31.1668 4.74041 31.1668 7.08358V9.91691H2.83346Z" fill="url(#paint0_linear_587_8720)"/>
</g>
<defs>
<linearGradient id="paint0_linear_587_8720" x1="48.7776" y1="17.0002" x2="0.000133478" y2="17.0002" gradientUnits="userSpaceOnUse">
<stop stop-color="#44CD77"/>
<stop offset="1" stop-color="#2871FF"/>
</linearGradient>
<clipPath id="clip0_587_8720">
<rect width="34" height="34" fill="white"/>
</clipPath>
</defs>
</svg>
