<svg width="46" height="46" viewBox="0 0 46 46" fill="none" xmlns="http://www.w3.org/2000/svg">
<g clip-path="url(#clip0_573_7444)">
<path d="M23 29C21.8133 29 20.6533 28.6481 19.6666 27.9888C18.6799 27.3295 17.9108 26.3925 17.4567 25.2961C17.0026 24.1997 16.8838 22.9933 17.1153 21.8295C17.3468 20.6656 17.9182 19.5965 18.7574 18.7574C19.5965 17.9182 20.6656 17.3468 21.8295 17.1153C22.9933 16.8838 24.1997 17.0026 25.2961 17.4567C26.3925 17.9109 27.3295 18.6799 27.9888 19.6666C28.6481 20.6533 29 21.8133 29 23C29 24.5913 28.3679 26.1174 27.2426 27.2426C26.1174 28.3679 24.5913 29 23 29ZM13.5245 29H6.5C6.10218 29 5.72064 28.842 5.43934 28.5607C5.15804 28.2794 5 27.8978 5 27.5C5.01421 25.3462 5.79759 23.2683 7.20883 21.6411C8.62008 20.014 10.5663 18.9446 12.6965 18.626C12.944 18.5913 13.1963 18.619 13.4304 18.7067C13.6645 18.7943 13.873 18.939 14.0369 19.1277C14.2009 19.3163 14.315 19.543 14.3691 19.787C14.4232 20.0311 14.4154 20.2847 14.3465 20.525C14.1166 21.3299 14 22.1629 14 23C14.0004 24.3346 14.3008 25.6521 14.879 26.855C14.9877 27.0833 15.037 27.3354 15.0222 27.5879C15.0074 27.8403 14.929 28.085 14.7943 28.299C14.6596 28.513 14.4729 28.6895 14.2517 28.8121C14.0305 28.9346 13.7819 28.9993 13.529 29H13.5245ZM30.5 41H15.5C15.1022 41 14.7206 40.842 14.4393 40.5607C14.158 40.2794 14 39.8978 14 39.5C14 37.1131 14.9482 34.8239 16.636 33.136C18.3239 31.4482 20.6131 30.5 23 30.5C25.3869 30.5 27.6761 31.4482 29.364 33.136C31.0518 34.8239 32 37.1131 32 39.5C32 39.8978 31.842 40.2794 31.5607 40.5607C31.2794 40.842 30.8978 41 30.5 41ZM32 17C30.8133 17 29.6533 16.6481 28.6666 15.9888C27.6799 15.3295 26.9108 14.3925 26.4567 13.2961C26.0026 12.1997 25.8838 10.9933 26.1153 9.82946C26.3468 8.66558 26.9182 7.59648 27.7574 6.75736C28.5965 5.91825 29.6656 5.3468 30.8295 5.11529C31.9933 4.88378 33.1997 5.0026 34.2961 5.45673C35.3925 5.91085 36.3295 6.67989 36.9888 7.66658C37.6481 8.65328 38 9.81331 38 11C38 12.5913 37.3679 14.1174 36.2426 15.2426C35.1174 16.3679 33.5913 17 32 17ZM14 17C12.8133 17 11.6533 16.6481 10.6666 15.9888C9.67988 15.3295 8.91085 14.3925 8.45672 13.2961C8.0026 12.1997 7.88378 10.9933 8.11529 9.82946C8.3468 8.66558 8.91824 7.59648 9.75736 6.75736C10.5965 5.91825 11.6656 5.3468 12.8295 5.11529C13.9933 4.88378 15.1997 5.0026 16.2961 5.45673C17.3925 5.91085 18.3295 6.67989 18.9888 7.66658C19.6481 8.65328 20 9.81331 20 11C20 12.5913 19.3679 14.1174 18.2426 15.2426C17.1174 16.3679 15.5913 17 14 17ZM39.5 29H32.4755C32.2226 28.9993 31.974 28.9346 31.7528 28.8121C31.5316 28.6895 31.3449 28.513 31.2102 28.299C31.0755 28.085 30.9971 27.8403 30.9823 27.5879C30.9675 27.3354 31.0168 27.0833 31.1255 26.855C31.7021 25.6517 32.001 24.3343 32 23C31.9975 22.1626 31.8784 21.3296 31.646 20.525C31.5767 20.2841 31.5689 20.0296 31.6233 19.7848C31.6777 19.5401 31.7926 19.3129 31.9575 19.124C32.1223 18.9351 32.3319 18.7906 32.5671 18.7036C32.8022 18.6166 33.0554 18.5899 33.3035 18.626C35.4337 18.9446 37.3799 20.014 38.7912 21.6411C40.2024 23.2683 40.9858 25.3462 41 27.5C41 27.8978 40.842 28.2794 40.5607 28.5607C40.2794 28.842 39.8978 29 39.5 29Z" fill="url(#paint0_linear_573_7444)"/>
</g>
<defs>
<linearGradient id="paint0_linear_573_7444" x1="56.6462" y1="23" x2="5.00001" y2="23" gradientUnits="userSpaceOnUse">
<stop stop-color="#44CD77"/>
<stop offset="1" stop-color="#2871FF"/>
</linearGradient>
<clipPath id="clip0_573_7444">
<rect width="36" height="36" fill="white" transform="translate(5 5)"/>
</clipPath>
</defs>
</svg>
