<svg width="36" height="37" viewBox="0 0 36 37" fill="none" xmlns="http://www.w3.org/2000/svg">
<circle cx="18" cy="18.7939" r="18" fill="white" fill-opacity="0.05"/>
<g opacity="0.8">
<path d="M10.7677 11.8798C10.8927 11.6353 11.1441 11.4814 11.4188 11.4814H15.075C15.3098 11.4814 15.5303 11.5942 15.6678 11.7846L25.1741 24.947C25.3349 25.1697 25.3574 25.4636 25.2323 25.7081C25.1073 25.9526 24.8558 26.1064 24.5813 26.1064H20.925C20.6902 26.1064 20.4697 25.9937 20.3322 25.8034L10.8259 12.6408C10.6652 12.4182 10.6427 12.1243 10.7677 11.8798Z" fill="#F4F4F4"/>
<path d="M10.9017 24.8581L24.0642 11.6956C24.3497 11.4101 24.8128 11.4101 25.0983 11.6956C25.3839 11.9812 25.3839 12.4442 25.0983 12.7298L11.9358 25.8922C11.6503 26.1778 11.1873 26.1778 10.9017 25.8922C10.6161 25.6067 10.6161 25.1437 10.9017 24.8581Z" fill="#F4F4F4"/>
</g>
</svg>
