<svg width="25" height="25" viewBox="0 0 25 25" fill="none" xmlns="http://www.w3.org/2000/svg">
<g clip-path="url(#clip0_606_828)">
<mask id="mask0_606_828" style="mask-type:luminance" maskUnits="userSpaceOnUse" x="2" y="5" width="21" height="16">
<rect x="2.71436" y="5.06689" width="20" height="15" fill="white"/>
</mask>
<g mask="url(#mask0_606_828)">
<path fill-rule="evenodd" clip-rule="evenodd" d="M2.71436 5.06689H22.7144V20.0669H2.71436V5.06689Z" fill="#E31D1C"/>
<path fill-rule="evenodd" clip-rule="evenodd" d="M2.71436 6.31689V7.56689H22.7144V6.31689H2.71436ZM2.71436 8.81689V10.0669H22.7144V8.81689H2.71436ZM2.71436 12.5669V11.3169H22.7144V12.5669H2.71436ZM2.71436 13.8169V15.0669H22.7144V13.8169H2.71436ZM2.71436 17.5669V16.3169H22.7144V17.5669H2.71436ZM2.71436 20.0669V18.8169H22.7144V20.0669H2.71436Z" fill="#F7FCFF"/>
<rect x="2.71436" y="5.06689" width="11.25" height="8.75" fill="#2E42A5"/>
<path fill-rule="evenodd" clip-rule="evenodd" d="M4.01436 7.78414L4.67676 7.32273L5.19058 7.69264H4.89966L5.48799 8.21301L5.28928 8.94264H4.97804L4.67583 8.27252L4.4181 8.94264H3.64966L4.23799 9.46301L4.01436 10.2841L4.67676 9.82273L5.19058 10.1926H4.89966L5.48799 10.713L5.28928 11.4426H4.97804L4.67583 10.7725L4.4181 11.4426H3.64966L4.23799 11.963L4.01436 12.7841L4.67676 12.3227L5.31768 12.7841L5.11841 11.963L5.63312 11.4426H5.39571L5.92676 11.0727L6.44058 11.4426H6.14966L6.73799 11.963L6.51436 12.7841L7.17676 12.3227L7.81768 12.7841L7.61841 11.963L8.13312 11.4426H7.89571L8.42676 11.0727L8.94058 11.4426H8.64966L9.23799 11.963L9.01436 12.7841L9.67676 12.3227L10.3177 12.7841L10.1184 11.963L10.6331 11.4426H10.3957L10.9268 11.0727L11.4406 11.4426H11.1497L11.738 11.963L11.5144 12.7841L12.1768 12.3227L12.8177 12.7841L12.6184 11.963L13.1331 11.4426H12.478L12.1758 10.7725L11.9181 11.4426H11.5455L11.3684 10.713L11.8831 10.1926H11.6457L12.1768 9.82273L12.8177 10.2841L12.6184 9.46301L13.1331 8.94264H12.478L12.1758 8.27252L11.9181 8.94264H11.5455L11.3684 8.21301L11.8831 7.69264H11.6457L12.1768 7.32273L12.8177 7.78414L12.6184 6.96301L13.1331 6.44264H12.478L12.1758 5.77252L11.9181 6.44264H11.1497L11.738 6.96301L11.5393 7.69264H11.228L10.9258 7.02252L10.6681 7.69264H10.2955L10.1184 6.96301L10.6331 6.44264H9.97804L9.67583 5.77252L9.4181 6.44264H8.64966L9.23799 6.96301L9.03928 7.69264H8.72804L8.42583 7.02252L8.1681 7.69264H7.79547L7.61841 6.96301L8.13312 6.44264H7.47804L7.17583 5.77252L6.9181 6.44264H6.14966L6.73799 6.96301L6.53928 7.69264H6.22804L5.92583 7.02252L5.6681 7.69264H5.29547L5.11841 6.96301L5.63312 6.44264H4.97804L4.67583 5.77252L4.4181 6.44264H3.64966L4.23799 6.96301L4.01436 7.78414ZM11.5393 10.1926L11.738 9.46301L11.1497 8.94264H11.4406L10.9268 8.57273L10.3957 8.94264H10.6331L10.1184 9.46301L10.2955 10.1926H10.6681L10.9258 9.52252L11.228 10.1926H11.5393ZM10.1906 10.1926L9.67676 9.82273L9.14571 10.1926H9.38312L8.86841 10.713L9.04547 11.4426H9.4181L9.67583 10.7725L9.97804 11.4426H10.2893L10.488 10.713L9.89966 10.1926H10.1906ZM7.98799 10.713L7.78928 11.4426H7.47804L7.17583 10.7725L6.9181 11.4426H6.54547L6.36841 10.713L6.88312 10.1926H6.64571L7.17676 9.82273L7.69058 10.1926H7.39966L7.98799 10.713ZM8.1681 10.1926H7.79547L7.61841 9.46301L8.13312 8.94264H7.89571L8.42676 8.57273L8.94058 8.94264H8.64966L9.23799 9.46301L9.03928 10.1926H8.72804L8.42583 9.52252L8.1681 10.1926ZM6.53928 10.1926L6.73799 9.46301L6.14966 8.94264H6.44058L5.92676 8.57273L5.39571 8.94264H5.63312L5.11841 9.46301L5.29547 10.1926H5.6681L5.92583 9.52252L6.22804 10.1926H6.53928ZM10.488 8.21301L10.2893 8.94264H9.97804L9.67583 8.27252L9.4181 8.94264H9.04547L8.86841 8.21301L9.38312 7.69264H9.14571L9.67676 7.32273L10.1906 7.69264H9.89966L10.488 8.21301ZM7.69058 7.69264L7.17676 7.32273L6.64571 7.69264H6.88312L6.36841 8.21301L6.54547 8.94264H6.9181L7.17583 8.27252L7.47804 8.94264H7.78928L7.98799 8.21301L7.39966 7.69264H7.69058Z" fill="#F7FCFF"/>
</g>
<rect x="2.71436" y="5.06689" width="20" height="15" fill="url(#paint0_linear_606_828)" style="mix-blend-mode:overlay"/>
</g>
<rect x="3.21436" y="5.56689" width="19" height="14" rx="1.5" stroke="black" stroke-opacity="0.1"/>
<defs>
<linearGradient id="paint0_linear_606_828" x1="12.7144" y1="5.06689" x2="12.7144" y2="20.0669" gradientUnits="userSpaceOnUse">
<stop stop-color="white" stop-opacity="0.7"/>
<stop offset="1" stop-opacity="0.3"/>
</linearGradient>
<clipPath id="clip0_606_828">
<rect x="2.71436" y="5.06689" width="20" height="15" rx="2" fill="white"/>
</clipPath>
</defs>
</svg>
