<svg width="25" height="25" viewBox="0 0 25 25" fill="none" xmlns="http://www.w3.org/2000/svg">
<g clip-path="url(#clip0_606_848)">
<mask id="mask0_606_848" style="mask-type:luminance" maskUnits="userSpaceOnUse" x="2" y="5" width="21" height="16">
<rect x="2.71436" y="5.06689" width="20" height="15" fill="white"/>
</mask>
<g mask="url(#mask0_606_848)">
<path fill-rule="evenodd" clip-rule="evenodd" d="M2.71436 5.06689V20.0669H22.7144V5.06689H2.71436Z" fill="#F7FCFF"/>
<mask id="mask1_606_848" style="mask-type:luminance" maskUnits="userSpaceOnUse" x="2" y="5" width="21" height="16">
<path fill-rule="evenodd" clip-rule="evenodd" d="M2.71436 5.06689V20.0669H22.7144V5.06689H2.71436Z" fill="white"/>
</mask>
<g mask="url(#mask1_606_848)">
<path fill-rule="evenodd" clip-rule="evenodd" d="M12.7142 16.4541C14.7159 16.4541 16.3386 14.7308 16.3386 12.605C16.3386 10.4792 14.7159 8.75592 12.7142 8.75592C10.7125 8.75592 9.08984 10.4792 9.08984 12.605C9.08984 14.7308 10.7125 16.4541 12.7142 16.4541Z" fill="#3D58DB"/>
<mask id="mask2_606_848" style="mask-type:luminance" maskUnits="userSpaceOnUse" x="9" y="8" width="8" height="9">
<path fill-rule="evenodd" clip-rule="evenodd" d="M12.7142 16.4541C14.7159 16.4541 16.3386 14.7308 16.3386 12.605C16.3386 10.4792 14.7159 8.75592 12.7142 8.75592C10.7125 8.75592 9.08984 10.4792 9.08984 12.605C9.08984 14.7308 10.7125 16.4541 12.7142 16.4541Z" fill="white"/>
</mask>
<g mask="url(#mask2_606_848)">
<path fill-rule="evenodd" clip-rule="evenodd" d="M16.4656 12.8998C16.4656 12.8998 16.2621 11.0849 14.7554 10.9863C13.2488 10.8878 12.8425 12.3173 12.7556 12.6961C12.6686 13.0748 12.4486 14.0851 10.8622 14.0851C9.27591 14.0851 9.13281 11.5161 9.13281 11.5161V8.48682H16.4656V12.8998Z" fill="#E31D1C"/>
</g>
<path fill-rule="evenodd" clip-rule="evenodd" d="M7.27638 6.34949L7.84823 6.86669L5.19807 9.96163L4.62622 9.44443L7.27638 6.34949ZM8.2195 7.18646L8.79135 7.70366L6.23619 10.7538L5.66434 10.2366L8.2195 7.18646ZM9.73015 8.55095L9.1583 8.03375L6.59603 11.107L7.16789 11.6242L9.73015 8.55095Z" fill="#272727"/>
<path fill-rule="evenodd" clip-rule="evenodd" d="M18.5666 6.13263L17.9947 6.6479L18.9868 7.81217L19.5588 7.2969L18.5666 6.13263ZM20.3301 8.27428L19.7582 8.78955L20.7503 9.95382L21.3223 9.43855L20.3301 8.27428ZM16.1068 8.32489L16.6788 7.80962L17.6709 8.97389L17.0989 9.48916L16.1068 8.32489ZM18.4423 9.95127L17.8703 10.4665L18.8624 11.6308L19.4344 11.1155L18.4423 9.95127ZM17.0865 7.46139L17.6585 6.94612L20.4201 10.3092L19.8481 10.8244L17.0865 7.46139Z" fill="#272727"/>
<path fill-rule="evenodd" clip-rule="evenodd" d="M18.9986 13.9688L18.4218 13.4515L17.4213 14.6204L17.9981 15.1376L18.9986 13.9688ZM17.3165 16.0257L16.7397 15.5084L15.7393 16.6772L16.316 17.1945L17.3165 16.0257ZM20.2433 15.0874L20.8201 15.6047L19.8196 16.7735L19.2428 16.2562L20.2433 15.0874ZM19.2203 17.7092L18.6435 17.192L17.643 18.3608L18.2198 18.878L19.2203 17.7092ZM17.6934 16.3031L18.2701 16.8204L17.2258 18.0685L16.649 17.5512L17.6934 16.3031ZM19.9835 14.7408L19.4068 14.2235L18.3624 15.4716L18.9392 15.9889L19.9835 14.7408Z" fill="#272727"/>
<path fill-rule="evenodd" clip-rule="evenodd" d="M6.71839 14.3731L7.29039 13.8572L9.84326 16.7825L9.27126 17.2983L6.71839 14.3731ZM7.31388 16.9316L7.88589 16.4158L8.9642 17.6005L8.3922 18.1163L7.31388 16.9316ZM5.40768 15.4986L4.83567 16.0145L7.4018 18.9791L7.9738 18.4633L5.40768 15.4986ZM5.81466 15.162L6.38667 14.6462L7.32146 15.7424L6.74946 16.2582L5.81466 15.162Z" fill="#272727"/>
</g>
</g>
<rect x="2.71436" y="5.06689" width="20" height="15" fill="url(#paint0_linear_606_848)" style="mix-blend-mode:overlay"/>
</g>
<rect x="3.21436" y="5.56689" width="19" height="14" rx="1.5" stroke="black" stroke-opacity="0.1"/>
<defs>
<linearGradient id="paint0_linear_606_848" x1="12.7144" y1="5.06689" x2="12.7144" y2="20.0669" gradientUnits="userSpaceOnUse">
<stop stop-color="white" stop-opacity="0.7"/>
<stop offset="1" stop-opacity="0.3"/>
</linearGradient>
<clipPath id="clip0_606_848">
<rect x="2.71436" y="5.06689" width="20" height="15" rx="2" fill="white"/>
</clipPath>
</defs>
</svg>
