<svg width="370" height="54" viewBox="0 0 370 54" fill="none" xmlns="http://www.w3.org/2000/svg">
<g filter="url(#filter0_b_674_171231)">
<mask id="path-1-inside-1_674_171231" fill="white">
<path fill-rule="evenodd" clip-rule="evenodd" d="M0 0H356.636L370 13.364V54H12.3639L0 41.6361V0Z"/>
</mask>
<path fill-rule="evenodd" clip-rule="evenodd" d="M0 0H356.636L370 13.364V54H12.3639L0 41.6361V0Z" fill="white" fill-opacity="0.05"/>
<path d="M356.636 0L357.343 -0.707107L357.05 -1H356.636V0ZM0 0V-1H-1V0H0ZM370 13.364H371V12.9498L370.707 12.6569L370 13.364ZM370 54V55H371V54H370ZM12.3639 54L11.6568 54.7071L11.9497 55H12.3639V54ZM0 41.6361H-1V42.0503L-0.707107 42.3432L0 41.6361ZM356.636 -1H0V1H356.636V-1ZM370.707 12.6569L357.343 -0.707107L355.929 0.707107L369.293 14.0711L370.707 12.6569ZM371 54V13.364H369V54H371ZM12.3639 55H370V53H12.3639V55ZM-0.707107 42.3432L11.6568 54.7071L13.071 53.2929L0.707107 40.929L-0.707107 42.3432ZM-1 0V41.6361H1V0H-1Z" fill="url(#paint0_linear_674_171231)" mask="url(#path-1-inside-1_674_171231)"/>
</g>
<defs>
<filter id="filter0_b_674_171231" x="-45" y="-45" width="460" height="144" filterUnits="userSpaceOnUse" color-interpolation-filters="sRGB">
<feFlood flood-opacity="0" result="BackgroundImageFix"/>
<feGaussianBlur in="BackgroundImageFix" stdDeviation="22.5"/>
<feComposite in2="SourceAlpha" operator="in" result="effect1_backgroundBlur_674_171231"/>
<feBlend mode="normal" in="SourceGraphic" in2="effect1_backgroundBlur_674_171231" result="shape"/>
</filter>
<linearGradient id="paint0_linear_674_171231" x1="530.808" y1="27" x2="0.000124144" y2="26.9999" gradientUnits="userSpaceOnUse">
<stop stop-color="#44CD77"/>
<stop offset="1" stop-color="#2871FF"/>
</linearGradient>
</defs>
</svg>
