<svg width="376" height="266" viewBox="0 0 376 266" fill="none" xmlns="http://www.w3.org/2000/svg">
<g filter="url(#filter0_b_573_7442)">
<path d="M316.502 0H28.3811C12.7067 0 0 12.7067 0 28.3811V237.619C0 253.293 12.7067 266 28.3811 266H347.619C363.293 266 376 253.293 376 237.619V53.092C376 44.4345 372.048 36.2504 365.269 30.8665L334.151 6.15561C329.132 2.1696 322.911 0 316.502 0Z" fill="url(#paint0_linear_573_7442)"/>
<path d="M28.3811 0.88691H316.502C322.711 0.88691 328.737 2.98871 333.6 6.85015L364.717 31.561C371.285 36.7767 375.113 44.705 375.113 53.092V237.619C375.113 252.803 362.803 265.113 347.619 265.113H28.3811C13.1965 265.113 0.88691 252.804 0.88691 237.619V28.3811C0.88691 13.1965 13.1965 0.88691 28.3811 0.88691Z" stroke="url(#paint1_linear_573_7442)" stroke-width="1.77382"/>
</g>
<defs>
<filter id="filter0_b_573_7442" x="-1.77382" y="-1.77382" width="379.548" height="269.548" filterUnits="userSpaceOnUse" color-interpolation-filters="sRGB">
<feFlood flood-opacity="0" result="BackgroundImageFix"/>
<feGaussianBlur in="BackgroundImageFix" stdDeviation="0.88691"/>
<feComposite in2="SourceAlpha" operator="in" result="effect1_backgroundBlur_573_7442"/>
<feBlend mode="normal" in="SourceGraphic" in2="effect1_backgroundBlur_573_7442" result="shape"/>
</filter>
<linearGradient id="paint0_linear_573_7442" x1="-10.1981" y1="4.31351" x2="306.533" y2="337.14" gradientUnits="userSpaceOnUse">
<stop stop-color="#0E0C15"/>
<stop offset="1" stop-color="#0E0C15" stop-opacity="0"/>
</linearGradient>
<linearGradient id="paint1_linear_573_7442" x1="283.8" y1="-276.231" x2="155.011" y2="-274.994" gradientUnits="userSpaceOnUse">
<stop stop-color="#44CD77"/>
<stop offset="1" stop-color="#2871FF"/>
</linearGradient>
</defs>
</svg>
