<svg width="357" height="206" viewBox="0 0 357 206" fill="none" xmlns="http://www.w3.org/2000/svg" xmlns:xlink="http://www.w3.org/1999/xlink">
<path d="M0.5 0.5H356.5V205.5H0.5V0.5Z" fill="black"/>
<path d="M0.5 0.5H356.5V205.5H0.5V0.5Z" stroke="black"/>
<path d="M0.5 0.5H356.5V205.5H0.5V0.5Z" stroke="black" stroke-opacity="0.2"/>
<g filter="url(#filter0_b_1470_1181)">
<path d="M352.6 97.1754V85.9246H357V78.2581H352.6V67.0073H357V58.7434H348.2V28.6747H357V0H83.5V7.16868H64.3V0H26.7L0 26.4843V185.091H3.8V196.442H0V206H337.1L357 186.286V97.1754H352.6Z" fill="url(#pattern0_1470_1181)"/>
<path d="M352.6 97.1754V85.9246H357V78.2581H352.6V67.0073H357V58.7434H348.2V28.6747H357V0H83.5V7.16868H64.3V0H26.7L0 26.4843V185.091H3.8V196.442H0V206H337.1L357 186.286V97.1754H352.6Z" fill="white"/>
<path d="M352.1 97.1754V97.6754H352.6H356.5V186.078L336.894 205.5H0.5V196.942H3.8H4.3V196.442V185.091V184.591H3.8H0.5V26.6926L26.9059 0.5H63.8V7.16868V7.66868H64.3H83.5H84V7.16868V0.5H356.5V28.1747H348.2H347.7V28.6747V58.7434V59.2434H348.2H356.5V66.5073H352.6H352.1V67.0073V78.2581V78.7581H352.6H356.5V85.4246H352.6H352.1V85.9246V97.1754Z" stroke="black"/>
</g>
<defs>
<filter id="filter0_b_1470_1181" x="-45" y="-45" width="447" height="296" filterUnits="userSpaceOnUse" color-interpolation-filters="sRGB">
<feFlood flood-opacity="0" result="BackgroundImageFix"/>
<feGaussianBlur in="BackgroundImageFix" stdDeviation="22.5"/>
<feComposite in2="SourceAlpha" operator="in" result="effect1_backgroundBlur_1470_1181"/>
<feBlend mode="normal" in="SourceGraphic" in2="effect1_backgroundBlur_1470_1181" result="shape"/>
</filter>
<pattern id="pattern0_1470_1181" patternContentUnits="objectBoundingBox" width="1" height="1">
<use xlink:href="#image0_1470_1181" transform="translate(-0.00097905) scale(0.00072444 0.00125)"/>
</pattern>

</defs>
</svg>
