<svg width="19" height="19" viewBox="0 0 19 19" fill="none" xmlns="http://www.w3.org/2000/svg">
<path d="M9.30113 2.29346C11.3389 2.29346 11.5932 2.30096 12.3926 2.33846C13.1914 2.37596 13.7352 2.50121 14.2137 2.68721C14.7087 2.87771 15.1257 3.13571 15.5426 3.55196C15.924 3.92689 16.2192 4.3804 16.4074 4.88096C16.5927 5.35871 16.7187 5.90321 16.7562 6.70196C16.7914 7.50146 16.8012 7.75571 16.8012 9.79344C16.8012 11.8312 16.7936 12.0855 16.7562 12.8849C16.7187 13.6837 16.5927 14.2275 16.4074 14.706C16.2197 15.2068 15.9245 15.6604 15.5426 16.0349C15.1676 16.4162 14.7142 16.7113 14.2137 16.8997C13.7359 17.085 13.1914 17.211 12.3926 17.2485C11.5932 17.2837 11.3389 17.2935 9.30113 17.2935C7.2634 17.2935 7.00915 17.2859 6.20965 17.2485C5.4109 17.211 4.86715 17.085 4.38865 16.8997C3.8879 16.7118 3.4343 16.4166 3.05965 16.0349C2.67821 15.6601 2.3831 15.2066 2.1949 14.706C2.0089 14.2282 1.88365 13.6837 1.84615 12.8849C1.8109 12.0855 1.80115 11.8312 1.80115 9.79344C1.80115 7.75571 1.80865 7.50146 1.84615 6.70196C1.88365 5.90246 2.0089 5.35946 2.1949 4.88096C2.38257 4.3801 2.67776 3.92645 3.05965 3.55196C3.4344 3.17038 3.88797 2.87525 4.38865 2.68721C4.86715 2.50121 5.41015 2.37596 6.20965 2.33846C7.00915 2.30321 7.2634 2.29346 9.30113 2.29346ZM9.30113 6.04346C8.30659 6.04346 7.35276 6.43855 6.6495 7.14181C5.94624 7.84507 5.55115 8.7989 5.55115 9.79344C5.55115 10.788 5.94624 11.7418 6.6495 12.4451C7.35276 13.1484 8.30659 13.5435 9.30113 13.5435C10.2957 13.5435 11.2495 13.1484 11.9528 12.4451C12.6561 11.7418 13.0512 10.788 13.0512 9.79344C13.0512 8.7989 12.6561 7.84507 11.9528 7.14181C11.2495 6.43855 10.2957 6.04346 9.30113 6.04346ZM14.1762 5.85596C14.1762 5.60732 14.0773 5.36887 13.9016 5.19305C13.7257 5.01724 13.4873 4.91846 13.2386 4.91846C12.99 4.91846 12.7515 5.01724 12.5758 5.19305C12.3999 5.36887 12.3012 5.60732 12.3012 5.85596C12.3012 6.1046 12.3999 6.34305 12.5758 6.51888C12.7515 6.69469 12.99 6.79346 13.2386 6.79346C13.4873 6.79346 13.7257 6.69469 13.9016 6.51888C14.0773 6.34305 14.1762 6.1046 14.1762 5.85596ZM9.30113 7.54346C9.89792 7.54346 10.4702 7.78051 10.8921 8.20247C11.3141 8.62443 11.5511 9.19672 11.5511 9.79344C11.5511 10.3902 11.3141 10.9625 10.8921 11.3845C10.4702 11.8064 9.89792 12.0434 9.30113 12.0434C8.70441 12.0434 8.13212 11.8064 7.71016 11.3845C7.2882 10.9625 7.05115 10.3902 7.05115 9.79344C7.05115 9.19672 7.2882 8.62443 7.71016 8.20247C8.13212 7.78051 8.70441 7.54346 9.30113 7.54346Z" fill="#F4F4F4"/>
</svg>
