<svg width="357" height="217" viewBox="0 0 357 217" fill="none" xmlns="http://www.w3.org/2000/svg">
<g filter="url(#filter0_b_1473_1445)">
<path d="M352.6 102.364V90.5128H357V82.4369H352.6V70.5853H357V61.8801H348.2V30.2059H357V0H83.5V7.55147H64.3V0H26.7L0 27.8985V194.975H3.8V206.931H0V217H337.1L357 196.233V102.364H352.6Z" fill="white"/>
<path d="M352.1 102.364V102.864H352.6H356.5V196.033L336.887 216.5H0.5V207.431H3.8H4.3V206.931V194.975V194.475H3.8H0.5V28.0992L26.9136 0.5H63.8V7.55147V8.05147H64.3H83.5H84V7.55147V0.5H356.5V29.7059H348.2H347.7V30.2059V61.8801V62.3801H348.2H356.5V70.0853H352.6H352.1V70.5853V82.4369V82.9369H352.6H356.5V90.0128H352.6H352.1V90.5128V102.364Z" stroke="black"/>
</g>
<defs>
<filter id="filter0_b_1473_1445" x="-45" y="-45" width="447" height="307" filterUnits="userSpaceOnUse" color-interpolation-filters="sRGB">
<feFlood flood-opacity="0" result="BackgroundImageFix"/>
<feGaussianBlur in="BackgroundImageFix" stdDeviation="22.5"/>
<feComposite in2="SourceAlpha" operator="in" result="effect1_backgroundBlur_1473_1445"/>
<feBlend mode="normal" in="SourceGraphic" in2="effect1_backgroundBlur_1473_1445" result="shape"/>
</filter>
</defs>
</svg>
