<svg width="18" height="19" viewBox="0 0 18 19" fill="none" xmlns="http://www.w3.org/2000/svg">
<path d="M1.76768 2.87979C1.89269 2.63529 2.14415 2.48145 2.41875 2.48145H6.075C6.30981 2.48145 6.53033 2.5942 6.66781 2.78456L16.1741 15.947C16.3349 16.1697 16.3574 16.4636 16.2323 16.7081C16.1073 16.9526 15.8558 17.1064 15.5813 17.1064H11.925C11.6902 17.1064 11.4697 16.9937 11.3322 16.8034L1.82594 3.64083C1.66517 3.41822 1.64266 3.12429 1.76768 2.87979Z" fill="#F4F4F4"/>
<path d="M1.90168 15.8581L15.0642 2.69562C15.3497 2.41005 15.8128 2.41005 16.0983 2.69562C16.3839 2.98119 16.3839 3.4442 16.0983 3.72977L2.93582 16.8922C2.65025 17.1778 2.18726 17.1778 1.90168 16.8922C1.61611 16.6067 1.61611 16.1437 1.90168 15.8581Z" fill="#F4F4F4"/>
</svg>
