<svg width="557" height="53" viewBox="0 0 557 53" fill="none" xmlns="http://www.w3.org/2000/svg">
<path d="M3 4.2091H413.444L435.399 25.9545H494.571L516.526 4H551.862" stroke="url(#paint0_radial_594_35212)" stroke-width="4.1818" stroke-linecap="round" stroke-linejoin="round"/>
<path d="M146.227 19.0547L154.591 35.5728L146.227 52.3H152.5L160.863 35.5728L152.5 19.0547H146.227ZM92.6998 19.0547L100.854 35.5728L92.6998 52.3H98.9725L107.127 35.5728L98.9725 19.0547H92.6998ZM110.472 19.0547L118.836 35.5728L110.472 52.3H116.745L125.109 35.5728L116.745 19.0547H110.472ZM128.454 19.0547L136.818 35.5728L128.454 52.3H134.727L143.091 35.5728L134.727 19.0547H128.454ZM38.9636 19.0547L47.3272 35.5728L38.9636 52.3H45.2363L53.5999 35.5728L45.2363 19.0547H38.9636ZM11.5728 35.5728L3.20923 52.3H9.48194L17.8455 35.5728L9.48194 19.0547H3.20923L11.5728 35.5728ZM74.718 18.8456L83.0817 35.5728L74.718 52.0909H80.9908L89.3544 35.5728L80.9908 18.8456H74.718ZM21.1909 18.8456L29.3455 35.5728L21.1909 52.0909H27.4636L35.6182 35.5728L27.4636 18.8456H21.1909ZM56.9454 18.8456L65.309 35.5728L56.9454 52.0909H63.2181L71.5817 35.5728L63.2181 18.8456H56.9454Z" fill="url(#paint1_linear_594_35212)"/>
<path d="M548 8H556.1V0H548V8Z" fill="#3E68FD"/>
<path d="M550.3 5.80005H553.8V2.30005H550.3V5.80005Z" fill="#C8DEFF"/>
<defs>
<radialGradient id="paint0_radial_594_35212" cx="0" cy="0" r="1" gradientUnits="userSpaceOnUse" gradientTransform="translate(277.512 14.9772) scale(194.195 194.195)">
<stop offset="0.001" stop-color="#44CD77" stop-opacity="0"/>
<stop offset="1" stop-color="#2871FF"/>
</radialGradient>
<linearGradient id="paint1_linear_594_35212" x1="160.922" y1="19.0233" x2="3.09841" y2="19.0233" gradientUnits="userSpaceOnUse">
<stop stop-color="#2871FF"/>
<stop offset="1" stop-color="#44CD77" stop-opacity="0.1"/>
</linearGradient>
</defs>
</svg>
