<svg width="19" height="19" viewBox="0 0 19 19" fill="none" xmlns="http://www.w3.org/2000/svg">
<path d="M17.5197 5.03662C16.9471 5.28989 16.3399 5.45623 15.7182 5.53012C16.3735 5.1382 16.864 4.52138 17.0982 3.79462C16.4832 4.16063 15.8089 4.41713 15.1062 4.55587C14.6341 4.05081 14.0085 3.71585 13.3264 3.60306C12.6443 3.49028 11.9441 3.60599 11.3346 3.93222C10.7251 4.25844 10.2404 4.77688 9.95602 5.40696C9.67155 6.03705 9.60323 6.74346 9.76168 7.41638C8.5145 7.35386 7.29443 7.02976 6.18064 6.46512C5.06685 5.90048 4.08427 5.10791 3.29667 4.13887C3.01789 4.61771 2.87139 5.16205 2.87218 5.71612C2.87218 6.80362 3.42568 7.76437 4.26718 8.32687C3.76918 8.31119 3.28215 8.17671 2.84667 7.93462V7.97362C2.84682 8.6979 3.09745 9.39983 3.55606 9.96038C4.01466 10.521 4.65303 10.9057 5.36293 11.0494C4.90063 11.1747 4.4159 11.1931 3.94543 11.1034C4.14557 11.7268 4.53567 12.272 5.06112 12.6627C5.58656 13.0534 6.22102 13.2699 6.87567 13.2821C6.22504 13.7931 5.48005 14.1708 4.68334 14.3938C3.88661 14.6166 3.05377 14.6803 2.23242 14.5812C3.66619 15.5032 5.33524 15.9927 7.03992 15.9911C12.8097 15.9911 15.965 11.2114 15.965 7.06612C15.965 6.93112 15.9612 6.79462 15.9552 6.66112C16.5693 6.21725 17.0994 5.66739 17.5204 5.03737L17.5197 5.03662Z" fill="#F4F4F4"/>
</svg>
