<svg width="384" height="228" viewBox="0 0 384 228" fill="none" xmlns="http://www.w3.org/2000/svg">
<g filter="url(#filter0_b_698_3142)">
<path d="M367.6 108.7V97.4001H372V89.7001H367.6V78.4001H372V70.1001H363.2V39.9001H372V11.1001H98.5V18.3001H79.3V11.1001H41.7L15 37.7001V197H18.8V208.4H15V218H352.1L372 198.2V108.7H367.6Z" fill="#DADADA"/>
<path d="M367.1 108.7V109.2H367.6H371.5V197.992L351.894 217.5H15.5V208.9H18.8H19.3V208.4V197V196.5H18.8H15.5V37.9078L41.9066 11.6001H78.8V18.3001V18.8001H79.3H98.5H99V18.3001V11.6001H371.5V39.4001H363.2H362.7V39.9001V70.1001V70.6001H363.2H371.5V77.9001H367.6H367.1V78.4001V89.7001V90.2001H367.6H371.5V96.9001H367.6H367.1V97.4001V108.7Z" stroke="url(#paint0_linear_698_3142)" stroke-opacity="0.05"/>
</g>
<path fill-rule="evenodd" clip-rule="evenodd" d="M378.707 228C323.312 228 60.1882 228 4.79371 228C4.39423 228 3.99475 227.7 3.99475 227.3C3.99475 182.033 3.99475 76.8 3.99475 31.6C3.99475 31.4 4.06133 31.2333 4.19449 31.1V31C9.25457 25.8667 14.2814 20.7333 19.2748 15.6C19.3414 15.5333 19.408 15.4667 19.4746 15.4C19.5412 15.3333 19.6078 15.2667 19.6743 15.2C24.5347 10.2 29.395 5.23334 34.2553 0.300003C34.4551 0.100003 34.6548 0 34.8546 0C80.1955 0 333.299 0 378.707 0C379.106 0 379.506 0.400003 379.506 0.800003C379.506 56.2667 379.506 171.767 379.506 227.3C379.506 227.5 379.439 227.667 379.306 227.8C379.173 227.933 378.973 228 378.707 228ZM35.1542 1.5C30.3604 6.43333 25.5667 11.3333 20.7729 16.2C20.7063 16.3333 20.6397 16.4333 20.5732 16.5C20.5066 16.5667 20.44 16.6333 20.3734 16.7C15.3799 21.7667 10.4197 26.8333 5.4928 31.9C5.4928 76.7667 5.4928 181.633 5.4928 226.5C60.4213 226.5 323.079 226.5 378.008 226.5C378.008 171.5 378.008 56.5 378.008 1.5C332.933 1.5 80.1622 1.5 35.1542 1.5Z" fill="url(#paint1_linear_698_3142)"/>
<path d="M383.501 93H373.514V45H383.501V93Z" fill="#3CB1A1"/>
<path d="M10 151.1H0V135.1H10V151.1Z" fill="url(#paint2_linear_698_3142)"/>
<path d="M10 112H0V96H10V112Z" fill="url(#paint3_linear_698_3142)"/>
<path d="M10 73H0V57H10V73Z" fill="url(#paint4_linear_698_3142)"/>
<defs>
<filter id="filter0_b_698_3142" x="-30" y="-33.8999" width="447" height="296.9" filterUnits="userSpaceOnUse" color-interpolation-filters="sRGB">
<feFlood flood-opacity="0" result="BackgroundImageFix"/>
<feGaussianBlur in="BackgroundImageFix" stdDeviation="22.5"/>
<feComposite in2="SourceAlpha" operator="in" result="effect1_backgroundBlur_698_3142"/>
<feBlend mode="normal" in="SourceGraphic" in2="effect1_backgroundBlur_698_3142" result="shape"/>
</filter>
<linearGradient id="paint0_linear_698_3142" x1="372" y1="77.5" x2="15" y2="91" gradientUnits="userSpaceOnUse">
<stop stop-color="white"/>
<stop offset="1" stop-color="white"/>
</linearGradient>
<linearGradient id="paint1_linear_698_3142" x1="542.709" y1="114" x2="3.99488" y2="114" gradientUnits="userSpaceOnUse">
<stop stop-color="#44CD77"/>
<stop offset="1" stop-color="#2871FF"/>
</linearGradient>
<linearGradient id="paint2_linear_698_3142" x1="14.3462" y1="143.1" x2="3.35523e-06" y2="143.1" gradientUnits="userSpaceOnUse">
<stop offset="1" stop-color="#2871FF"/>
</linearGradient>
<linearGradient id="paint3_linear_698_3142" x1="14.3462" y1="104" x2="3.35523e-06" y2="104" gradientUnits="userSpaceOnUse">
<stop offset="1" stop-color="#2871FF"/>
</linearGradient>
<linearGradient id="paint4_linear_698_3142" x1="14.3462" y1="65" x2="3.35523e-06" y2="65" gradientUnits="userSpaceOnUse">
<stop offset="1" stop-color="#2871FF"/>
</linearGradient>
</defs>
</svg>
