<svg width="384" height="208" viewBox="0 0 384 208" fill="none" xmlns="http://www.w3.org/2000/svg">
<g filter="url(#filter0_b_587_8633)">
<path d="M367.6 108.7V97.4001H372V89.7001H367.6V78.4001H372V70.1001H363.2V39.9001H372V11.1001H98.5V18.3001H79.3V11.1001H41.7L15 37.7001V177H18.8V188.4H15V198H352.1L372 178.2V108.7H367.6Z" fill="white" fill-opacity="0.05"/>
<path d="M367.1 108.7V109.2H367.6H371.5V177.992L351.894 197.5H15.5V188.9H18.8H19.3V188.4V177V176.5H18.8H15.5V37.9078L41.9066 11.6001H78.8V18.3001V18.8001H79.3H98.5H99V18.3001V11.6001H371.5V39.4001H363.2H362.7V39.9001V70.1001V70.6001H363.2H371.5V77.9001H367.6H367.1V78.4001V89.7001V90.2001H367.6H371.5V96.9001H367.6H367.1V97.4001V108.7Z" stroke="url(#paint0_linear_587_8633)" stroke-opacity="0.05"/>
</g>
<g clip-path="url(#clip0_587_8633)">
<path d="M36.25 56.4258C36.0942 56.4258 35.9383 56.3975 35.7825 56.3408C34.1533 55.7742 32.8925 54.5133 32.3258 52.8842C32.0708 52.1475 32.4533 51.34 33.19 51.0708C33.9267 50.8158 34.7342 51.1983 35.0033 51.935C35.2867 52.7283 35.9242 53.38 36.7317 53.6633C37.4683 53.9183 37.8508 54.7258 37.5958 55.4767C37.3833 56.0575 36.845 56.4258 36.2642 56.4258H36.25ZM46.1667 55.25C46.1667 54.4708 45.5292 53.8333 44.75 53.8333H41.9167C41.1375 53.8333 40.5 54.4708 40.5 55.25C40.5 56.0292 41.1375 56.6667 41.9167 56.6667H44.75C45.5292 56.6667 46.1667 56.0292 46.1667 55.25ZM50.8842 56.3408C52.5133 55.7742 53.7742 54.5133 54.3408 52.8842C54.5958 52.1475 54.2133 51.34 53.4767 51.0708C52.74 50.8158 51.9325 51.1983 51.6633 51.935C51.38 52.7283 50.7425 53.38 49.935 53.6633C49.1983 53.9183 48.8158 54.7258 49.0708 55.4767C49.2833 56.0575 49.8217 56.4258 50.4025 56.4258C50.5583 56.4258 50.7142 56.3975 50.87 56.3408H50.8842ZM54.6667 46.75V43.9167C54.6667 43.1375 54.0292 42.5 53.25 42.5C52.4708 42.5 51.8333 43.1375 51.8333 43.9167V46.75C51.8333 47.5292 52.4708 48.1667 53.25 48.1667C54.0292 48.1667 54.6667 47.5292 54.6667 46.75ZM46.1667 35.4167C46.1667 34.6375 45.5292 34 44.75 34H41.9167C41.1375 34 40.5 34.6375 40.5 35.4167C40.5 36.1958 41.1375 36.8333 41.9167 36.8333H44.75C45.5292 36.8333 46.1667 36.1958 46.1667 35.4167ZM34.8333 46.75V43.9167C34.8333 43.1375 34.1958 42.5 33.4167 42.5C32.6375 42.5 32 43.1375 32 43.9167V46.75C32 47.5292 32.6375 48.1667 33.4167 48.1667C34.1958 48.1667 34.8333 47.5292 34.8333 46.75ZM66 60.9167V52.4167C66 48.5067 62.8267 45.3333 58.9167 45.3333C58.1375 45.3333 57.5 45.9708 57.5 46.75V51C57.5 55.6892 53.6892 59.5 49 59.5H44.75C43.9708 59.5 43.3333 60.1375 43.3333 60.9167C43.3333 64.8267 46.5067 68 50.4167 68H58.9167C62.8267 68 66 64.8267 66 60.9167ZM34.9892 38.7175C35.2725 37.9242 35.91 37.2725 36.7175 36.9892C37.4542 36.7342 37.8367 35.9267 37.5817 35.1758C37.3267 34.4533 36.5192 34.0708 35.7825 34.3258C34.1533 34.8925 32.8925 36.1533 32.3258 37.7825C32.0708 38.5192 32.4533 39.3267 33.19 39.5958C33.3458 39.6525 33.5017 39.6808 33.6575 39.6808C34.2383 39.6808 34.7908 39.3125 34.9892 38.7317V38.7175ZM53.4767 39.5817C54.2133 39.3267 54.5958 38.5192 54.3408 37.7683C53.7742 36.1392 52.5133 34.8783 50.8842 34.3117C50.1475 34.0567 49.34 34.4392 49.0708 35.1758C48.8158 35.9125 49.1983 36.72 49.935 36.9892C50.7283 37.2725 51.38 37.91 51.6633 38.7175C51.8758 39.2983 52.4142 39.6667 52.995 39.6667C53.1508 39.6667 53.3067 39.6383 53.4625 39.5817H53.4767Z" fill="url(#paint1_linear_587_8633)"/>
</g>
<path d="M41.816 87.568H43.328C43.616 87.568 43.76 87.696 43.76 87.952V99.28C43.76 100.448 43.424 101.36 42.752 102.016C42.096 102.672 41.184 103 40.016 103H37.352C36.184 103 35.272 102.672 34.616 102.016C33.96 101.36 33.632 100.448 33.632 99.28V87.976C33.632 87.704 33.768 87.568 34.04 87.568H35.552C35.824 87.568 35.96 87.704 35.96 87.976V99.184C35.96 100.368 36.536 100.96 37.688 100.96H39.656C40.824 100.96 41.408 100.368 41.408 99.184V87.976C41.408 87.704 41.544 87.568 41.816 87.568ZM51.2394 103H46.8234C46.5514 103 46.4154 102.864 46.4154 102.592V101.416C46.4154 101.16 46.5514 101.032 46.8234 101.032H50.8554C51.8954 101.032 52.4154 100.672 52.4154 99.952V99.664C52.4154 99.024 52.0394 98.536 51.2874 98.2L48.6714 96.952C47.8554 96.568 47.2634 96.144 46.8954 95.68C46.5274 95.216 46.3434 94.608 46.3434 93.856C46.3434 91.792 47.4874 90.76 49.7754 90.76H53.7594C54.0154 90.76 54.1434 90.896 54.1434 91.168V92.344C54.1434 92.616 54.0154 92.752 53.7594 92.752H50.2554C49.7754 92.752 49.4074 92.84 49.1514 93.016C48.8954 93.176 48.7674 93.392 48.7674 93.664V93.928C48.7674 94.44 49.1754 94.888 49.9914 95.272L52.6314 96.616C53.4634 96.984 54.0314 97.424 54.3354 97.936C54.6554 98.432 54.8154 99.08 54.8154 99.88C54.8154 101.96 53.6234 103 51.2394 103ZM65.9651 103H60.7811C59.5971 103 58.6771 102.672 58.0211 102.016C57.3811 101.36 57.0611 100.448 57.0611 99.28V94.48C57.0611 93.296 57.3811 92.384 58.0211 91.744C58.6771 91.088 59.5971 90.76 60.7811 90.76H62.7491C63.9331 90.76 64.8531 91.088 65.5091 91.744C66.1651 92.384 66.4931 93.296 66.4931 94.48V97.528C66.4931 97.816 66.3491 97.96 66.0611 97.96H59.6291C59.4531 97.96 59.3651 98.04 59.3651 98.2V99.232C59.3651 100.4 59.9491 100.984 61.1171 100.984H65.9651C66.2531 100.984 66.3971 101.128 66.3971 101.416V102.616C66.3971 102.872 66.2531 103 65.9651 103ZM59.6291 96.328H63.9251C64.0851 96.328 64.1651 96.248 64.1651 96.088V94.552C64.1651 93.944 64.0291 93.504 63.7571 93.232C63.4851 92.944 63.0451 92.8 62.4371 92.8H61.1171C60.5091 92.8 60.0691 92.944 59.7971 93.232C59.5251 93.504 59.3891 93.944 59.3891 94.552V96.088C59.3891 96.248 59.4691 96.328 59.6291 96.328ZM71.057 103H69.545C69.273 103 69.137 102.864 69.137 102.592V91.168C69.137 90.896 69.273 90.76 69.545 90.76H71.057C71.329 90.76 71.465 90.896 71.465 91.168V92.08H71.561C71.721 91.68 72.025 91.36 72.473 91.12C72.937 90.88 73.449 90.76 74.009 90.76H74.897C75.169 90.76 75.305 90.896 75.305 91.168V92.416C75.305 92.72 75.169 92.848 74.897 92.8H73.457C72.129 92.8 71.465 93.528 71.465 94.984V102.592C71.465 102.864 71.329 103 71.057 103ZM85.5828 87.976V102.592C85.5828 102.864 85.4468 103 85.1748 103H83.6628C83.3908 103 83.2548 102.864 83.2548 102.592V87.976C83.2548 87.704 83.3908 87.568 83.6628 87.568H85.1748C85.4468 87.568 85.5828 87.704 85.5828 87.976ZM90.8851 103H89.3731C89.1011 103 88.9651 102.864 88.9651 102.592V91.168C88.9651 90.896 89.1011 90.76 89.3731 90.76H90.8851C91.1571 90.76 91.2931 90.896 91.2931 91.168V92.032H91.3891C91.7731 91.184 92.5811 90.76 93.8131 90.76H94.8691C96.0371 90.76 96.9331 91.08 97.5571 91.72C98.1811 92.36 98.4931 93.28 98.4931 94.48V102.592C98.4931 102.864 98.3491 103 98.0611 103H96.5491C96.2771 103 96.1411 102.864 96.1411 102.592V94.576C96.1411 93.392 95.5571 92.8 94.3891 92.8H93.2611C91.9491 92.8 91.2931 93.48 91.2931 94.84V102.592C91.2931 102.864 91.1571 103 90.8851 103ZM101.724 92.8H100.572C100.412 92.8 100.3 92.776 100.236 92.728C100.188 92.664 100.164 92.56 100.164 92.416V91.168C100.164 90.896 100.3 90.76 100.572 90.76H101.724C101.884 90.76 101.964 90.68 101.964 90.52V88.36C101.964 88.088 102.108 87.952 102.396 87.952H103.908C104.18 87.952 104.316 88.088 104.316 88.36V90.52C104.316 90.68 104.404 90.76 104.58 90.76H106.812C107.1 90.76 107.244 90.896 107.244 91.168V92.416C107.244 92.672 107.1 92.8 106.812 92.8H104.58C104.404 92.8 104.316 92.88 104.316 93.04V99.208C104.316 100.376 104.916 100.96 106.116 100.96H107.052C107.34 100.96 107.484 101.096 107.484 101.368V102.616C107.484 102.872 107.34 103 107.052 103H105.756C104.572 103 103.644 102.68 102.972 102.04C102.3 101.4 101.964 100.496 101.964 99.328V93.04C101.964 92.88 101.884 92.8 101.724 92.8ZM118.442 103H113.258C112.074 103 111.154 102.672 110.498 102.016C109.858 101.36 109.538 100.448 109.538 99.28V94.48C109.538 93.296 109.858 92.384 110.498 91.744C111.154 91.088 112.074 90.76 113.258 90.76H115.226C116.41 90.76 117.33 91.088 117.986 91.744C118.642 92.384 118.97 93.296 118.97 94.48V97.528C118.97 97.816 118.826 97.96 118.538 97.96H112.106C111.93 97.96 111.842 98.04 111.842 98.2V99.232C111.842 100.4 112.426 100.984 113.594 100.984H118.442C118.73 100.984 118.874 101.128 118.874 101.416V102.616C118.874 102.872 118.73 103 118.442 103ZM112.106 96.328H116.402C116.562 96.328 116.642 96.248 116.642 96.088V94.552C116.642 93.944 116.506 93.504 116.234 93.232C115.962 92.944 115.522 92.8 114.914 92.8H113.594C112.986 92.8 112.546 92.944 112.274 93.232C112.002 93.504 111.866 93.944 111.866 94.552V96.088C111.866 96.248 111.946 96.328 112.106 96.328ZM123.534 103H122.022C121.75 103 121.614 102.864 121.614 102.592V91.168C121.614 90.896 121.75 90.76 122.022 90.76H123.534C123.806 90.76 123.942 90.896 123.942 91.168V92.08H124.038C124.198 91.68 124.502 91.36 124.95 91.12C125.414 90.88 125.926 90.76 126.486 90.76H127.374C127.646 90.76 127.782 90.896 127.782 91.168V92.416C127.782 92.72 127.646 92.848 127.374 92.8H125.934C124.606 92.8 123.942 93.528 123.942 94.984V102.592C123.942 102.864 123.806 103 123.534 103ZM133.349 90.76H135.365C135.653 90.76 135.797 90.888 135.797 91.144V92.392C135.797 92.664 135.653 92.8 135.365 92.8H133.349C133.189 92.8 133.109 92.88 133.109 93.04V102.592C133.109 102.864 132.965 103 132.677 103H131.165C130.893 103 130.757 102.864 130.757 102.592V93.04C130.757 92.88 130.669 92.8 130.493 92.8H129.221C128.949 92.8 128.813 92.664 128.813 92.392V91.144C128.813 91 128.837 90.904 128.885 90.856C128.949 90.792 129.061 90.76 129.221 90.76H130.493C130.669 90.76 130.757 90.68 130.757 90.52V89.824C130.757 88.64 131.061 87.728 131.669 87.088C132.277 86.448 133.165 86.128 134.333 86.128H135.389C135.661 86.128 135.797 86.256 135.797 86.512V87.76C135.797 88.032 135.661 88.168 135.389 88.168H134.669C134.093 88.168 133.685 88.312 133.445 88.6C133.221 88.872 133.109 89.32 133.109 89.944V90.52C133.109 90.68 133.189 90.76 133.349 90.76ZM142.108 103H141.172C139.988 103 139.068 102.672 138.412 102.016C137.772 101.36 137.452 100.448 137.452 99.28V94.48C137.452 93.296 137.772 92.384 138.412 91.744C139.068 91.088 139.988 90.76 141.172 90.76H146.548C146.836 90.76 146.98 90.896 146.98 91.168V102.592C146.98 102.864 146.836 103 146.548 103H145.036C144.764 103 144.628 102.864 144.628 102.592V101.728H144.532C144.148 102.576 143.34 103 142.108 103ZM144.628 98.92V93.04C144.628 92.88 144.54 92.8 144.364 92.8H141.508C140.356 92.8 139.78 93.392 139.78 94.576V99.184C139.78 100.368 140.356 100.96 141.508 100.96H142.66C143.972 100.96 144.628 100.28 144.628 98.92ZM157.413 101.368V102.616C157.413 102.872 157.269 103 156.981 103H153.453C152.269 103 151.349 102.672 150.693 102.016C150.053 101.36 149.733 100.448 149.733 99.28V94.48C149.733 93.296 150.053 92.384 150.693 91.744C151.349 91.088 152.269 90.76 153.453 90.76H156.981C157.269 90.76 157.413 90.896 157.413 91.168V92.416C157.413 92.672 157.269 92.8 156.981 92.8H153.789C152.637 92.8 152.061 93.392 152.061 94.576V99.184C152.061 100.368 152.637 100.96 153.789 100.96H156.981C157.269 100.96 157.413 101.096 157.413 101.368ZM168.364 103H163.18C161.996 103 161.076 102.672 160.42 102.016C159.78 101.36 159.46 100.448 159.46 99.28V94.48C159.46 93.296 159.78 92.384 160.42 91.744C161.076 91.088 161.996 90.76 163.18 90.76H165.148C166.332 90.76 167.252 91.088 167.908 91.744C168.564 92.384 168.892 93.296 168.892 94.48V97.528C168.892 97.816 168.748 97.96 168.46 97.96H162.028C161.852 97.96 161.764 98.04 161.764 98.2V99.232C161.764 100.4 162.348 100.984 163.516 100.984H168.364C168.652 100.984 168.796 101.128 168.796 101.416V102.616C168.796 102.872 168.652 103 168.364 103ZM162.028 96.328H166.324C166.484 96.328 166.564 96.248 166.564 96.088V94.552C166.564 93.944 166.428 93.504 166.156 93.232C165.884 92.944 165.444 92.8 164.836 92.8H163.516C162.908 92.8 162.468 92.944 162.196 93.232C161.924 93.504 161.788 93.944 161.788 94.552V96.088C161.788 96.248 161.868 96.328 162.028 96.328Z" fill="url(#paint2_linear_587_8633)"/>
<path d="M36.194 131H35.294C35.162 131 35.078 130.928 35.042 130.784L32.576 119.642C32.54 119.498 32.6 119.426 32.756 119.426H33.35C33.482 119.426 33.56 119.498 33.584 119.642L35.726 129.974H35.816L38.552 119.624C38.576 119.492 38.654 119.426 38.786 119.426H39.47C39.614 119.426 39.698 119.492 39.722 119.624L42.476 129.974H42.566L44.69 119.642C44.714 119.498 44.798 119.426 44.942 119.426H45.554C45.698 119.426 45.752 119.498 45.716 119.642L43.25 130.784C43.226 130.928 43.148 131 43.016 131H42.098C41.966 131 41.882 130.928 41.846 130.784L39.182 120.632H39.11L36.428 130.784C36.392 130.928 36.314 131 36.194 131ZM53.743 131H49.981C49.201 131 48.583 130.772 48.127 130.316C47.683 129.86 47.461 129.236 47.461 128.444V124.376C47.461 123.584 47.683 122.96 48.127 122.504C48.583 122.048 49.201 121.82 49.981 121.82H51.529C52.309 121.82 52.927 122.048 53.383 122.504C53.839 122.96 54.067 123.584 54.067 124.376V126.662C54.067 126.806 53.995 126.878 53.851 126.878H48.523C48.415 126.878 48.361 126.932 48.361 127.04V128.426C48.361 128.99 48.505 129.428 48.793 129.74C49.081 130.04 49.501 130.19 50.053 130.19H53.743C53.875 130.19 53.941 130.256 53.941 130.388V130.802C53.941 130.934 53.875 131 53.743 131ZM48.523 126.158H53.005C53.113 126.158 53.167 126.104 53.167 125.996V124.394C53.167 123.83 53.023 123.398 52.735 123.098C52.447 122.786 52.027 122.63 51.475 122.63H50.053C49.501 122.63 49.081 122.786 48.793 123.098C48.505 123.398 48.361 123.83 48.361 124.394V125.996C48.361 126.104 48.415 126.158 48.523 126.158ZM61.6952 122.63H60.5972C60.4652 122.63 60.3992 122.57 60.3992 122.45V122.018C60.3992 121.886 60.4652 121.82 60.5972 121.82H61.6952C61.8032 121.82 61.8572 121.766 61.8572 121.658V120.2C61.8572 120.056 61.9232 119.984 62.0552 119.984H62.5772C62.7092 119.984 62.7752 120.056 62.7752 120.2V121.658C62.7752 121.766 62.8292 121.82 62.9372 121.82H65.0792C65.2112 121.82 65.2772 121.886 65.2772 122.018V122.45C65.2772 122.57 65.2112 122.63 65.0792 122.63H62.9372C62.8292 122.63 62.7752 122.684 62.7752 122.792V128.462C62.7752 129.014 62.9312 129.44 63.2432 129.74C63.5552 130.04 63.9932 130.19 64.5572 130.19H65.2592C65.3912 130.19 65.4572 130.256 65.4572 130.388V130.802C65.4572 130.934 65.3912 131 65.2592 131H64.4852C63.6932 131 63.0572 130.778 62.5772 130.334C62.0972 129.89 61.8572 129.278 61.8572 128.498V122.792C61.8572 122.684 61.8032 122.63 61.6952 122.63ZM68.2415 131H67.7195C67.5995 131 67.5395 130.928 67.5395 130.784V122.036C67.5395 121.892 67.5995 121.82 67.7195 121.82H68.2415C68.3735 121.82 68.4395 121.892 68.4395 122.036V122.792H68.5115C68.6435 122.54 68.8775 122.318 69.2135 122.126C69.5495 121.922 69.9635 121.82 70.4555 121.82H71.1575C71.2895 121.82 71.3555 121.886 71.3555 122.018V122.45C71.3555 122.582 71.2895 122.642 71.1575 122.63H70.3115C69.7235 122.63 69.2615 122.81 68.9255 123.17C68.6015 123.53 68.4395 124.016 68.4395 124.628V130.784C68.4395 130.928 68.3735 131 68.2415 131ZM76.674 131H75.522C74.742 131 74.124 130.772 73.668 130.316C73.224 129.86 73.002 129.236 73.002 128.444V124.376C73.002 123.584 73.224 122.96 73.668 122.504C74.124 122.048 74.742 121.82 75.522 121.82H79.338C79.458 121.82 79.518 121.892 79.518 122.036V130.784C79.518 130.928 79.458 131 79.338 131H78.816C78.684 131 78.618 130.928 78.618 130.784V130.064H78.546C78.234 130.688 77.61 131 76.674 131ZM78.618 128.426V122.792C78.618 122.684 78.558 122.63 78.438 122.63H75.594C75.042 122.63 74.622 122.786 74.334 123.098C74.046 123.41 73.902 123.848 73.902 124.412V128.408C73.902 128.972 74.046 129.41 74.334 129.722C74.622 130.034 75.042 130.19 75.594 130.19H76.764C77.34 130.19 77.79 130.04 78.114 129.74C78.45 129.428 78.618 128.99 78.618 128.426ZM82.9192 131H82.3972C82.2772 131 82.2172 130.928 82.2172 130.784V122.036C82.2172 121.892 82.2772 121.82 82.3972 121.82H82.9192C83.0512 121.82 83.1172 121.892 83.1172 122.036V122.756H83.1892C83.5252 122.132 84.1492 121.82 85.0612 121.82H86.2492C87.0172 121.82 87.6232 122.048 88.0672 122.504C88.5112 122.96 88.7332 123.584 88.7332 124.376V130.784C88.7332 130.928 88.6732 131 88.5532 131H88.0312C87.8992 131 87.8332 130.928 87.8332 130.784V124.412C87.8332 123.848 87.6892 123.41 87.4012 123.098C87.1132 122.786 86.6932 122.63 86.1412 122.63H84.9712C84.3952 122.63 83.9392 122.786 83.6032 123.098C83.2792 123.398 83.1172 123.83 83.1172 124.394V130.784C83.1172 130.928 83.0512 131 82.9192 131ZM94.3102 131H91.1782C91.0462 131 90.9802 130.934 90.9802 130.802V130.388C90.9802 130.268 91.0462 130.208 91.1782 130.208H94.2202C95.3002 130.208 95.8402 129.788 95.8402 128.948V128.516C95.8402 127.736 95.5042 127.226 94.8322 126.986L92.5822 126.122C91.9702 125.882 91.5322 125.6 91.2682 125.276C91.0162 124.952 90.8902 124.502 90.8902 123.926C90.8902 122.522 91.6642 121.82 93.2122 121.82H96.1282C96.2602 121.82 96.3262 121.886 96.3262 122.018V122.432C96.3262 122.552 96.2602 122.612 96.1282 122.612H93.3022C92.8102 122.612 92.4382 122.72 92.1862 122.936C91.9462 123.152 91.8262 123.404 91.8262 123.692V124.106C91.8262 124.442 91.9162 124.706 92.0962 124.898C92.2882 125.09 92.5762 125.252 92.9602 125.384L95.2102 126.284C95.8342 126.488 96.2482 126.794 96.4522 127.202C96.6682 127.598 96.7762 128.156 96.7762 128.876C96.7762 129.596 96.5722 130.13 96.1642 130.478C95.7682 130.826 95.1502 131 94.3102 131ZM99.8842 131H99.3622C99.2422 131 99.1822 130.928 99.1822 130.784V118.562C99.1822 118.418 99.2422 118.346 99.3622 118.346H99.8842C100.016 118.346 100.082 118.418 100.082 118.562V130.784C100.082 130.928 100.016 131 99.8842 131ZM106.363 131H105.211C104.431 131 103.813 130.772 103.357 130.316C102.913 129.86 102.691 129.236 102.691 128.444V124.376C102.691 123.584 102.913 122.96 103.357 122.504C103.813 122.048 104.431 121.82 105.211 121.82H109.027C109.147 121.82 109.207 121.892 109.207 122.036V130.784C109.207 130.928 109.147 131 109.027 131H108.505C108.373 131 108.307 130.928 108.307 130.784V130.064H108.235C107.923 130.688 107.299 131 106.363 131ZM108.307 128.426V122.792C108.307 122.684 108.247 122.63 108.127 122.63H105.283C104.731 122.63 104.311 122.786 104.023 123.098C103.735 123.41 103.591 123.848 103.591 124.412V128.408C103.591 128.972 103.735 129.41 104.023 129.722C104.311 130.034 104.731 130.19 105.283 130.19H106.453C107.029 130.19 107.479 130.04 107.803 129.74C108.139 129.428 108.307 128.99 108.307 128.426ZM112.303 122.63H111.205C111.073 122.63 111.007 122.57 111.007 122.45V122.018C111.007 121.886 111.073 121.82 111.205 121.82H112.303C112.411 121.82 112.465 121.766 112.465 121.658V120.2C112.465 120.056 112.531 119.984 112.663 119.984H113.185C113.317 119.984 113.383 120.056 113.383 120.2V121.658C113.383 121.766 113.437 121.82 113.545 121.82H115.687C115.819 121.82 115.885 121.886 115.885 122.018V122.45C115.885 122.57 115.819 122.63 115.687 122.63H113.545C113.437 122.63 113.383 122.684 113.383 122.792V128.462C113.383 129.014 113.539 129.44 113.851 129.74C114.163 130.04 114.601 130.19 115.165 130.19H115.867C115.999 130.19 116.065 130.256 116.065 130.388V130.802C116.065 130.934 115.999 131 115.867 131H115.093C114.301 131 113.665 130.778 113.185 130.334C112.705 129.89 112.465 129.278 112.465 128.498V122.792C112.465 122.684 112.411 122.63 112.303 122.63ZM124.249 131H120.487C119.707 131 119.089 130.772 118.633 130.316C118.189 129.86 117.967 129.236 117.967 128.444V124.376C117.967 123.584 118.189 122.96 118.633 122.504C119.089 122.048 119.707 121.82 120.487 121.82H122.035C122.815 121.82 123.433 122.048 123.889 122.504C124.345 122.96 124.573 123.584 124.573 124.376V126.662C124.573 126.806 124.501 126.878 124.357 126.878H119.029C118.921 126.878 118.867 126.932 118.867 127.04V128.426C118.867 128.99 119.011 129.428 119.299 129.74C119.587 130.04 120.007 130.19 120.559 130.19H124.249C124.381 130.19 124.447 130.256 124.447 130.388V130.802C124.447 130.934 124.381 131 124.249 131ZM119.029 126.158H123.511C123.619 126.158 123.673 126.104 123.673 125.996V124.394C123.673 123.83 123.529 123.398 123.241 123.098C122.953 122.786 122.533 122.63 121.981 122.63H120.559C120.007 122.63 119.587 122.786 119.299 123.098C119.011 123.398 118.867 123.83 118.867 124.394V125.996C118.867 126.104 118.921 126.158 119.029 126.158ZM135.297 131H134.145C133.365 131 132.747 130.772 132.291 130.316C131.847 129.86 131.625 129.236 131.625 128.444V124.376C131.625 123.584 131.847 122.96 132.291 122.504C132.747 122.048 133.365 121.82 134.145 121.82H137.961C138.081 121.82 138.141 121.892 138.141 122.036V130.784C138.141 130.928 138.081 131 137.961 131H137.439C137.307 131 137.241 130.928 137.241 130.784V130.064H137.169C136.857 130.688 136.233 131 135.297 131ZM137.241 128.426V122.792C137.241 122.684 137.181 122.63 137.061 122.63H134.217C133.665 122.63 133.245 122.786 132.957 123.098C132.669 123.41 132.525 123.848 132.525 124.412V128.408C132.525 128.972 132.669 129.41 132.957 129.722C133.245 130.034 133.665 130.19 134.217 130.19H135.387C135.963 130.19 136.413 130.04 136.737 129.74C137.073 129.428 137.241 128.99 137.241 128.426ZM141.542 131H141.02C140.9 131 140.84 130.928 140.84 130.784V122.036C140.84 121.892 140.9 121.82 141.02 121.82H141.542C141.674 121.82 141.74 121.892 141.74 122.036V122.756H141.812C142.148 122.132 142.772 121.82 143.684 121.82H144.872C145.64 121.82 146.246 122.048 146.69 122.504C147.134 122.96 147.356 123.584 147.356 124.376V130.784C147.356 130.928 147.296 131 147.176 131H146.654C146.522 131 146.456 130.928 146.456 130.784V124.412C146.456 123.848 146.312 123.41 146.024 123.098C145.736 122.786 145.316 122.63 144.764 122.63H143.594C143.018 122.63 142.562 122.786 142.226 123.098C141.902 123.398 141.74 123.83 141.74 124.394V130.784C141.74 130.928 141.674 131 141.542 131ZM153.473 131H152.267C151.499 131 150.893 130.772 150.449 130.316C150.005 129.86 149.783 129.236 149.783 128.444V124.376C149.783 123.584 150.005 122.96 150.449 122.504C150.893 122.048 151.499 121.82 152.267 121.82H153.473C154.397 121.82 155.027 122.132 155.363 122.756H155.435V118.562C155.435 118.418 155.495 118.346 155.615 118.346H156.137C156.269 118.346 156.335 118.418 156.335 118.562V130.784C156.335 130.928 156.269 131 156.137 131H155.615C155.495 131 155.435 130.928 155.435 130.784V130.064H155.363C155.027 130.688 154.397 131 153.473 131ZM155.435 128.426V124.394C155.435 123.83 155.267 123.398 154.931 123.098C154.607 122.786 154.157 122.63 153.581 122.63H152.375C151.823 122.63 151.403 122.786 151.115 123.098C150.827 123.41 150.683 123.848 150.683 124.412V128.408C150.683 128.972 150.827 129.41 151.115 129.722C151.403 130.034 151.823 130.19 152.375 130.19H153.581C154.157 130.19 154.607 130.04 154.931 129.74C155.267 129.428 155.435 128.99 155.435 128.426ZM167.324 131H166.172C165.392 131 164.774 130.772 164.318 130.316C163.874 129.86 163.652 129.236 163.652 128.444V124.376C163.652 123.584 163.874 122.96 164.318 122.504C164.774 122.048 165.392 121.82 166.172 121.82H169.988C170.108 121.82 170.168 121.892 170.168 122.036V130.784C170.168 130.928 170.108 131 169.988 131H169.466C169.334 131 169.268 130.928 169.268 130.784V130.064H169.196C168.884 130.688 168.26 131 167.324 131ZM169.268 128.426V122.792C169.268 122.684 169.208 122.63 169.088 122.63H166.244C165.692 122.63 165.272 122.786 164.984 123.098C164.696 123.41 164.552 123.848 164.552 124.412V128.408C164.552 128.972 164.696 129.41 164.984 129.722C165.272 130.034 165.692 130.19 166.244 130.19H167.414C167.99 130.19 168.44 130.04 168.764 129.74C169.1 129.428 169.268 128.99 169.268 128.426ZM176.378 131H175.172C174.404 131 173.798 130.772 173.354 130.316C172.91 129.86 172.688 129.236 172.688 128.444V124.376C172.688 123.584 172.91 122.96 173.354 122.504C173.798 122.048 174.404 121.82 175.172 121.82H176.378C177.302 121.82 177.932 122.132 178.268 122.756H178.34V118.562C178.34 118.418 178.4 118.346 178.52 118.346H179.042C179.174 118.346 179.24 118.418 179.24 118.562V130.784C179.24 130.928 179.174 131 179.042 131H178.52C178.4 131 178.34 130.928 178.34 130.784V130.064H178.268C177.932 130.688 177.302 131 176.378 131ZM178.34 128.426V124.394C178.34 123.83 178.172 123.398 177.836 123.098C177.512 122.786 177.062 122.63 176.486 122.63H175.28C174.728 122.63 174.308 122.786 174.02 123.098C173.732 123.41 173.588 123.848 173.588 124.412V128.408C173.588 128.972 173.732 129.41 174.02 129.722C174.308 130.034 174.728 130.19 175.28 130.19H176.486C177.062 130.19 177.512 130.04 177.836 129.74C178.172 129.428 178.34 128.99 178.34 128.426ZM185.43 131H184.278C183.498 131 182.88 130.772 182.424 130.316C181.98 129.86 181.758 129.236 181.758 128.444V124.376C181.758 123.584 181.98 122.96 182.424 122.504C182.88 122.048 183.498 121.82 184.278 121.82H188.094C188.214 121.82 188.274 121.892 188.274 122.036V130.784C188.274 130.928 188.214 131 188.094 131H187.572C187.44 131 187.374 130.928 187.374 130.784V130.064H187.302C186.99 130.688 186.366 131 185.43 131ZM187.374 128.426V122.792C187.374 122.684 187.314 122.63 187.194 122.63H184.35C183.798 122.63 183.378 122.786 183.09 123.098C182.802 123.41 182.658 123.848 182.658 124.412V128.408C182.658 128.972 182.802 129.41 183.09 129.722C183.378 130.034 183.798 130.19 184.35 130.19H185.52C186.096 130.19 186.546 130.04 186.87 129.74C187.206 129.428 187.374 128.99 187.374 128.426ZM191.675 133.682H191.153C191.033 133.682 190.973 133.616 190.973 133.484V122.036C190.973 121.892 191.033 121.82 191.153 121.82H191.675C191.807 121.82 191.873 121.892 191.873 122.036V122.756H191.945C192.281 122.132 192.905 121.82 193.817 121.82H195.041C195.809 121.82 196.415 122.048 196.859 122.504C197.303 122.96 197.525 123.584 197.525 124.376V128.444C197.525 129.236 197.303 129.86 196.859 130.316C196.415 130.772 195.809 131 195.041 131H193.817C192.905 131 192.281 130.688 191.945 130.064H191.873V133.484C191.873 133.616 191.807 133.682 191.675 133.682ZM193.727 130.19H194.915C195.467 130.19 195.887 130.04 196.175 129.74C196.475 129.428 196.625 128.984 196.625 128.408V124.412C196.625 123.836 196.475 123.398 196.175 123.098C195.887 122.786 195.467 122.63 194.915 122.63H193.727C193.151 122.63 192.695 122.786 192.359 123.098C192.035 123.398 191.873 123.83 191.873 124.394V128.426C191.873 128.99 192.035 129.428 192.359 129.74C192.695 130.04 193.151 130.19 193.727 130.19ZM200.439 122.63H199.341C199.209 122.63 199.143 122.57 199.143 122.45V122.018C199.143 121.886 199.209 121.82 199.341 121.82H200.439C200.547 121.82 200.601 121.766 200.601 121.658V120.2C200.601 120.056 200.667 119.984 200.799 119.984H201.321C201.453 119.984 201.519 120.056 201.519 120.2V121.658C201.519 121.766 201.573 121.82 201.681 121.82H203.823C203.955 121.82 204.021 121.886 204.021 122.018V122.45C204.021 122.57 203.955 122.63 203.823 122.63H201.681C201.573 122.63 201.519 122.684 201.519 122.792V128.462C201.519 129.014 201.675 129.44 201.987 129.74C202.299 130.04 202.737 130.19 203.301 130.19H204.003C204.135 130.19 204.201 130.256 204.201 130.388V130.802C204.201 130.934 204.135 131 204.003 131H203.229C202.437 131 201.801 130.778 201.321 130.334C200.841 129.89 200.601 129.278 200.601 128.498V122.792C200.601 122.684 200.547 122.63 200.439 122.63ZM214.574 131H213.422C212.642 131 212.024 130.772 211.568 130.316C211.124 129.86 210.902 129.236 210.902 128.444V124.376C210.902 123.584 211.124 122.96 211.568 122.504C212.024 122.048 212.642 121.82 213.422 121.82H217.238C217.358 121.82 217.418 121.892 217.418 122.036V130.784C217.418 130.928 217.358 131 217.238 131H216.716C216.584 131 216.518 130.928 216.518 130.784V130.064H216.446C216.134 130.688 215.51 131 214.574 131ZM216.518 128.426V122.792C216.518 122.684 216.458 122.63 216.338 122.63H213.494C212.942 122.63 212.522 122.786 212.234 123.098C211.946 123.41 211.802 123.848 211.802 124.412V128.408C211.802 128.972 211.946 129.41 212.234 129.722C212.522 130.034 212.942 130.19 213.494 130.19H214.664C215.24 130.19 215.69 130.04 216.014 129.74C216.35 129.428 216.518 128.99 216.518 128.426ZM220.91 131H220.388C220.268 131 220.208 130.928 220.208 130.784V118.562C220.208 118.418 220.268 118.346 220.388 118.346H220.91C221.042 118.346 221.108 118.418 221.108 118.562V130.784C221.108 130.928 221.042 131 220.91 131ZM224.689 131H224.167C224.047 131 223.987 130.928 223.987 130.784V118.562C223.987 118.418 224.047 118.346 224.167 118.346H224.689C224.821 118.346 224.887 118.418 224.887 118.562V130.784C224.887 130.928 224.821 131 224.689 131ZM232.565 120.308V118.58C232.565 118.448 232.625 118.382 232.745 118.382H233.285C233.405 118.382 233.465 118.448 233.465 118.58V120.308C233.465 120.452 233.405 120.524 233.285 120.524H232.745C232.625 120.524 232.565 120.452 232.565 120.308ZM232.565 130.784V122.036C232.565 121.892 232.625 121.82 232.745 121.82H233.267C233.399 121.82 233.465 121.892 233.465 122.036V130.784C233.465 130.928 233.405 131 233.285 131H232.745C232.625 131 232.565 130.928 232.565 130.784ZM236.956 131H236.434C236.314 131 236.254 130.928 236.254 130.784V122.036C236.254 121.892 236.314 121.82 236.434 121.82H236.956C237.088 121.82 237.154 121.892 237.154 122.036V122.756H237.226C237.562 122.132 238.186 121.82 239.098 121.82H240.286C241.054 121.82 241.66 122.048 242.104 122.504C242.548 122.96 242.77 123.584 242.77 124.376V130.784C242.77 130.928 242.71 131 242.59 131H242.068C241.936 131 241.87 130.928 241.87 130.784V124.412C241.87 123.848 241.726 123.41 241.438 123.098C241.15 122.786 240.73 122.63 240.178 122.63H239.008C238.432 122.63 237.976 122.786 237.64 123.098C237.316 123.398 237.154 123.83 237.154 124.394V130.784C237.154 130.928 237.088 131 236.956 131ZM248.707 125.636H244.963C244.819 125.636 244.747 125.57 244.747 125.438V125.042C244.747 124.91 244.819 124.844 244.963 124.844H248.707C248.851 124.844 248.923 124.91 248.923 125.042V125.438C248.923 125.57 248.851 125.636 248.707 125.636ZM254.549 130.478H253.379C252.611 130.478 251.999 130.25 251.543 129.794C251.099 129.338 250.877 128.72 250.877 127.94V124.376C250.877 123.584 251.099 122.96 251.543 122.504C251.999 122.048 252.617 121.82 253.397 121.82H257.213C257.345 121.82 257.411 121.892 257.411 122.036V130.964C257.411 131.756 257.183 132.38 256.727 132.836C256.271 133.292 255.653 133.52 254.873 133.52H251.597C251.465 133.52 251.399 133.454 251.399 133.322V132.89C251.399 132.77 251.465 132.71 251.597 132.71H254.801C255.353 132.71 255.773 132.554 256.061 132.242C256.349 131.942 256.493 131.504 256.493 130.928V129.542H256.421C256.121 130.166 255.497 130.478 254.549 130.478ZM256.493 127.904V122.792C256.493 122.684 256.439 122.63 256.331 122.63H253.487C252.935 122.63 252.509 122.786 252.209 123.098C251.921 123.398 251.777 123.836 251.777 124.412V127.904C251.777 128.468 251.921 128.906 252.209 129.218C252.509 129.518 252.935 129.668 253.487 129.668H254.639C255.215 129.668 255.665 129.518 255.989 129.218C256.325 128.906 256.493 128.468 256.493 127.904ZM263.582 131H262.43C261.65 131 261.032 130.772 260.576 130.316C260.132 129.86 259.91 129.236 259.91 128.444V124.376C259.91 123.584 260.132 122.96 260.576 122.504C261.032 122.048 261.65 121.82 262.43 121.82H266.246C266.366 121.82 266.426 121.892 266.426 122.036V130.784C266.426 130.928 266.366 131 266.246 131H265.724C265.592 131 265.526 130.928 265.526 130.784V130.064H265.454C265.142 130.688 264.518 131 263.582 131ZM265.526 128.426V122.792C265.526 122.684 265.466 122.63 265.346 122.63H262.502C261.95 122.63 261.53 122.786 261.242 123.098C260.954 123.41 260.81 123.848 260.81 124.412V128.408C260.81 128.972 260.954 129.41 261.242 129.722C261.53 130.034 261.95 130.19 262.502 130.19H263.672C264.248 130.19 264.698 130.04 265.022 129.74C265.358 129.428 265.526 128.99 265.526 128.426ZM269.827 131H269.305C269.185 131 269.125 130.928 269.125 130.784V122.036C269.125 121.892 269.185 121.82 269.305 121.82H269.827C269.959 121.82 270.025 121.892 270.025 122.036V122.756H270.097C270.445 122.132 271.081 121.82 272.005 121.82H272.743C273.799 121.82 274.531 122.24 274.939 123.08C275.119 122.66 275.425 122.348 275.857 122.144C276.289 121.928 276.733 121.82 277.189 121.82H277.855C278.635 121.82 279.247 122.048 279.691 122.504C280.135 122.96 280.357 123.584 280.357 124.376V130.784C280.357 130.928 280.291 131 280.159 131H279.637C279.505 131 279.439 130.928 279.439 130.784V124.412C279.439 123.836 279.295 123.398 279.007 123.098C278.719 122.786 278.299 122.63 277.747 122.63H277.081C276.505 122.63 276.049 122.798 275.713 123.134C275.377 123.458 275.209 123.902 275.209 124.466V130.784C275.209 130.928 275.143 131 275.011 131H274.489C274.357 131 274.291 130.928 274.291 130.784V124.412C274.291 123.836 274.147 123.398 273.859 123.098C273.571 122.786 273.151 122.63 272.599 122.63H271.879C271.303 122.63 270.847 122.786 270.511 123.098C270.187 123.398 270.025 123.83 270.025 124.394V130.784C270.025 130.928 269.959 131 269.827 131ZM289.061 131H285.299C284.519 131 283.901 130.772 283.445 130.316C283.001 129.86 282.779 129.236 282.779 128.444V124.376C282.779 123.584 283.001 122.96 283.445 122.504C283.901 122.048 284.519 121.82 285.299 121.82H286.847C287.627 121.82 288.245 122.048 288.701 122.504C289.157 122.96 289.385 123.584 289.385 124.376V126.662C289.385 126.806 289.313 126.878 289.169 126.878H283.841C283.733 126.878 283.679 126.932 283.679 127.04V128.426C283.679 128.99 283.823 129.428 284.111 129.74C284.399 130.04 284.819 130.19 285.371 130.19H289.061C289.193 130.19 289.259 130.256 289.259 130.388V130.802C289.259 130.934 289.193 131 289.061 131ZM283.841 126.158H288.323C288.431 126.158 288.485 126.104 288.485 125.996V124.394C288.485 123.83 288.341 123.398 288.053 123.098C287.765 122.786 287.345 122.63 286.793 122.63H285.371C284.819 122.63 284.399 122.786 284.111 123.098C283.823 123.398 283.679 123.83 283.679 124.394V125.996C283.679 126.104 283.733 126.158 283.841 126.158ZM297.014 122.63H295.916C295.784 122.63 295.718 122.57 295.718 122.45V122.018C295.718 121.886 295.784 121.82 295.916 121.82H297.014C297.122 121.82 297.176 121.766 297.176 121.658V120.2C297.176 120.056 297.242 119.984 297.374 119.984H297.896C298.028 119.984 298.094 120.056 298.094 120.2V121.658C298.094 121.766 298.148 121.82 298.256 121.82H300.398C300.53 121.82 300.596 121.886 300.596 122.018V122.45C300.596 122.57 300.53 122.63 300.398 122.63H298.256C298.148 122.63 298.094 122.684 298.094 122.792V128.462C298.094 129.014 298.25 129.44 298.562 129.74C298.874 130.04 299.312 130.19 299.876 130.19H300.578C300.71 130.19 300.776 130.256 300.776 130.388V130.802C300.776 130.934 300.71 131 300.578 131H299.804C299.012 131 298.376 130.778 297.896 130.334C297.416 129.89 297.176 129.278 297.176 128.498V122.792C297.176 122.684 297.122 122.63 297.014 122.63ZM308.96 131H305.198C304.418 131 303.8 130.772 303.344 130.316C302.9 129.86 302.678 129.236 302.678 128.444V124.376C302.678 123.584 302.9 122.96 303.344 122.504C303.8 122.048 304.418 121.82 305.198 121.82H306.746C307.526 121.82 308.144 122.048 308.6 122.504C309.056 122.96 309.284 123.584 309.284 124.376V126.662C309.284 126.806 309.212 126.878 309.068 126.878H303.74C303.632 126.878 303.578 126.932 303.578 127.04V128.426C303.578 128.99 303.722 129.428 304.01 129.74C304.298 130.04 304.718 130.19 305.27 130.19H308.96C309.092 130.19 309.158 130.256 309.158 130.388V130.802C309.158 130.934 309.092 131 308.96 131ZM303.74 126.158H308.222C308.33 126.158 308.384 126.104 308.384 125.996V124.394C308.384 123.83 308.24 123.398 307.952 123.098C307.664 122.786 307.244 122.63 306.692 122.63H305.27C304.718 122.63 304.298 122.786 304.01 123.098C303.722 123.398 303.578 123.83 303.578 124.394V125.996C303.578 126.104 303.632 126.158 303.74 126.158ZM311.609 131H310.943C310.787 131 310.757 130.928 310.853 130.784L313.463 126.32L310.979 122.036C310.883 121.892 310.913 121.82 311.069 121.82H311.717C311.849 121.82 311.951 121.892 312.023 122.036L314.057 125.708H314.129L316.073 122.036C316.157 121.892 316.259 121.82 316.379 121.82H317.027C317.183 121.82 317.213 121.892 317.117 122.036L314.687 126.284L317.333 130.784C317.417 130.928 317.387 131 317.243 131H316.523C316.427 131 316.343 130.928 316.271 130.784L314.129 126.932H314.057L311.915 130.784C311.831 130.928 311.729 131 311.609 131ZM319.549 122.63H318.451C318.319 122.63 318.253 122.57 318.253 122.45V122.018C318.253 121.886 318.319 121.82 318.451 121.82H319.549C319.657 121.82 319.711 121.766 319.711 121.658V120.2C319.711 120.056 319.777 119.984 319.909 119.984H320.431C320.563 119.984 320.629 120.056 320.629 120.2V121.658C320.629 121.766 320.683 121.82 320.791 121.82H322.933C323.065 121.82 323.131 121.886 323.131 122.018V122.45C323.131 122.57 323.065 122.63 322.933 122.63H320.791C320.683 122.63 320.629 122.684 320.629 122.792V128.462C320.629 129.014 320.785 129.44 321.097 129.74C321.409 130.04 321.847 130.19 322.411 130.19H323.113C323.245 130.19 323.311 130.256 323.311 130.388V130.802C323.311 130.934 323.245 131 323.113 131H322.339C321.547 131 320.911 130.778 320.431 130.334C319.951 129.89 319.711 129.278 319.711 128.498V122.792C319.711 122.684 319.657 122.63 319.549 122.63ZM328.363 131H325.231C325.099 131 325.033 130.934 325.033 130.802V130.388C325.033 130.268 325.099 130.208 325.231 130.208H328.273C329.353 130.208 329.893 129.788 329.893 128.948V128.516C329.893 127.736 329.557 127.226 328.885 126.986L326.635 126.122C326.023 125.882 325.585 125.6 325.321 125.276C325.069 124.952 324.943 124.502 324.943 123.926C324.943 122.522 325.717 121.82 327.265 121.82H330.181C330.313 121.82 330.379 121.886 330.379 122.018V122.432C330.379 122.552 330.313 122.612 330.181 122.612H327.355C326.863 122.612 326.491 122.72 326.239 122.936C325.999 123.152 325.879 123.404 325.879 123.692V124.106C325.879 124.442 325.969 124.706 326.149 124.898C326.341 125.09 326.629 125.252 327.013 125.384L329.263 126.284C329.887 126.488 330.301 126.794 330.505 127.202C330.721 127.598 330.829 128.156 330.829 128.876C330.829 129.596 330.625 130.13 330.217 130.478C329.821 130.826 329.203 131 328.363 131ZM334.009 128.642V130.046C334.009 130.274 333.943 130.616 333.811 131.072L333.289 132.71C333.277 132.794 333.223 132.836 333.127 132.836C333.043 132.836 333.001 132.782 333.001 132.674V128.642C333.001 128.51 333.067 128.444 333.199 128.444H333.829C333.949 128.444 334.009 128.51 334.009 128.642ZM33.44 145.308V143.58C33.44 143.448 33.5 143.382 33.62 143.382H34.16C34.28 143.382 34.34 143.448 34.34 143.58V145.308C34.34 145.452 34.28 145.524 34.16 145.524H33.62C33.5 145.524 33.44 145.452 33.44 145.308ZM33.44 155.784V147.036C33.44 146.892 33.5 146.82 33.62 146.82H34.142C34.274 146.82 34.34 146.892 34.34 147.036V155.784C34.34 155.928 34.28 156 34.16 156H33.62C33.5 156 33.44 155.928 33.44 155.784ZM37.8313 156H37.3093C37.1893 156 37.1293 155.928 37.1293 155.784V147.036C37.1293 146.892 37.1893 146.82 37.3093 146.82H37.8313C37.9633 146.82 38.0293 146.892 38.0293 147.036V147.756H38.1013C38.4373 147.132 39.0613 146.82 39.9733 146.82H41.1613C41.9293 146.82 42.5353 147.048 42.9793 147.504C43.4233 147.96 43.6453 148.584 43.6453 149.376V155.784C43.6453 155.928 43.5853 156 43.4653 156H42.9433C42.8113 156 42.7453 155.928 42.7453 155.784V149.412C42.7453 148.848 42.6013 148.41 42.3133 148.098C42.0253 147.786 41.6053 147.63 41.0533 147.63H39.8833C39.3073 147.63 38.8513 147.786 38.5153 148.098C38.1913 148.398 38.0293 148.83 38.0293 149.394V155.784C38.0293 155.928 37.9633 156 37.8313 156ZM51.3823 155.388V155.802C51.3823 155.934 51.3163 156 51.1843 156H48.5923C47.8123 156 47.1943 155.772 46.7383 155.316C46.2943 154.86 46.0723 154.236 46.0723 153.444V149.376C46.0723 148.584 46.2943 147.96 46.7383 147.504C47.1943 147.048 47.8123 146.82 48.5923 146.82H51.1843C51.3163 146.82 51.3823 146.886 51.3823 147.018V147.45C51.3823 147.57 51.3163 147.63 51.1843 147.63H48.6643C48.1123 147.63 47.6923 147.786 47.4043 148.098C47.1163 148.41 46.9723 148.848 46.9723 149.412V153.408C46.9723 153.972 47.1163 154.41 47.4043 154.722C47.6923 155.034 48.1123 155.19 48.6643 155.19H51.1843C51.3163 155.19 51.3823 155.256 51.3823 155.388ZM54.1283 156H53.6063C53.4863 156 53.4263 155.928 53.4263 155.784V143.562C53.4263 143.418 53.4863 143.346 53.6063 143.346H54.1283C54.2603 143.346 54.3263 143.418 54.3263 143.562V155.784C54.3263 155.928 54.2603 156 54.1283 156ZM60.6976 156H59.5096C58.7416 156 58.1356 155.772 57.6916 155.316C57.2476 154.86 57.0256 154.236 57.0256 153.444V147.036C57.0256 146.892 57.0856 146.82 57.2056 146.82H57.7276C57.8596 146.82 57.9256 146.892 57.9256 147.036V153.408C57.9256 153.972 58.0696 154.41 58.3576 154.722C58.6456 155.034 59.0656 155.19 59.6176 155.19H60.7876C61.3636 155.19 61.8136 155.04 62.1376 154.74C62.4736 154.428 62.6416 153.99 62.6416 153.426V147.036C62.6416 146.892 62.7076 146.82 62.8396 146.82H63.3616C63.4816 146.82 63.5416 146.892 63.5416 147.036V155.784C63.5416 155.928 63.4816 156 63.3616 156H62.8396C62.7076 156 62.6416 155.928 62.6416 155.784V155.064H62.5696C62.2576 155.688 61.6336 156 60.6976 156ZM69.7487 156H68.5427C67.7747 156 67.1687 155.772 66.7247 155.316C66.2807 154.86 66.0587 154.236 66.0587 153.444V149.376C66.0587 148.584 66.2807 147.96 66.7247 147.504C67.1687 147.048 67.7747 146.82 68.5427 146.82H69.7487C70.6727 146.82 71.3027 147.132 71.6387 147.756H71.7107V143.562C71.7107 143.418 71.7707 143.346 71.8907 143.346H72.4127C72.5447 143.346 72.6107 143.418 72.6107 143.562V155.784C72.6107 155.928 72.5447 156 72.4127 156H71.8907C71.7707 156 71.7107 155.928 71.7107 155.784V155.064H71.6387C71.3027 155.688 70.6727 156 69.7487 156ZM71.7107 153.426V149.394C71.7107 148.83 71.5427 148.398 71.2067 148.098C70.8827 147.786 70.4327 147.63 69.8567 147.63H68.6507C68.0987 147.63 67.6787 147.786 67.3907 148.098C67.1027 148.41 66.9587 148.848 66.9587 149.412V153.408C66.9587 153.972 67.1027 154.41 67.3907 154.722C67.6787 155.034 68.0987 155.19 68.6507 155.19H69.8567C70.4327 155.19 70.8827 155.04 71.2067 154.74C71.5427 154.428 71.7107 153.99 71.7107 153.426ZM75.399 145.308V143.58C75.399 143.448 75.459 143.382 75.579 143.382H76.119C76.239 143.382 76.299 143.448 76.299 143.58V145.308C76.299 145.452 76.239 145.524 76.119 145.524H75.579C75.459 145.524 75.399 145.452 75.399 145.308ZM75.399 155.784V147.036C75.399 146.892 75.459 146.82 75.579 146.82H76.101C76.233 146.82 76.299 146.892 76.299 147.036V155.784C76.299 155.928 76.239 156 76.119 156H75.579C75.459 156 75.399 155.928 75.399 155.784ZM79.7903 156H79.2683C79.1483 156 79.0883 155.928 79.0883 155.784V147.036C79.0883 146.892 79.1483 146.82 79.2683 146.82H79.7903C79.9223 146.82 79.9883 146.892 79.9883 147.036V147.756H80.0603C80.3963 147.132 81.0203 146.82 81.9323 146.82H83.1203C83.8883 146.82 84.4943 147.048 84.9383 147.504C85.3823 147.96 85.6043 148.584 85.6043 149.376V155.784C85.6043 155.928 85.5443 156 85.4243 156H84.9023C84.7703 156 84.7043 155.928 84.7043 155.784V149.412C84.7043 148.848 84.5603 148.41 84.2723 148.098C83.9843 147.786 83.5643 147.63 83.0123 147.63H81.8423C81.2663 147.63 80.8103 147.786 80.4743 148.098C80.1503 148.398 79.9883 148.83 79.9883 149.394V155.784C79.9883 155.928 79.9223 156 79.7903 156ZM91.7753 155.478H90.6053C89.8373 155.478 89.2253 155.25 88.7693 154.794C88.3253 154.338 88.1033 153.72 88.1033 152.94V149.376C88.1033 148.584 88.3253 147.96 88.7693 147.504C89.2253 147.048 89.8433 146.82 90.6233 146.82H94.4393C94.5713 146.82 94.6373 146.892 94.6373 147.036V155.964C94.6373 156.756 94.4093 157.38 93.9533 157.836C93.4973 158.292 92.8793 158.52 92.0993 158.52H88.8233C88.6913 158.52 88.6253 158.454 88.6253 158.322V157.89C88.6253 157.77 88.6913 157.71 88.8233 157.71H92.0273C92.5793 157.71 92.9993 157.554 93.2873 157.242C93.5753 156.942 93.7193 156.504 93.7193 155.928V154.542H93.6473C93.3473 155.166 92.7233 155.478 91.7753 155.478ZM93.7193 152.904V147.792C93.7193 147.684 93.6653 147.63 93.5573 147.63H90.7133C90.1613 147.63 89.7353 147.786 89.4353 148.098C89.1473 148.398 89.0033 148.836 89.0033 149.412V152.904C89.0033 153.468 89.1473 153.906 89.4353 154.218C89.7353 154.518 90.1613 154.668 90.7133 154.668H91.8653C92.4413 154.668 92.8913 154.518 93.2153 154.218C93.5513 153.906 93.7193 153.468 93.7193 152.904ZM105.626 156H104.42C103.652 156 103.046 155.772 102.602 155.316C102.158 154.86 101.936 154.236 101.936 153.444V149.376C101.936 148.584 102.158 147.96 102.602 147.504C103.046 147.048 103.652 146.82 104.42 146.82H105.626C106.55 146.82 107.18 147.132 107.516 147.756H107.588V143.562C107.588 143.418 107.648 143.346 107.768 143.346H108.29C108.422 143.346 108.488 143.418 108.488 143.562V155.784C108.488 155.928 108.422 156 108.29 156H107.768C107.648 156 107.588 155.928 107.588 155.784V155.064H107.516C107.18 155.688 106.55 156 105.626 156ZM107.588 153.426V149.394C107.588 148.83 107.42 148.398 107.084 148.098C106.76 147.786 106.31 147.63 105.734 147.63H104.528C103.976 147.63 103.556 147.786 103.268 148.098C102.98 148.41 102.836 148.848 102.836 149.412V153.408C102.836 153.972 102.98 154.41 103.268 154.722C103.556 155.034 103.976 155.19 104.528 155.19H105.734C106.31 155.19 106.76 155.04 107.084 154.74C107.42 154.428 107.588 153.99 107.588 153.426ZM111.276 145.308V143.58C111.276 143.448 111.336 143.382 111.456 143.382H111.996C112.116 143.382 112.176 143.448 112.176 143.58V145.308C112.176 145.452 112.116 145.524 111.996 145.524H111.456C111.336 145.524 111.276 145.452 111.276 145.308ZM111.276 155.784V147.036C111.276 146.892 111.336 146.82 111.456 146.82H111.978C112.11 146.82 112.176 146.892 112.176 147.036V155.784C112.176 155.928 112.116 156 111.996 156H111.456C111.336 156 111.276 155.928 111.276 155.784ZM118.457 156H117.305C116.525 156 115.907 155.772 115.451 155.316C115.007 154.86 114.785 154.236 114.785 153.444V149.376C114.785 148.584 115.007 147.96 115.451 147.504C115.907 147.048 116.525 146.82 117.305 146.82H121.121C121.241 146.82 121.301 146.892 121.301 147.036V155.784C121.301 155.928 121.241 156 121.121 156H120.599C120.467 156 120.401 155.928 120.401 155.784V155.064H120.329C120.017 155.688 119.393 156 118.457 156ZM120.401 153.426V147.792C120.401 147.684 120.341 147.63 120.221 147.63H117.377C116.825 147.63 116.405 147.786 116.117 148.098C115.829 148.41 115.685 148.848 115.685 149.412V153.408C115.685 153.972 115.829 154.41 116.117 154.722C116.405 155.034 116.825 155.19 117.377 155.19H118.547C119.123 155.19 119.573 155.04 119.897 154.74C120.233 154.428 120.401 153.99 120.401 153.426ZM124.792 156H124.27C124.15 156 124.09 155.928 124.09 155.784V143.562C124.09 143.418 124.15 143.346 124.27 143.346H124.792C124.924 143.346 124.99 143.418 124.99 143.562V155.784C124.99 155.928 124.924 156 124.792 156ZM131.668 156H130.12C129.34 156 128.722 155.772 128.266 155.316C127.822 154.86 127.6 154.236 127.6 153.444V149.376C127.6 148.584 127.822 147.96 128.266 147.504C128.722 147.048 129.34 146.82 130.12 146.82H131.668C132.448 146.82 133.066 147.048 133.522 147.504C133.978 147.96 134.206 148.584 134.206 149.376V153.444C134.206 154.236 133.978 154.86 133.522 155.316C133.066 155.772 132.448 156 131.668 156ZM130.192 155.19H131.596C132.148 155.19 132.568 155.04 132.856 154.74C133.156 154.428 133.306 153.99 133.306 153.426V149.394C133.306 148.83 133.156 148.398 132.856 148.098C132.568 147.786 132.148 147.63 131.596 147.63H130.192C129.64 147.63 129.22 147.786 128.932 148.098C128.644 148.398 128.5 148.83 128.5 149.394V153.426C128.5 153.99 128.644 154.428 128.932 154.74C129.22 155.04 129.64 155.19 130.192 155.19ZM140.273 155.478H139.103C138.335 155.478 137.723 155.25 137.267 154.794C136.823 154.338 136.601 153.72 136.601 152.94V149.376C136.601 148.584 136.823 147.96 137.267 147.504C137.723 147.048 138.341 146.82 139.121 146.82H142.937C143.069 146.82 143.135 146.892 143.135 147.036V155.964C143.135 156.756 142.907 157.38 142.451 157.836C141.995 158.292 141.377 158.52 140.597 158.52H137.321C137.189 158.52 137.123 158.454 137.123 158.322V157.89C137.123 157.77 137.189 157.71 137.321 157.71H140.525C141.077 157.71 141.497 157.554 141.785 157.242C142.073 156.942 142.217 156.504 142.217 155.928V154.542H142.145C141.845 155.166 141.221 155.478 140.273 155.478ZM142.217 152.904V147.792C142.217 147.684 142.163 147.63 142.055 147.63H139.211C138.659 147.63 138.233 147.786 137.933 148.098C137.645 148.398 137.501 148.836 137.501 149.412V152.904C137.501 153.468 137.645 153.906 137.933 154.218C138.233 154.518 138.659 154.668 139.211 154.668H140.363C140.939 154.668 141.389 154.518 141.713 154.218C142.049 153.906 142.217 153.468 142.217 152.904ZM149.397 156H148.209C147.441 156 146.835 155.772 146.391 155.316C145.947 154.86 145.725 154.236 145.725 153.444V147.036C145.725 146.892 145.785 146.82 145.905 146.82H146.427C146.559 146.82 146.625 146.892 146.625 147.036V153.408C146.625 153.972 146.769 154.41 147.057 154.722C147.345 155.034 147.765 155.19 148.317 155.19H149.487C150.063 155.19 150.513 155.04 150.837 154.74C151.173 154.428 151.341 153.99 151.341 153.426V147.036C151.341 146.892 151.407 146.82 151.539 146.82H152.061C152.181 146.82 152.241 146.892 152.241 147.036V155.784C152.241 155.928 152.181 156 152.061 156H151.539C151.407 156 151.341 155.928 151.341 155.784V155.064H151.269C150.957 155.688 150.333 156 149.397 156ZM161.04 156H157.278C156.498 156 155.88 155.772 155.424 155.316C154.98 154.86 154.758 154.236 154.758 153.444V149.376C154.758 148.584 154.98 147.96 155.424 147.504C155.88 147.048 156.498 146.82 157.278 146.82H158.826C159.606 146.82 160.224 147.048 160.68 147.504C161.136 147.96 161.364 148.584 161.364 149.376V151.662C161.364 151.806 161.292 151.878 161.148 151.878H155.82C155.712 151.878 155.658 151.932 155.658 152.04V153.426C155.658 153.99 155.802 154.428 156.09 154.74C156.378 155.04 156.798 155.19 157.35 155.19H161.04C161.172 155.19 161.238 155.256 161.238 155.388V155.802C161.238 155.934 161.172 156 161.04 156ZM155.82 151.158H160.302C160.41 151.158 160.464 151.104 160.464 150.996V149.394C160.464 148.83 160.32 148.398 160.032 148.098C159.744 147.786 159.324 147.63 158.772 147.63H157.35C156.798 147.63 156.378 147.786 156.09 148.098C155.802 148.398 155.658 148.83 155.658 149.394V150.996C155.658 151.104 155.712 151.158 155.82 151.158ZM166.767 156H163.635C163.503 156 163.437 155.934 163.437 155.802V155.388C163.437 155.268 163.503 155.208 163.635 155.208H166.677C167.757 155.208 168.297 154.788 168.297 153.948V153.516C168.297 152.736 167.961 152.226 167.289 151.986L165.039 151.122C164.427 150.882 163.989 150.6 163.725 150.276C163.473 149.952 163.347 149.502 163.347 148.926C163.347 147.522 164.121 146.82 165.669 146.82H168.585C168.717 146.82 168.783 146.886 168.783 147.018V147.432C168.783 147.552 168.717 147.612 168.585 147.612H165.759C165.267 147.612 164.895 147.72 164.643 147.936C164.403 148.152 164.283 148.404 164.283 148.692V149.106C164.283 149.442 164.373 149.706 164.553 149.898C164.745 150.09 165.033 150.252 165.417 150.384L167.667 151.284C168.291 151.488 168.705 151.794 168.909 152.202C169.125 152.598 169.233 153.156 169.233 153.876C169.233 154.596 169.029 155.13 168.621 155.478C168.225 155.826 167.607 156 166.767 156ZM172.413 153.642V155.046C172.413 155.274 172.347 155.616 172.215 156.072L171.693 157.71C171.681 157.794 171.627 157.836 171.531 157.836C171.447 157.836 171.405 157.782 171.405 157.674V153.642C171.405 153.51 171.471 153.444 171.603 153.444H172.233C172.353 153.444 172.413 153.51 172.413 153.642ZM180.495 156H179.973C179.853 156 179.793 155.928 179.793 155.784V147.036C179.793 146.892 179.853 146.82 179.973 146.82H180.495C180.627 146.82 180.693 146.892 180.693 147.036V147.756H180.765C181.113 147.132 181.749 146.82 182.673 146.82H183.411C184.467 146.82 185.199 147.24 185.607 148.08C185.787 147.66 186.093 147.348 186.525 147.144C186.957 146.928 187.401 146.82 187.857 146.82H188.523C189.303 146.82 189.915 147.048 190.359 147.504C190.803 147.96 191.025 148.584 191.025 149.376V155.784C191.025 155.928 190.959 156 190.827 156H190.305C190.173 156 190.107 155.928 190.107 155.784V149.412C190.107 148.836 189.963 148.398 189.675 148.098C189.387 147.786 188.967 147.63 188.415 147.63H187.749C187.173 147.63 186.717 147.798 186.381 148.134C186.045 148.458 185.877 148.902 185.877 149.466V155.784C185.877 155.928 185.811 156 185.679 156H185.157C185.025 156 184.959 155.928 184.959 155.784V149.412C184.959 148.836 184.815 148.398 184.527 148.098C184.239 147.786 183.819 147.63 183.267 147.63H182.547C181.971 147.63 181.515 147.786 181.179 148.098C180.855 148.398 180.693 148.83 180.693 149.394V155.784C180.693 155.928 180.627 156 180.495 156ZM199.729 156H195.967C195.187 156 194.569 155.772 194.113 155.316C193.669 154.86 193.447 154.236 193.447 153.444V149.376C193.447 148.584 193.669 147.96 194.113 147.504C194.569 147.048 195.187 146.82 195.967 146.82H197.515C198.295 146.82 198.913 147.048 199.369 147.504C199.825 147.96 200.053 148.584 200.053 149.376V151.662C200.053 151.806 199.981 151.878 199.837 151.878H194.509C194.401 151.878 194.347 151.932 194.347 152.04V153.426C194.347 153.99 194.491 154.428 194.779 154.74C195.067 155.04 195.487 155.19 196.039 155.19H199.729C199.861 155.19 199.927 155.256 199.927 155.388V155.802C199.927 155.934 199.861 156 199.729 156ZM194.509 151.158H198.991C199.099 151.158 199.153 151.104 199.153 150.996V149.394C199.153 148.83 199.009 148.398 198.721 148.098C198.433 147.786 198.013 147.63 197.461 147.63H196.039C195.487 147.63 195.067 147.786 194.779 148.098C194.491 148.398 194.347 148.83 194.347 149.394V150.996C194.347 151.104 194.401 151.158 194.509 151.158ZM203.189 156H202.667C202.547 156 202.487 155.928 202.487 155.784V147.036C202.487 146.892 202.547 146.82 202.667 146.82H203.189C203.321 146.82 203.387 146.892 203.387 147.036V147.756H203.459C203.795 147.132 204.419 146.82 205.331 146.82H206.519C207.287 146.82 207.893 147.048 208.337 147.504C208.781 147.96 209.003 148.584 209.003 149.376V155.784C209.003 155.928 208.943 156 208.823 156H208.301C208.169 156 208.103 155.928 208.103 155.784V149.412C208.103 148.848 207.959 148.41 207.671 148.098C207.383 147.786 206.963 147.63 206.411 147.63H205.241C204.665 147.63 204.209 147.786 203.873 148.098C203.549 148.398 203.387 148.83 203.387 149.394V155.784C203.387 155.928 203.321 156 203.189 156ZM215.192 156H214.004C213.236 156 212.63 155.772 212.186 155.316C211.742 154.86 211.52 154.236 211.52 153.444V147.036C211.52 146.892 211.58 146.82 211.7 146.82H212.222C212.354 146.82 212.42 146.892 212.42 147.036V153.408C212.42 153.972 212.564 154.41 212.852 154.722C213.14 155.034 213.56 155.19 214.112 155.19H215.282C215.858 155.19 216.308 155.04 216.632 154.74C216.968 154.428 217.136 153.99 217.136 153.426V147.036C217.136 146.892 217.202 146.82 217.334 146.82H217.856C217.976 146.82 218.036 146.892 218.036 147.036V155.784C218.036 155.928 217.976 156 217.856 156H217.334C217.202 156 217.136 155.928 217.136 155.784V155.064H217.064C216.752 155.688 216.128 156 215.192 156ZM223.703 156H220.571C220.439 156 220.373 155.934 220.373 155.802V155.388C220.373 155.268 220.439 155.208 220.571 155.208H223.613C224.693 155.208 225.233 154.788 225.233 153.948V153.516C225.233 152.736 224.897 152.226 224.225 151.986L221.975 151.122C221.363 150.882 220.925 150.6 220.661 150.276C220.409 149.952 220.283 149.502 220.283 148.926C220.283 147.522 221.057 146.82 222.605 146.82H225.521C225.653 146.82 225.719 146.886 225.719 147.018V147.432C225.719 147.552 225.653 147.612 225.521 147.612H222.695C222.203 147.612 221.831 147.72 221.579 147.936C221.339 148.152 221.219 148.404 221.219 148.692V149.106C221.219 149.442 221.309 149.706 221.489 149.898C221.681 150.09 221.969 150.252 222.353 150.384L224.603 151.284C225.227 151.488 225.641 151.794 225.845 152.202C226.061 152.598 226.169 153.156 226.169 153.876C226.169 154.596 225.965 155.13 225.557 155.478C225.161 155.826 224.543 156 223.703 156ZM229.349 153.642V155.046C229.349 155.274 229.283 155.616 229.151 156.072L228.629 157.71C228.617 157.794 228.563 157.836 228.467 157.836C228.383 157.836 228.341 157.782 228.341 157.674V153.642C228.341 153.51 228.407 153.444 228.539 153.444H229.169C229.289 153.444 229.349 153.51 229.349 153.642ZM239.699 156H236.567C236.435 156 236.369 155.934 236.369 155.802V155.388C236.369 155.268 236.435 155.208 236.567 155.208H239.609C240.689 155.208 241.229 154.788 241.229 153.948V153.516C241.229 152.736 240.893 152.226 240.221 151.986L237.971 151.122C237.359 150.882 236.921 150.6 236.657 150.276C236.405 149.952 236.279 149.502 236.279 148.926C236.279 147.522 237.053 146.82 238.601 146.82H241.517C241.649 146.82 241.715 146.886 241.715 147.018V147.432C241.715 147.552 241.649 147.612 241.517 147.612H238.691C238.199 147.612 237.827 147.72 237.575 147.936C237.335 148.152 237.215 148.404 237.215 148.692V149.106C237.215 149.442 237.305 149.706 237.485 149.898C237.677 150.09 237.965 150.252 238.349 150.384L240.599 151.284C241.223 151.488 241.637 151.794 241.841 152.202C242.057 152.598 242.165 153.156 242.165 153.876C242.165 154.596 241.961 155.13 241.553 155.478C241.157 155.826 240.539 156 239.699 156ZM248.063 156H246.875C246.107 156 245.501 155.772 245.057 155.316C244.613 154.86 244.391 154.236 244.391 153.444V147.036C244.391 146.892 244.451 146.82 244.571 146.82H245.093C245.225 146.82 245.291 146.892 245.291 147.036V153.408C245.291 153.972 245.435 154.41 245.723 154.722C246.011 155.034 246.431 155.19 246.983 155.19H248.153C248.729 155.19 249.179 155.04 249.503 154.74C249.839 154.428 250.007 153.99 250.007 153.426V147.036C250.007 146.892 250.073 146.82 250.205 146.82H250.727C250.847 146.82 250.907 146.892 250.907 147.036V155.784C250.907 155.928 250.847 156 250.727 156H250.205C250.073 156 250.007 155.928 250.007 155.784V155.064H249.935C249.623 155.688 248.999 156 248.063 156ZM254.684 155.19H257.546C258.098 155.19 258.518 155.04 258.806 154.74C259.106 154.428 259.256 153.984 259.256 153.408V149.25C259.256 148.686 259.106 148.254 258.806 147.954C258.518 147.642 258.098 147.486 257.546 147.486H256.358C255.782 147.486 255.326 147.642 254.99 147.954C254.666 148.254 254.504 148.686 254.504 149.25V155.028C254.504 155.136 254.564 155.19 254.684 155.19ZM253.604 155.784V143.562C253.604 143.418 253.664 143.346 253.784 143.346H254.306C254.438 143.346 254.504 143.418 254.504 143.562V147.612H254.576C254.912 146.988 255.536 146.676 256.448 146.676H257.636C258.416 146.676 259.028 146.904 259.472 147.36C259.928 147.816 260.156 148.434 260.156 149.214V153.444C260.156 154.236 259.928 154.86 259.472 155.316C259.028 155.772 258.416 156 257.636 156H253.784C253.664 156 253.604 155.928 253.604 155.784ZM263.07 147.63H261.972C261.84 147.63 261.774 147.57 261.774 147.45V147.018C261.774 146.886 261.84 146.82 261.972 146.82H263.07C263.178 146.82 263.232 146.766 263.232 146.658V145.2C263.232 145.056 263.298 144.984 263.43 144.984H263.952C264.084 144.984 264.15 145.056 264.15 145.2V146.658C264.15 146.766 264.204 146.82 264.312 146.82H266.454C266.586 146.82 266.652 146.886 266.652 147.018V147.45C266.652 147.57 266.586 147.63 266.454 147.63H264.312C264.204 147.63 264.15 147.684 264.15 147.792V153.462C264.15 154.014 264.306 154.44 264.618 154.74C264.93 155.04 265.368 155.19 265.932 155.19H266.634C266.766 155.19 266.832 155.256 266.832 155.388V155.802C266.832 155.934 266.766 156 266.634 156H265.86C265.068 156 264.432 155.778 263.952 155.334C263.472 154.89 263.232 154.278 263.232 153.498V147.792C263.232 147.684 263.178 147.63 263.07 147.63ZM269.004 145.308V143.58C269.004 143.448 269.064 143.382 269.184 143.382H269.724C269.844 143.382 269.904 143.448 269.904 143.58V145.308C269.904 145.452 269.844 145.524 269.724 145.524H269.184C269.064 145.524 269.004 145.452 269.004 145.308ZM269.004 155.784V147.036C269.004 146.892 269.064 146.82 269.184 146.82H269.706C269.838 146.82 269.904 146.892 269.904 147.036V155.784C269.904 155.928 269.844 156 269.724 156H269.184C269.064 156 269.004 155.928 269.004 155.784ZM273.09 147.63H271.992C271.86 147.63 271.794 147.57 271.794 147.45V147.018C271.794 146.886 271.86 146.82 271.992 146.82H273.09C273.198 146.82 273.252 146.766 273.252 146.658V145.2C273.252 145.056 273.318 144.984 273.45 144.984H273.972C274.104 144.984 274.17 145.056 274.17 145.2V146.658C274.17 146.766 274.224 146.82 274.332 146.82H276.474C276.606 146.82 276.672 146.886 276.672 147.018V147.45C276.672 147.57 276.606 147.63 276.474 147.63H274.332C274.224 147.63 274.17 147.684 274.17 147.792V153.462C274.17 154.014 274.326 154.44 274.638 154.74C274.95 155.04 275.388 155.19 275.952 155.19H276.654C276.786 155.19 276.852 155.256 276.852 155.388V155.802C276.852 155.934 276.786 156 276.654 156H275.88C275.088 156 274.452 155.778 273.972 155.334C273.492 154.89 273.252 154.278 273.252 153.498V147.792C273.252 147.684 273.198 147.63 273.09 147.63ZM279.726 156H279.204C279.084 156 279.024 155.928 279.024 155.784V143.562C279.024 143.418 279.084 143.346 279.204 143.346H279.726C279.858 143.346 279.924 143.418 279.924 143.562V155.784C279.924 155.928 279.858 156 279.726 156ZM288.815 156H285.053C284.273 156 283.655 155.772 283.199 155.316C282.755 154.86 282.533 154.236 282.533 153.444V149.376C282.533 148.584 282.755 147.96 283.199 147.504C283.655 147.048 284.273 146.82 285.053 146.82H286.601C287.381 146.82 287.999 147.048 288.455 147.504C288.911 147.96 289.139 148.584 289.139 149.376V151.662C289.139 151.806 289.067 151.878 288.923 151.878H283.595C283.487 151.878 283.433 151.932 283.433 152.04V153.426C283.433 153.99 283.577 154.428 283.865 154.74C284.153 155.04 284.573 155.19 285.125 155.19H288.815C288.947 155.19 289.013 155.256 289.013 155.388V155.802C289.013 155.934 288.947 156 288.815 156ZM283.595 151.158H288.077C288.185 151.158 288.239 151.104 288.239 150.996V149.394C288.239 148.83 288.095 148.398 287.807 148.098C287.519 147.786 287.099 147.63 286.547 147.63H285.125C284.573 147.63 284.153 147.786 283.865 148.098C283.577 148.398 283.433 148.83 283.433 149.394V150.996C283.433 151.104 283.487 151.158 283.595 151.158ZM294.543 156H291.411C291.279 156 291.213 155.934 291.213 155.802V155.388C291.213 155.268 291.279 155.208 291.411 155.208H294.453C295.533 155.208 296.073 154.788 296.073 153.948V153.516C296.073 152.736 295.737 152.226 295.065 151.986L292.815 151.122C292.203 150.882 291.765 150.6 291.501 150.276C291.249 149.952 291.123 149.502 291.123 148.926C291.123 147.522 291.897 146.82 293.445 146.82H296.361C296.493 146.82 296.559 146.886 296.559 147.018V147.432C296.559 147.552 296.493 147.612 296.361 147.612H293.535C293.043 147.612 292.671 147.72 292.419 147.936C292.179 148.152 292.059 148.404 292.059 148.692V149.106C292.059 149.442 292.149 149.706 292.329 149.898C292.521 150.09 292.809 150.252 293.193 150.384L295.443 151.284C296.067 151.488 296.481 151.794 296.685 152.202C296.901 152.598 297.009 153.156 297.009 153.876C297.009 154.596 296.805 155.13 296.397 155.478C296.001 155.826 295.383 156 294.543 156ZM300.189 153.642V155.046C300.189 155.274 300.123 155.616 299.991 156.072L299.469 157.71C299.457 157.794 299.403 157.836 299.307 157.836C299.223 157.836 299.181 157.782 299.181 157.674V153.642C299.181 153.51 299.247 153.444 299.379 153.444H300.009C300.129 153.444 300.189 153.51 300.189 153.642ZM36.842 181H35.69C34.91 181 34.292 180.772 33.836 180.316C33.392 179.86 33.17 179.236 33.17 178.444V174.376C33.17 173.584 33.392 172.96 33.836 172.504C34.292 172.048 34.91 171.82 35.69 171.82H39.506C39.626 171.82 39.686 171.892 39.686 172.036V180.784C39.686 180.928 39.626 181 39.506 181H38.984C38.852 181 38.786 180.928 38.786 180.784V180.064H38.714C38.402 180.688 37.778 181 36.842 181ZM38.786 178.426V172.792C38.786 172.684 38.726 172.63 38.606 172.63H35.762C35.21 172.63 34.79 172.786 34.502 173.098C34.214 173.41 34.07 173.848 34.07 174.412V178.408C34.07 178.972 34.214 179.41 34.502 179.722C34.79 180.034 35.21 180.19 35.762 180.19H36.932C37.508 180.19 37.958 180.04 38.282 179.74C38.618 179.428 38.786 178.99 38.786 178.426ZM47.5152 180.388V180.802C47.5152 180.934 47.4492 181 47.3172 181H44.7252C43.9452 181 43.3272 180.772 42.8712 180.316C42.4272 179.86 42.2052 179.236 42.2052 178.444V174.376C42.2052 173.584 42.4272 172.96 42.8712 172.504C43.3272 172.048 43.9452 171.82 44.7252 171.82H47.3172C47.4492 171.82 47.5152 171.886 47.5152 172.018V172.45C47.5152 172.57 47.4492 172.63 47.3172 172.63H44.7972C44.2452 172.63 43.8252 172.786 43.5372 173.098C43.2492 173.41 43.1052 173.848 43.1052 174.412V178.408C43.1052 178.972 43.2492 179.41 43.5372 179.722C43.8252 180.034 44.2452 180.19 44.7972 180.19H47.3172C47.4492 180.19 47.5152 180.256 47.5152 180.388ZM50.1711 181H49.6491C49.5291 181 49.4691 180.928 49.4691 180.784V168.562C49.4691 168.418 49.5291 168.346 49.6491 168.346H50.1711C50.3031 168.346 50.3691 168.418 50.3691 168.562V172.756H50.4411C50.7771 172.132 51.4011 171.82 52.3131 171.82H53.5011C54.2691 171.82 54.8751 172.048 55.3191 172.504C55.7631 172.96 55.9851 173.584 55.9851 174.376V180.784C55.9851 180.928 55.9251 181 55.8051 181H55.2831C55.1511 181 55.0851 180.928 55.0851 180.784V174.412C55.0851 173.848 54.9411 173.41 54.6531 173.098C54.3651 172.786 53.9451 172.63 53.3931 172.63H52.2231C51.6471 172.63 51.1911 172.786 50.8551 173.098C50.5311 173.398 50.3691 173.83 50.3691 174.394V180.784C50.3691 180.928 50.3031 181 50.1711 181ZM58.6822 170.308V168.58C58.6822 168.448 58.7422 168.382 58.8622 168.382H59.4022C59.5222 168.382 59.5822 168.448 59.5822 168.58V170.308C59.5822 170.452 59.5222 170.524 59.4022 170.524H58.8622C58.7422 170.524 58.6822 170.452 58.6822 170.308ZM58.6822 180.784V172.036C58.6822 171.892 58.7422 171.82 58.8622 171.82H59.3842C59.5162 171.82 59.5822 171.892 59.5822 172.036V180.784C59.5822 180.928 59.5222 181 59.4022 181H58.8622C58.7422 181 58.6822 180.928 58.6822 180.784ZM68.4735 181H64.7115C63.9315 181 63.3135 180.772 62.8575 180.316C62.4135 179.86 62.1915 179.236 62.1915 178.444V174.376C62.1915 173.584 62.4135 172.96 62.8575 172.504C63.3135 172.048 63.9315 171.82 64.7115 171.82H66.2595C67.0395 171.82 67.6575 172.048 68.1135 172.504C68.5695 172.96 68.7975 173.584 68.7975 174.376V176.662C68.7975 176.806 68.7255 176.878 68.5815 176.878H63.2535C63.1455 176.878 63.0915 176.932 63.0915 177.04V178.426C63.0915 178.99 63.2355 179.428 63.5235 179.74C63.8115 180.04 64.2315 180.19 64.7835 180.19H68.4735C68.6055 180.19 68.6715 180.256 68.6715 180.388V180.802C68.6715 180.934 68.6055 181 68.4735 181ZM63.2535 176.158H67.7355C67.8435 176.158 67.8975 176.104 67.8975 175.996V174.394C67.8975 173.83 67.7535 173.398 67.4655 173.098C67.1775 172.786 66.7575 172.63 66.2055 172.63H64.7835C64.2315 172.63 63.8115 172.786 63.5235 173.098C63.2355 173.398 63.0915 173.83 63.0915 174.394V175.996C63.0915 176.104 63.1455 176.158 63.2535 176.158ZM70.3849 171.82H70.9429C71.0629 171.82 71.1409 171.892 71.1769 172.036L73.5889 179.992H73.6609L76.0549 172.036C76.1029 171.892 76.1809 171.82 76.2889 171.82H76.8649C76.9969 171.82 77.0389 171.892 76.9909 172.036L74.2729 180.784C74.2369 180.928 74.1529 181 74.0209 181H73.2289C73.0969 181 73.0069 180.928 72.9589 180.784L70.2409 172.036C70.2049 171.892 70.2529 171.82 70.3849 171.82ZM84.8211 181H81.0591C80.2791 181 79.6611 180.772 79.2051 180.316C78.7611 179.86 78.5391 179.236 78.5391 178.444V174.376C78.5391 173.584 78.7611 172.96 79.2051 172.504C79.6611 172.048 80.2791 171.82 81.0591 171.82H82.6071C83.3871 171.82 84.0051 172.048 84.4611 172.504C84.9171 172.96 85.1451 173.584 85.1451 174.376V176.662C85.1451 176.806 85.0731 176.878 84.9291 176.878H79.6011C79.4931 176.878 79.4391 176.932 79.4391 177.04V178.426C79.4391 178.99 79.5831 179.428 79.8711 179.74C80.1591 180.04 80.5791 180.19 81.1311 180.19H84.8211C84.9531 180.19 85.0191 180.256 85.0191 180.388V180.802C85.0191 180.934 84.9531 181 84.8211 181ZM79.6011 176.158H84.0831C84.1911 176.158 84.2451 176.104 84.2451 175.996V174.394C84.2451 173.83 84.1011 173.398 83.8131 173.098C83.5251 172.786 83.1051 172.63 82.5531 172.63H81.1311C80.5791 172.63 80.1591 172.786 79.8711 173.098C79.5831 173.398 79.4391 173.83 79.4391 174.394V175.996C79.4391 176.104 79.4931 176.158 79.6011 176.158ZM88.2805 181H87.7585C87.6385 181 87.5785 180.928 87.5785 180.784V172.036C87.5785 171.892 87.6385 171.82 87.7585 171.82H88.2805C88.4125 171.82 88.4785 171.892 88.4785 172.036V172.756H88.5505C88.8985 172.132 89.5345 171.82 90.4585 171.82H91.1965C92.2525 171.82 92.9845 172.24 93.3925 173.08C93.5725 172.66 93.8785 172.348 94.3105 172.144C94.7425 171.928 95.1865 171.82 95.6425 171.82H96.3085C97.0885 171.82 97.7005 172.048 98.1445 172.504C98.5885 172.96 98.8105 173.584 98.8105 174.376V180.784C98.8105 180.928 98.7445 181 98.6125 181H98.0905C97.9585 181 97.8925 180.928 97.8925 180.784V174.412C97.8925 173.836 97.7485 173.398 97.4605 173.098C97.1725 172.786 96.7525 172.63 96.2005 172.63H95.5345C94.9585 172.63 94.5025 172.798 94.1665 173.134C93.8305 173.458 93.6625 173.902 93.6625 174.466V180.784C93.6625 180.928 93.5965 181 93.4645 181H92.9425C92.8105 181 92.7445 180.928 92.7445 180.784V174.412C92.7445 173.836 92.6005 173.398 92.3125 173.098C92.0245 172.786 91.6045 172.63 91.0525 172.63H90.3325C89.7565 172.63 89.3005 172.786 88.9645 173.098C88.6405 173.398 88.4785 173.83 88.4785 174.394V180.784C88.4785 180.928 88.4125 181 88.2805 181ZM107.515 181H103.753C102.973 181 102.355 180.772 101.899 180.316C101.455 179.86 101.233 179.236 101.233 178.444V174.376C101.233 173.584 101.455 172.96 101.899 172.504C102.355 172.048 102.973 171.82 103.753 171.82H105.301C106.081 171.82 106.699 172.048 107.155 172.504C107.611 172.96 107.839 173.584 107.839 174.376V176.662C107.839 176.806 107.767 176.878 107.623 176.878H102.295C102.187 176.878 102.133 176.932 102.133 177.04V178.426C102.133 178.99 102.277 179.428 102.565 179.74C102.853 180.04 103.273 180.19 103.825 180.19H107.515C107.647 180.19 107.713 180.256 107.713 180.388V180.802C107.713 180.934 107.647 181 107.515 181ZM102.295 176.158H106.777C106.885 176.158 106.939 176.104 106.939 175.996V174.394C106.939 173.83 106.795 173.398 106.507 173.098C106.219 172.786 105.799 172.63 105.247 172.63H103.825C103.273 172.63 102.853 172.786 102.565 173.098C102.277 173.398 102.133 173.83 102.133 174.394V175.996C102.133 176.104 102.187 176.158 102.295 176.158ZM110.974 181H110.452C110.332 181 110.272 180.928 110.272 180.784V172.036C110.272 171.892 110.332 171.82 110.452 171.82H110.974C111.106 171.82 111.172 171.892 111.172 172.036V172.756H111.244C111.58 172.132 112.204 171.82 113.116 171.82H114.304C115.072 171.82 115.678 172.048 116.122 172.504C116.566 172.96 116.788 173.584 116.788 174.376V180.784C116.788 180.928 116.728 181 116.608 181H116.086C115.954 181 115.888 180.928 115.888 180.784V174.412C115.888 173.848 115.744 173.41 115.456 173.098C115.168 172.786 114.748 172.63 114.196 172.63H113.026C112.45 172.63 111.994 172.786 111.658 173.098C111.334 173.398 111.172 173.83 111.172 174.394V180.784C111.172 180.928 111.106 181 110.974 181ZM119.791 172.63H118.693C118.561 172.63 118.495 172.57 118.495 172.45V172.018C118.495 171.886 118.561 171.82 118.693 171.82H119.791C119.899 171.82 119.953 171.766 119.953 171.658V170.2C119.953 170.056 120.019 169.984 120.151 169.984H120.673C120.805 169.984 120.871 170.056 120.871 170.2V171.658C120.871 171.766 120.925 171.82 121.033 171.82H123.175C123.307 171.82 123.373 171.886 123.373 172.018V172.45C123.373 172.57 123.307 172.63 123.175 172.63H121.033C120.925 172.63 120.871 172.684 120.871 172.792V178.462C120.871 179.014 121.027 179.44 121.339 179.74C121.651 180.04 122.089 180.19 122.653 180.19H123.355C123.487 180.19 123.553 180.256 123.553 180.388V180.802C123.553 180.934 123.487 181 123.355 181H122.581C121.789 181 121.153 180.778 120.673 180.334C120.193 179.89 119.953 179.278 119.953 178.498V172.792C119.953 172.684 119.899 172.63 119.791 172.63ZM128.605 181H125.473C125.341 181 125.275 180.934 125.275 180.802V180.388C125.275 180.268 125.341 180.208 125.473 180.208H128.515C129.595 180.208 130.135 179.788 130.135 178.948V178.516C130.135 177.736 129.799 177.226 129.127 176.986L126.877 176.122C126.265 175.882 125.827 175.6 125.563 175.276C125.311 174.952 125.185 174.502 125.185 173.926C125.185 172.522 125.959 171.82 127.507 171.82H130.423C130.555 171.82 130.621 171.886 130.621 172.018V172.432C130.621 172.552 130.555 172.612 130.423 172.612H127.597C127.105 172.612 126.733 172.72 126.481 172.936C126.241 173.152 126.121 173.404 126.121 173.692V174.106C126.121 174.442 126.211 174.706 126.391 174.898C126.583 175.09 126.871 175.252 127.255 175.384L129.505 176.284C130.129 176.488 130.543 176.794 130.747 177.202C130.963 177.598 131.071 178.156 131.071 178.876C131.071 179.596 130.867 180.13 130.459 180.478C130.063 180.826 129.445 181 128.605 181ZM134.251 178.642V180.046C134.251 180.274 134.185 180.616 134.053 181.072L133.531 182.71C133.519 182.794 133.465 182.836 133.369 182.836C133.285 182.836 133.243 182.782 133.243 182.674V178.642C133.243 178.51 133.309 178.444 133.441 178.444H134.071C134.191 178.444 134.251 178.51 134.251 178.642ZM145.123 181H143.971C143.191 181 142.573 180.772 142.117 180.316C141.673 179.86 141.451 179.236 141.451 178.444V174.376C141.451 173.584 141.673 172.96 142.117 172.504C142.573 172.048 143.191 171.82 143.971 171.82H147.787C147.907 171.82 147.967 171.892 147.967 172.036V180.784C147.967 180.928 147.907 181 147.787 181H147.265C147.133 181 147.067 180.928 147.067 180.784V180.064H146.995C146.683 180.688 146.059 181 145.123 181ZM147.067 178.426V172.792C147.067 172.684 147.007 172.63 146.887 172.63H144.043C143.491 172.63 143.071 172.786 142.783 173.098C142.495 173.41 142.351 173.848 142.351 174.412V178.408C142.351 178.972 142.495 179.41 142.783 179.722C143.071 180.034 143.491 180.19 144.043 180.19H145.213C145.789 180.19 146.239 180.04 146.563 179.74C146.899 179.428 147.067 178.99 147.067 178.426ZM151.368 181H150.846C150.726 181 150.666 180.928 150.666 180.784V172.036C150.666 171.892 150.726 171.82 150.846 171.82H151.368C151.5 171.82 151.566 171.892 151.566 172.036V172.756H151.638C151.974 172.132 152.598 171.82 153.51 171.82H154.698C155.466 171.82 156.072 172.048 156.516 172.504C156.96 172.96 157.182 173.584 157.182 174.376V180.784C157.182 180.928 157.122 181 157.002 181H156.48C156.348 181 156.282 180.928 156.282 180.784V174.412C156.282 173.848 156.138 173.41 155.85 173.098C155.562 172.786 155.142 172.63 154.59 172.63H153.42C152.844 172.63 152.388 172.786 152.052 173.098C151.728 173.398 151.566 173.83 151.566 174.394V180.784C151.566 180.928 151.5 181 151.368 181ZM163.299 181H162.093C161.325 181 160.719 180.772 160.275 180.316C159.831 179.86 159.609 179.236 159.609 178.444V174.376C159.609 173.584 159.831 172.96 160.275 172.504C160.719 172.048 161.325 171.82 162.093 171.82H163.299C164.223 171.82 164.853 172.132 165.189 172.756H165.261V168.562C165.261 168.418 165.321 168.346 165.441 168.346H165.963C166.095 168.346 166.161 168.418 166.161 168.562V180.784C166.161 180.928 166.095 181 165.963 181H165.441C165.321 181 165.261 180.928 165.261 180.784V180.064H165.189C164.853 180.688 164.223 181 163.299 181ZM165.261 178.426V174.394C165.261 173.83 165.093 173.398 164.757 173.098C164.433 172.786 163.983 172.63 163.407 172.63H162.201C161.649 172.63 161.229 172.786 160.941 173.098C160.653 173.41 160.509 173.848 160.509 174.412V178.408C160.509 178.972 160.653 179.41 160.941 179.722C161.229 180.034 161.649 180.19 162.201 180.19H163.407C163.983 180.19 164.433 180.04 164.757 179.74C165.093 179.428 165.261 178.99 165.261 178.426ZM174.361 181H173.839C173.719 181 173.659 180.928 173.659 180.784V172.036C173.659 171.892 173.719 171.82 173.839 171.82H174.361C174.493 171.82 174.559 171.892 174.559 172.036V172.756H174.631C174.979 172.132 175.615 171.82 176.539 171.82H177.277C178.333 171.82 179.065 172.24 179.473 173.08C179.653 172.66 179.959 172.348 180.391 172.144C180.823 171.928 181.267 171.82 181.723 171.82H182.389C183.169 171.82 183.781 172.048 184.225 172.504C184.669 172.96 184.891 173.584 184.891 174.376V180.784C184.891 180.928 184.825 181 184.693 181H184.171C184.039 181 183.973 180.928 183.973 180.784V174.412C183.973 173.836 183.829 173.398 183.541 173.098C183.253 172.786 182.833 172.63 182.281 172.63H181.615C181.039 172.63 180.583 172.798 180.247 173.134C179.911 173.458 179.743 173.902 179.743 174.466V180.784C179.743 180.928 179.677 181 179.545 181H179.023C178.891 181 178.825 180.928 178.825 180.784V174.412C178.825 173.836 178.681 173.398 178.393 173.098C178.105 172.786 177.685 172.63 177.133 172.63H176.413C175.837 172.63 175.381 172.786 175.045 173.098C174.721 173.398 174.559 173.83 174.559 174.394V180.784C174.559 180.928 174.493 181 174.361 181ZM191.381 181H189.833C189.053 181 188.435 180.772 187.979 180.316C187.535 179.86 187.313 179.236 187.313 178.444V174.376C187.313 173.584 187.535 172.96 187.979 172.504C188.435 172.048 189.053 171.82 189.833 171.82H191.381C192.161 171.82 192.779 172.048 193.235 172.504C193.691 172.96 193.919 173.584 193.919 174.376V178.444C193.919 179.236 193.691 179.86 193.235 180.316C192.779 180.772 192.161 181 191.381 181ZM189.905 180.19H191.309C191.861 180.19 192.281 180.04 192.569 179.74C192.869 179.428 193.019 178.99 193.019 178.426V174.394C193.019 173.83 192.869 173.398 192.569 173.098C192.281 172.786 191.861 172.63 191.309 172.63H189.905C189.353 172.63 188.933 172.786 188.645 173.098C188.357 173.398 188.213 173.83 188.213 174.394V178.426C188.213 178.99 188.357 179.428 188.645 179.74C188.933 180.04 189.353 180.19 189.905 180.19ZM197.124 181H196.602C196.482 181 196.422 180.928 196.422 180.784V172.036C196.422 171.892 196.482 171.82 196.602 171.82H197.124C197.256 171.82 197.322 171.892 197.322 172.036V172.792H197.394C197.526 172.54 197.76 172.318 198.096 172.126C198.432 171.922 198.846 171.82 199.338 171.82H200.04C200.172 171.82 200.238 171.886 200.238 172.018V172.45C200.238 172.582 200.172 172.642 200.04 172.63H199.194C198.606 172.63 198.144 172.81 197.808 173.17C197.484 173.53 197.322 174.016 197.322 174.628V180.784C197.322 180.928 197.256 181 197.124 181ZM208.167 181H204.405C203.625 181 203.007 180.772 202.551 180.316C202.107 179.86 201.885 179.236 201.885 178.444V174.376C201.885 173.584 202.107 172.96 202.551 172.504C203.007 172.048 203.625 171.82 204.405 171.82H205.953C206.733 171.82 207.351 172.048 207.807 172.504C208.263 172.96 208.491 173.584 208.491 174.376V176.662C208.491 176.806 208.419 176.878 208.275 176.878H202.947C202.839 176.878 202.785 176.932 202.785 177.04V178.426C202.785 178.99 202.929 179.428 203.217 179.74C203.505 180.04 203.925 180.19 204.477 180.19H208.167C208.299 180.19 208.365 180.256 208.365 180.388V180.802C208.365 180.934 208.299 181 208.167 181ZM202.947 176.158H207.429C207.537 176.158 207.591 176.104 207.591 175.996V174.394C207.591 173.83 207.447 173.398 207.159 173.098C206.871 172.786 206.451 172.63 205.899 172.63H204.477C203.925 172.63 203.505 172.786 203.217 173.098C202.929 173.398 202.785 173.83 202.785 174.394V175.996C202.785 176.104 202.839 176.158 202.947 176.158ZM211.788 178.642V180.784C211.788 180.928 211.728 181 211.608 181H210.978C210.846 181 210.78 180.928 210.78 180.784V178.642C210.78 178.51 210.846 178.444 210.978 178.444H211.608C211.728 178.444 211.788 178.51 211.788 178.642Z" fill="#F4F4F4"/>
<path fill-rule="evenodd" clip-rule="evenodd" d="M378.707 208C323.312 208 60.1884 208 4.79383 208C4.39435 208 3.99487 207.7 3.99487 207.3C3.99487 162.033 3.99487 76.8 3.99487 31.6C3.99487 31.4 4.06145 31.2333 4.19461 31.1V31C9.25469 25.8667 14.2815 20.7333 19.275 15.6C19.3416 15.5333 19.4081 15.4667 19.4747 15.4C19.5413 15.3333 19.6079 15.2667 19.6745 15.2C24.5348 10.2 29.3951 5.23334 34.2555 0.300003C34.4552 0.100003 34.655 0 34.8547 0C80.1957 0 333.299 0 378.707 0C379.106 0 379.506 0.400003 379.506 0.800003C379.506 56.2667 379.506 151.767 379.506 207.3C379.506 207.5 379.439 207.667 379.306 207.8C379.173 207.933 378.973 208 378.707 208ZM35.1543 1.5C30.3605 6.43333 25.5668 11.3333 20.773 16.2C20.7064 16.3333 20.6399 16.4333 20.5733 16.5C20.5067 16.5667 20.4401 16.6333 20.3735 16.7C15.38 21.7667 10.4198 26.8333 5.49292 31.9C5.49292 76.7667 5.49292 161.633 5.49292 206.5C60.4214 206.5 323.079 206.5 378.008 206.5C378.008 151.5 378.008 56.5 378.008 1.5C332.933 1.5 80.1624 1.5 35.1543 1.5Z" fill="url(#paint3_linear_587_8633)"/>
<path d="M383.501 93H373.514V45H383.501V93Z" fill="#3CB1A1"/>
<path d="M10 151.1H0V135.1H10V151.1Z" fill="url(#paint4_linear_587_8633)"/>
<path d="M10 112H0V96H10V112Z" fill="url(#paint5_linear_587_8633)"/>
<path d="M10 73H0V57H10V73Z" fill="url(#paint6_linear_587_8633)"/>
<defs>
<filter id="filter0_b_587_8633" x="-30" y="-33.8999" width="447" height="276.9" filterUnits="userSpaceOnUse" color-interpolation-filters="sRGB">
<feFlood flood-opacity="0" result="BackgroundImageFix"/>
<feGaussianBlur in="BackgroundImageFix" stdDeviation="22.5"/>
<feComposite in2="SourceAlpha" operator="in" result="effect1_backgroundBlur_587_8633"/>
<feBlend mode="normal" in="SourceGraphic" in2="effect1_backgroundBlur_587_8633" result="shape"/>
</filter>
<linearGradient id="paint0_linear_587_8633" x1="372" y1="77.5" x2="15" y2="91" gradientUnits="userSpaceOnUse">
<stop stop-color="white"/>
<stop offset="1" stop-color="white"/>
</linearGradient>
<linearGradient id="paint1_linear_587_8633" x1="80.7769" y1="51" x2="32" y2="51" gradientUnits="userSpaceOnUse">
<stop stop-color="#44CD77"/>
<stop offset="1" stop-color="#2871FF"/>
</linearGradient>
<linearGradient id="paint2_linear_587_8633" x1="32" y1="88" x2="35.2001" y2="117.655" gradientUnits="userSpaceOnUse">
<stop stop-color="white"/>
<stop offset="1" stop-color="#71717A"/>
</linearGradient>
<linearGradient id="paint3_linear_587_8633" x1="542.709" y1="104" x2="3.995" y2="104" gradientUnits="userSpaceOnUse">
<stop stop-color="#44CD77"/>
<stop offset="1" stop-color="#2871FF"/>
</linearGradient>
<linearGradient id="paint4_linear_587_8633" x1="14.3462" y1="143.1" x2="3.35523e-06" y2="143.1" gradientUnits="userSpaceOnUse">
<stop offset="1" stop-color="#2871FF"/>
</linearGradient>
<linearGradient id="paint5_linear_587_8633" x1="14.3462" y1="104" x2="3.35523e-06" y2="104" gradientUnits="userSpaceOnUse">
<stop offset="1" stop-color="#2871FF"/>
</linearGradient>
<linearGradient id="paint6_linear_587_8633" x1="14.3462" y1="65" x2="3.35523e-06" y2="65" gradientUnits="userSpaceOnUse">
<stop offset="1" stop-color="#2871FF"/>
</linearGradient>
<clipPath id="clip0_587_8633">
<rect width="34" height="34" fill="white" transform="translate(32 34)"/>
</clipPath>
</defs>
</svg>
