<svg width="34" height="34" viewBox="0 0 34 34" fill="none" xmlns="http://www.w3.org/2000/svg">
<rect width="34" height="34" fill="#292929"/>
<g clip-path="url(#clip0_560_4719)">
<rect width="1440" height="5314" transform="translate(-156 -2268)" fill="#101010"/>
<g filter="url(#filter0_f_560_4719)">
<circle cx="564" cy="251" r="160" fill="#2871FF" fill-opacity="0.8"/>
</g>
<g filter="url(#filter1_b_560_4719)">
<path d="M335.6 74.7001V63.4001H340V55.7001H335.6V44.4001H340V36.1001H331.2V5.90009H340V-22.8999H66.5V-15.6999H47.3V-22.8999H9.7L-17 3.7001V143H-13.2V154.4H-17V164H320.1L340 144.2V74.7001H335.6Z" fill="white" fill-opacity="0.05"/>
<path d="M335.1 74.7001V75.2001H335.6H339.5V143.992L319.894 163.5H-16.5V154.9H-13.2H-12.7V154.4V143V142.5H-13.2H-16.5V3.90775L9.90656 -22.3999H46.8V-15.6999V-15.1999H47.3H66.5H67V-15.6999V-22.3999H339.5V5.40009H331.2H330.7V5.90009V36.1001V36.6001H331.2H339.5V43.9001H335.6H335.1V44.4001V55.7001V56.2001H335.6H339.5V62.9001H335.6H335.1V63.4001V74.7001Z" stroke="url(#paint0_linear_560_4719)" stroke-opacity="0.05"/>
</g>
<path d="M26.9167 2.83325H7.08333C3.17333 2.83325 0 6.00659 0 9.91659V24.0833C0 27.9933 3.17333 31.1666 7.08333 31.1666H26.9167C30.8267 31.1666 34 27.9933 34 24.0833V9.91659C34 6.00659 30.8267 2.83325 26.9167 2.83325ZM7.08333 5.66659H26.9167C29.2542 5.66659 31.1667 7.57909 31.1667 9.91659H2.83333C2.83333 7.57909 4.74583 5.66659 7.08333 5.66659ZM26.9167 28.3333H7.08333C4.74583 28.3333 2.83333 26.4208 2.83333 24.0833V12.7499H31.1667V24.0833C31.1667 26.4208 29.2542 28.3333 26.9167 28.3333ZM14.1667 16.9999C14.1667 17.7791 13.5292 18.4166 12.75 18.4166H11.3333V24.0833C11.3333 24.8624 10.6958 25.4999 9.91667 25.4999C9.1375 25.4999 8.5 24.8624 8.5 24.0833V18.4166H7.08333C6.30417 18.4166 5.66667 17.7791 5.66667 16.9999C5.66667 16.2208 6.30417 15.5833 7.08333 15.5833H12.75C13.5292 15.5833 14.1667 16.2208 14.1667 16.9999ZM28.3333 16.9999C28.3333 17.7791 27.6958 18.4166 26.9167 18.4166H18.4167C17.6375 18.4166 17 17.7791 17 16.9999C17 16.2208 17.6375 15.5833 18.4167 15.5833H26.9167C27.6958 15.5833 28.3333 16.2208 28.3333 16.9999ZM28.3333 22.6666C28.3333 23.4458 27.6958 24.0833 26.9167 24.0833H18.4167C17.6375 24.0833 17 23.4458 17 22.6666C17 21.8874 17.6375 21.2499 18.4167 21.2499H26.9167C27.6958 21.2499 28.3333 21.8874 28.3333 22.6666Z" fill="url(#paint1_linear_560_4719)"/>
<path fill-rule="evenodd" clip-rule="evenodd" d="M346.707 174C291.312 174 28.1884 174 -27.2062 174C-27.6057 174 -28.0051 173.7 -28.0051 173.3C-28.0051 128.033 -28.0051 42.8 -28.0051 -2.39999C-28.0051 -2.59999 -27.9386 -2.76666 -27.8054 -2.89999V-3C-22.7453 -8.13333 -17.7185 -13.2667 -12.725 -18.4C-12.6584 -18.4667 -12.5919 -18.5333 -12.5253 -18.6C-12.4587 -18.6667 -12.3921 -18.7333 -12.3255 -18.8C-7.46521 -23.8 -2.60487 -28.7667 2.25547 -33.7C2.45521 -33.9 2.65495 -34 2.85469 -34C48.1957 -34 301.299 -34 346.707 -34C347.106 -34 347.506 -33.6 347.506 -33.2C347.506 22.2667 347.506 117.767 347.506 173.3C347.506 173.5 347.439 173.667 347.306 173.8C347.173 173.933 346.973 174 346.707 174ZM3.1543 -32.5C-1.63946 -27.5667 -6.43322 -22.6667 -11.227 -17.8C-11.2936 -17.6667 -11.3601 -17.5667 -11.4267 -17.5C-11.4933 -17.4333 -11.5599 -17.3667 -11.6265 -17.3C-16.62 -12.2333 -21.5802 -7.16666 -26.5071 -2.1C-26.5071 42.7667 -26.5071 127.633 -26.5071 172.5C28.4214 172.5 291.079 172.5 346.008 172.5C346.008 117.5 346.008 22.5 346.008 -32.5C300.933 -32.5 48.1624 -32.5 3.1543 -32.5Z" fill="url(#paint2_linear_560_4719)"/>
<g filter="url(#filter2_f_560_4719)">
<circle cx="-378" cy="1144" r="389" fill="#2871FF"/>
</g>
</g>
<defs>
<filter id="filter0_f_560_4719" x="-96" y="-409" width="1320" height="1320" filterUnits="userSpaceOnUse" color-interpolation-filters="sRGB">
<feFlood flood-opacity="0" result="BackgroundImageFix"/>
<feBlend mode="normal" in="SourceGraphic" in2="BackgroundImageFix" result="shape"/>
<feGaussianBlur stdDeviation="250" result="effect1_foregroundBlur_560_4719"/>
</filter>
<filter id="filter1_b_560_4719" x="-62" y="-67.8999" width="447" height="276.9" filterUnits="userSpaceOnUse" color-interpolation-filters="sRGB">
<feFlood flood-opacity="0" result="BackgroundImageFix"/>
<feGaussianBlur in="BackgroundImageFix" stdDeviation="22.5"/>
<feComposite in2="SourceAlpha" operator="in" result="effect1_backgroundBlur_560_4719"/>
<feBlend mode="normal" in="SourceGraphic" in2="effect1_backgroundBlur_560_4719" result="shape"/>
</filter>
<filter id="filter2_f_560_4719" x="-1767" y="-245" width="2778" height="2778" filterUnits="userSpaceOnUse" color-interpolation-filters="sRGB">
<feFlood flood-opacity="0" result="BackgroundImageFix"/>
<feBlend mode="normal" in="SourceGraphic" in2="BackgroundImageFix" result="shape"/>
<feGaussianBlur stdDeviation="500" result="effect1_foregroundBlur_560_4719"/>
</filter>
<linearGradient id="paint0_linear_560_4719" x1="340" y1="43.5" x2="-17" y2="57" gradientUnits="userSpaceOnUse">
<stop stop-color="white"/>
<stop offset="1" stop-color="white"/>
</linearGradient>
<linearGradient id="paint1_linear_560_4719" x1="48.7769" y1="16.9999" x2="1.14078e-05" y2="16.9999" gradientUnits="userSpaceOnUse">
<stop stop-color="#44CD77"/>
<stop offset="1" stop-color="#2871FF"/>
</linearGradient>
<linearGradient id="paint2_linear_560_4719" x1="510.709" y1="70" x2="-28.005" y2="70" gradientUnits="userSpaceOnUse">
<stop stop-color="#44CD77"/>
<stop offset="1" stop-color="#2871FF"/>
</linearGradient>
<clipPath id="clip0_560_4719">
<rect width="1440" height="5314" fill="white" transform="translate(-156 -2268)"/>
</clipPath>
</defs>
</svg>
