<svg width="181" height="181" viewBox="0 0 181 181" fill="none" xmlns="http://www.w3.org/2000/svg">
<path d="M54.6012 112.63L80.6465 53.8129C82.4597 49.7612 85.7727 47.2988 90.2498 47.2988H91.2123C95.7006 47.2988 98.9017 49.75 100.715 53.8129L126.76 112.63C127.297 113.805 127.611 114.869 127.611 115.943C127.611 120.32 124.197 123.845 119.821 123.845C115.982 123.845 113.419 121.607 111.919 118.193L106.904 106.452H74.0205L68.7935 118.73C67.4056 121.931 64.6298 123.856 61.2161 123.856C56.9517 123.856 53.6387 120.443 53.6387 116.167C53.6387 114.992 54.064 113.817 54.6012 112.641V112.63ZM100.827 91.9239L90.4736 67.2665L80.1205 91.9239H100.827Z" fill="url(#paint0_linear_703_3300)"/>
<path d="M90.6299 0.76001C140.258 0.76001 180.63 41.1318 180.63 90.76C180.63 96.4123 176.052 100.99 170.4 100.99C164.748 100.99 160.17 96.4123 160.17 90.76C160.17 52.414 128.976 21.2202 90.6299 21.2202C52.2839 21.2202 21.09 52.414 21.09 90.76C21.09 129.106 52.2839 160.3 90.6299 160.3C96.2822 160.3 100.86 164.878 100.86 170.53C100.86 176.182 96.2822 180.76 90.6299 180.76C41.0017 180.76 0.629883 140.388 0.629883 90.76C0.629883 41.1318 41.0017 0.76001 90.6299 0.76001Z" fill="url(#paint1_linear_703_3300)"/>
<defs>
<linearGradient id="paint0_linear_703_3300" x1="53.6387" y1="85.5776" x2="127.622" y2="85.5776" gradientUnits="userSpaceOnUse">
<stop offset="0.54" stop-color="#FF251A"/>
<stop offset="1" stop-color="#FFDE00"/>
</linearGradient>
<linearGradient id="paint1_linear_703_3300" x1="0.629883" y1="90.76" x2="180.63" y2="90.76" gradientUnits="userSpaceOnUse">
<stop offset="0.54" stop-color="#FF251A"/>
<stop offset="1" stop-color="#FFDE00"/>
</linearGradient>
</defs>
</svg>
