<svg width="210" height="61" viewBox="0 0 210 61" fill="none" xmlns="http://www.w3.org/2000/svg">
<g style="mix-blend-mode:multiply">
<path d="M11.5653 55.9753C11.6938 55.5861 11.833 55.1916 12.0096 54.7944C12.1863 54.3972 12.3415 54.0268 12.5074 53.6833C12.6303 53.421 12.7688 53.1665 12.9222 52.921H15.2212L13.3933 48.7262H13.2836L8.3698 60.1674H2.81641L9.70797 44.6655H17.0465L23.9407 60.1621H18.3793L16.9341 56.9173H11.3138C11.3731 56.5972 11.4572 56.2823 11.5653 55.9753Z" fill="#8E8E8E"/>
<path d="M31.5345 54.921C31.5901 54.5995 31.6734 54.2834 31.7834 53.9763C31.9119 53.5862 32.0546 53.1926 32.2117 52.7954C32.3696 52.3982 32.5301 52.0278 32.6961 51.6843C32.8189 51.4221 32.9575 51.1675 33.1109 50.9221H39.1488C39.3929 50.8638 39.6089 50.7213 39.759 50.5195C39.8708 50.3309 39.9606 50.1301 40.0266 49.921V49.6714C39.9606 49.4623 39.8708 49.2614 39.759 49.0729C39.6089 48.8711 39.3929 48.7286 39.1488 48.6703H30.8681V60.1679H25.8848V44.666H42.9973C43.2605 44.6721 43.5141 44.7666 43.7173 44.9344C43.9634 45.1254 44.1822 45.3493 44.3676 45.6C44.564 45.8637 44.7225 46.1537 44.8387 46.4615C44.9488 46.7256 45.0105 47.0074 45.0207 47.2935V52.2667C45.0133 52.5574 44.9516 52.8442 44.8387 53.1121C44.7207 53.4149 44.5622 53.7002 44.3676 53.9602C44.1822 54.2108 43.9634 54.4348 43.7173 54.6258C43.5141 54.7936 43.2605 54.8881 42.9973 54.8942H41.3648L45.0742 60.1411H39.3147L35.6053 54.8942L31.5345 54.921Z" fill="#8E8E8E"/>
<path d="M55.1559 55.9758C55.2844 55.5875 55.4316 55.1939 55.5975 54.7949C55.7635 54.3959 55.9294 54.0255 56.0953 53.6837C56.2178 53.4208 56.3573 53.1662 56.5128 52.9215H58.8091L56.9839 48.7267H56.8715L51.9711 60.1679H46.4043L53.2986 44.666H60.6371L67.534 60.1626H61.9672L60.5274 56.9124H54.907C54.9648 56.594 55.048 56.2808 55.1559 55.9758Z" fill="#8E8E8E"/>
<path d="M69.4717 44.666H74.4577V56.1636H86.3353L85.1176 60.1625H71.1337C70.9206 60.1425 70.7137 60.0794 70.5255 59.977C70.3374 59.8746 70.1719 59.735 70.0391 59.5667C69.7359 59.2067 69.5394 58.7688 69.4717 58.3026V44.666Z" fill="#8E8E8E"/>
<path d="M93.4247 56.169V48.6703H88.2754V44.666H103.56V48.6649H98.4107V56.1636H103.56V60.1625H88.2754V56.1636L93.4247 56.169Z" fill="#8E8E8E"/>
<path d="M120.121 48.6703H110.754V60.1679H105.789V44.666H122.792C123.076 44.6855 123.345 44.8042 123.552 45.0015C123.832 45.2396 124.084 45.5098 124.301 45.8066C124.532 46.1118 124.726 46.4422 124.882 46.7916C125.021 47.0683 125.101 47.3707 125.118 47.68V60.1759H120.121V48.6703Z" fill="#8E8E8E"/>
<path d="M127.32 46.5445C127.386 46.0776 127.583 45.6391 127.888 45.2804C128.02 45.1113 128.185 44.9711 128.374 44.8682C128.562 44.7653 128.769 44.7019 128.982 44.6819H145.099V48.6808H132.304V56.1795H140.113V54.4028H134.961C135.017 54.0812 135.1 53.7651 135.21 53.4581C135.339 53.0689 135.478 52.6797 135.638 52.2933C135.799 51.9068 135.957 51.5391 136.123 51.1956C136.245 50.9323 136.384 50.6768 136.538 50.4307H145.102V60.1784H128.982C128.769 60.1584 128.562 60.0953 128.374 59.9929C128.186 59.8905 128.021 59.7509 127.888 59.5826C127.583 59.2233 127.387 58.7851 127.32 58.3185V46.5445Z" fill="#8E8E8E"/>
<path d="M152.299 56.169H161.666V44.666H166.649V60.1625H149.638C149.354 60.1442 149.085 60.0264 148.878 59.8297C148.6 59.595 148.348 59.3294 148.129 59.038C147.899 58.7423 147.702 58.4229 147.54 58.0852C147.399 57.8049 147.318 57.4974 147.305 57.1835V44.666H152.291L152.299 56.169Z" fill="#8E8E8E"/>
<path d="M177.33 55.9758C177.462 55.5875 177.61 55.1939 177.774 54.7949C177.938 54.3959 178.104 54.0255 178.272 53.6837C178.395 53.4215 178.533 53.167 178.687 52.9215H180.994L179.166 48.7267H179.056L174.153 60.1679H168.581L175.475 44.666H182.814L189.708 60.1626H184.144L182.704 56.9124H177.084C177.142 56.5943 177.224 56.2811 177.33 55.9758Z" fill="#8E8E8E"/>
<path d="M191.648 44.666H196.631V56.1636H208.512L207.294 60.1625H193.305C193.091 60.1425 192.885 60.0794 192.696 59.977C192.508 59.8746 192.343 59.735 192.21 59.5667C191.906 59.2074 191.709 58.7692 191.643 58.3026L191.648 44.666Z" fill="#8E8E8E"/>
</g>
<path d="M10.7436 55.0094C10.8747 54.6229 11.0112 54.2284 11.1879 53.8312C11.3645 53.434 11.5197 53.0636 11.6857 52.7201C11.8081 52.4568 11.9466 52.2013 12.1005 51.9552H14.3995L12.5715 47.763H12.4618L7.56679 59.2043H2L8.89426 43.7078H16.2328L23.1297 59.2043H17.5629L16.1311 55.9541H10.5108C10.5639 55.6337 10.6418 55.3178 10.7436 55.0094Z" stroke="white" stroke-width="2" stroke-miterlimit="10"/>
<path d="M30.7113 53.9547C30.7671 53.6332 30.8504 53.3171 30.9602 53.01C31.0887 52.6235 31.2278 52.229 31.3884 51.8318C31.549 51.4345 31.7069 51.0642 31.8728 50.7206C31.9952 50.4573 32.1338 50.2019 32.2877 49.9558H38.3255C38.5697 49.8974 38.7857 49.755 38.9357 49.5532C39.0491 49.3664 39.139 49.1663 39.2034 48.9574V48.7078C39.1385 48.4982 39.0486 48.2973 38.9357 48.1093C38.7857 47.9075 38.5697 47.765 38.3255 47.7067H30.0476V59.2043H25.0615V43.7078H42.1741C42.4373 43.7138 42.6908 43.8083 42.894 43.9761C43.141 44.1671 43.3607 44.391 43.5471 44.6417C43.7421 44.9058 43.8997 45.1958 44.0154 45.5033C44.1256 45.7673 44.1872 46.0492 44.1974 46.3352V51.3057C44.1904 51.5974 44.1286 51.8851 44.0154 52.1538C43.8979 52.4554 43.7403 52.7398 43.5471 52.9992C43.3608 53.2508 43.141 53.4756 42.894 53.6675C42.691 53.8357 42.4374 53.9302 42.1741 53.9359H40.5415L44.251 59.1855H38.4914L34.782 53.9359L30.7113 53.9547Z" stroke="white" stroke-width="2" stroke-miterlimit="10"/>
<path d="M54.3346 55.0094C54.4631 54.6229 54.6023 54.2284 54.7762 53.8312C54.9502 53.434 55.1108 53.0636 55.2767 52.7201C55.398 52.4562 55.5366 52.2007 55.6915 51.9552H57.9905L56.1626 47.763H56.0502L51.1498 59.2043H45.5723L52.4692 43.7078H59.8078L66.7154 59.2043H61.1486L59.7087 55.9541H54.0884C54.1434 55.6327 54.2257 55.3167 54.3346 55.0094Z" stroke="white" stroke-width="2" stroke-miterlimit="10"/>
<path d="M68.6484 43.7078H73.6345V55.2053H85.5147L84.2943 59.2043H70.3104C70.097 59.1842 69.8899 59.1208 69.7017 59.0179C69.5135 58.9151 69.3482 58.7748 69.2158 58.6058C68.9133 58.2465 68.7168 57.8096 68.6484 57.3444V43.7078Z" stroke="white" stroke-width="2" stroke-miterlimit="10"/>
<path d="M92.6014 55.2053V47.7067H87.4521V43.7078H102.737V47.7067H97.5875V55.2053H102.737V59.2043H87.4521V55.2053H92.6014Z" stroke="white" stroke-width="2" stroke-miterlimit="10"/>
<path d="M119.298 47.7067H109.931V59.2043H104.953V43.7078H121.956C122.241 43.7268 122.51 43.8444 122.719 44.0406C122.998 44.2787 123.249 44.549 123.465 44.8457C123.696 45.1515 123.891 45.4829 124.046 45.8334C124.185 46.1101 124.265 46.4125 124.282 46.7217V59.2177H119.298V47.7067Z" stroke="white" stroke-width="2" stroke-miterlimit="10"/>
<path d="M126.498 45.5677C126.564 45.1017 126.761 44.6642 127.065 44.3063C127.198 44.1372 127.363 43.997 127.551 43.8941C127.74 43.7912 127.947 43.7278 128.16 43.7078H144.277V47.7067H131.481V55.2053H139.291V53.4286H134.142C134.198 53.1074 134.282 52.7914 134.391 52.4839C134.519 52.0948 134.658 51.7056 134.819 51.3165C134.979 50.9273 135.137 50.5623 135.303 50.2215C135.425 49.9574 135.565 49.7019 135.721 49.4565H144.285V59.2043H128.16C127.947 59.1842 127.74 59.1208 127.551 59.0179C127.363 58.9151 127.198 58.7748 127.065 58.6058C126.761 58.2478 126.564 57.8103 126.498 57.3444V45.5677Z" stroke="white" stroke-width="2" stroke-miterlimit="10"/>
<path d="M151.476 55.2053H160.843V43.7078H165.829V59.2043H148.816C148.532 59.1846 148.263 59.067 148.056 58.8715C147.777 58.6375 147.527 58.3718 147.309 58.0797C147.08 57.7781 146.884 57.4523 146.726 57.1082C146.585 56.8265 146.505 56.5184 146.49 56.2037V43.7078H151.476V55.2053Z" stroke="white" stroke-width="2" stroke-miterlimit="10"/>
<path d="M176.509 55.0094C176.638 54.6229 176.777 54.2284 176.951 53.8312C177.125 53.434 177.283 53.0636 177.449 52.7201C177.571 52.4561 177.71 52.2005 177.866 51.9552H180.163L178.335 47.763H178.225L173.325 59.2043H167.758L174.652 43.7078H181.991L188.888 59.2043H183.321L181.881 55.9541H176.261C176.318 55.633 176.401 55.3171 176.509 55.0094Z" stroke="white" stroke-width="2" stroke-miterlimit="10"/>
<path d="M190.828 43.7078H195.811V55.2053H207.692L206.474 59.2043H192.504C192.29 59.1842 192.083 59.1208 191.895 59.0179C191.707 58.9151 191.541 58.7748 191.409 58.6058C191.105 58.2471 190.909 57.8099 190.842 57.3444L190.828 43.7078Z" stroke="white" stroke-width="2" stroke-miterlimit="10"/>
<path d="M10.7463 55.0096C10.8748 54.6232 11.0139 54.2287 11.1879 53.8315C11.3618 53.4342 11.5198 53.0639 11.6857 52.7203C11.8087 52.4569 11.9482 52.2014 12.1032 51.9554H14.3995L12.5742 47.7633H12.4618L7.56679 59.2045H2L8.89426 43.708H16.2328L23.1297 59.2045H17.5629L16.1311 55.9544H10.5108C10.5638 55.6336 10.6426 55.3177 10.7463 55.0096ZM30.7118 53.9549C30.7702 53.634 30.8534 53.3182 30.9607 53.0102C31.0892 52.6237 31.2283 52.2292 31.3889 51.832C31.5495 51.4348 31.7074 51.0644 31.8733 50.7209C31.9964 50.4574 32.1358 50.2019 32.2908 49.956H38.326C38.5713 49.9003 38.7881 49.7573 38.9362 49.5534C39.0496 49.3666 39.1395 49.1665 39.2038 48.9576V48.708C39.1389 48.4984 39.0491 48.2975 38.9362 48.1095C38.7862 47.9077 38.5702 47.7652 38.326 47.7069H30.0481V59.2045H25.062V43.708H42.1773C42.4403 43.7149 42.6936 43.8093 42.8972 43.9764C43.1427 44.1681 43.3614 44.3919 43.5475 44.642C43.7434 44.906 43.902 45.1959 44.0186 45.5035C44.127 45.768 44.1877 46.0497 44.1979 46.3355V51.3059C44.1906 51.5973 44.1298 51.8848 44.0186 52.1541C43.9001 52.4557 43.7416 52.7401 43.5475 52.9995C43.3614 53.2503 43.1427 53.475 42.8972 53.6677C42.6937 53.835 42.4403 53.9294 42.1773 53.9361H40.542L44.2541 59.1857H38.4919L34.7825 53.9361L30.7118 53.9549ZM54.3332 55.0096C54.4617 54.6232 54.6008 54.2287 54.7775 53.8315C54.9541 53.4342 55.1093 53.0639 55.2753 52.7203C55.3977 52.457 55.5362 52.2016 55.6901 51.9554H57.9891L56.1612 47.7633H56.0487L51.1484 59.2045H45.5709L52.4678 43.708H59.8063L66.714 59.2045H61.1472L59.7073 55.9544H54.087C54.1445 55.6335 54.2268 55.3177 54.3332 55.0096ZM68.649 43.708H73.635V55.2056H85.5153L84.2949 59.2045H70.311C70.0976 59.1845 69.8905 59.1211 69.7023 59.0182C69.5141 58.9153 69.3487 58.775 69.2163 58.606C68.9138 58.2467 68.7173 57.8098 68.649 57.3446V43.708ZM92.6022 55.2056V47.7069H87.4529V43.708H102.738V47.7069H97.5882V55.2056H102.738V59.2045H87.4529V55.2056H92.6022ZM119.299 47.7069H109.932V59.2045H104.954V43.708H121.956C122.241 43.727 122.511 43.8447 122.719 44.0408C122.999 44.2789 123.249 44.5492 123.466 44.8459C123.697 45.1517 123.891 45.4831 124.047 45.8336C124.185 46.1103 124.265 46.4127 124.282 46.7219V59.2179H119.299V47.7069ZM126.498 45.5599C126.565 45.0943 126.762 44.6571 127.065 44.2984C127.198 44.1294 127.363 43.9892 127.551 43.8863C127.74 43.7834 127.947 43.72 128.16 43.7H144.277V47.6989H131.481V55.1975H139.291V53.4208H134.142C134.2 53.0998 134.283 52.784 134.391 52.4761C134.519 52.0869 134.658 51.6978 134.819 51.3086C134.979 50.9195 135.137 50.5545 135.303 50.2136C135.426 49.9501 135.566 49.6947 135.721 49.4487H144.285V59.1964H128.16C127.947 59.1764 127.74 59.113 127.551 59.0101C127.363 58.9072 127.198 58.767 127.065 58.5979C126.762 58.2393 126.565 57.8021 126.498 57.3365V45.5599ZM151.476 55.1975H160.844V43.708H165.83V59.2045H148.819C148.534 59.1854 148.264 59.0678 148.056 58.8717C147.777 58.6377 147.527 58.372 147.309 58.08C147.08 57.7789 146.885 57.453 146.729 57.1084C146.587 56.8272 146.506 56.5188 146.493 56.204V43.708H151.476V55.1975ZM176.511 55.0016C176.639 54.6151 176.779 54.2206 176.953 53.8234C177.126 53.4262 177.287 53.0558 177.453 52.7123C177.574 52.4484 177.713 52.1929 177.868 51.9474H180.167L178.339 47.7552H178.226L173.326 59.1964H167.759L174.654 43.7H181.992L188.889 59.1964H183.322L181.882 55.9463H176.262C176.318 55.6276 176.402 55.3142 176.511 55.0096V55.0016ZM190.827 43.7H195.813V55.1975H207.693L206.473 59.1964H192.502C192.289 59.1764 192.082 59.113 191.893 59.0101C191.705 58.9072 191.54 58.767 191.407 58.5979C191.105 58.2386 190.908 57.8018 190.84 57.3365L190.827 43.7Z" fill="url(#paint0_linear_703_3266)"/>
<path d="M80.2034 15.788L77.5056 18.4933L80.2034 21.1986C80.5585 21.6139 80.7445 22.1483 80.7241 22.695C80.7036 23.2418 80.4784 23.7607 80.0933 24.1482C79.7082 24.5358 79.1915 24.7634 78.6464 24.7858C78.1013 24.8082 77.5678 24.6236 77.1524 24.2689L74.4546 21.5636L71.7435 24.2689C71.3331 24.6565 70.7883 24.8686 70.2247 24.8601C69.661 24.8516 69.1228 24.6233 68.7242 24.2236C68.3256 23.8239 68.098 23.2842 68.0895 22.719C68.0811 22.1537 68.2926 21.6074 68.6791 21.1959L71.3768 18.4906L68.6791 15.788C68.4541 15.5921 68.2719 15.3518 68.1436 15.0822C68.0154 14.8125 67.944 14.5192 67.9339 14.2206C67.9237 13.922 67.9751 13.6246 68.0847 13.3468C68.1943 13.069 68.3598 12.8168 68.5709 12.606C68.782 12.3953 69.0342 12.2304 69.3117 12.1217C69.5892 12.013 69.8861 11.9628 70.1838 11.9743C70.4815 11.9858 70.7736 12.0587 71.042 12.1884C71.3103 12.3182 71.5491 12.502 71.7435 12.7284L74.4412 15.4122L77.1524 12.7284C77.5684 12.386 78.0965 12.2111 78.634 12.2375C79.1715 12.264 79.68 12.49 80.0606 12.8716C80.4411 13.2532 80.6665 13.7632 80.6929 14.3022C80.7193 14.8412 80.5448 15.3708 80.2034 15.788ZM112.587 21.4455C112.795 21.7396 112.906 22.0914 112.906 22.452C112.906 23.3913 112.164 23.9979 111.236 24.0301C111.211 24.0301 111.19 23.8744 111.166 23.8744H99.366C99.2054 23.8744 99.0422 24.0167 98.8816 23.9737C98.6648 23.949 98.4568 23.8735 98.2745 23.7532C98.0922 23.6329 97.9408 23.4712 97.8325 23.2813C97.7107 23.0745 97.6349 22.8438 97.6103 22.6049C97.6103 22.5486 97.6103 22.4976 97.6103 22.4412C97.6101 22.2908 97.6299 22.1409 97.6692 21.9957C97.7098 21.8397 97.7729 21.6905 97.8565 21.5529L103.744 11.314C103.897 11.0499 104.116 10.8305 104.379 10.6781C104.643 10.5256 104.942 10.4453 105.246 10.4453C105.55 10.4453 105.849 10.5256 106.113 10.6781C106.376 10.8305 106.595 11.0499 106.747 11.314L112.587 21.4455ZM108.163 20.9946L105.254 15.949L102.345 20.9946H108.163Z" fill="url(#paint1_linear_703_3266)"/>
<path d="M135.969 0.178475C132.824 0.181146 129.738 1.03347 127.035 2.64582C124.333 4.25817 122.113 6.571 120.61 9.34113C119.109 6.56932 116.89 4.25502 114.188 2.64236C111.485 1.0297 108.398 0.178467 105.253 0.178467C102.108 0.178467 99.021 1.0297 96.3182 2.64236C93.6153 4.25502 91.3966 6.56932 89.8961 9.34113C88.4212 6.62014 86.2539 4.33946 83.6147 2.73108C80.9755 1.1227 77.9586 0.244018 74.8708 0.184413C71.7831 0.124808 68.7347 0.886405 66.0357 2.39174C63.3368 3.89707 61.0836 6.09242 59.5053 8.75447C57.9271 11.4165 57.0801 14.4503 57.0506 17.5471C57.0211 20.644 57.81 23.6934 59.3372 26.3852C60.8644 29.077 63.0754 31.3152 65.7451 32.872C68.4149 34.4288 71.4482 35.2487 74.5366 35.2483C75.098 35.2285 75.6298 34.9909 76.02 34.5856C76.4102 34.1804 76.6282 33.639 76.6282 33.0757C76.6282 32.5124 76.4102 31.971 76.02 31.5658C75.6298 31.1605 75.098 30.9229 74.5366 30.9031C71.9354 30.9031 69.3927 30.1296 67.23 28.6805C65.0672 27.2313 63.3815 25.1716 62.3861 22.7617C61.3907 20.3518 61.1303 17.7001 61.6377 15.1418C62.1452 12.5835 63.3977 10.2335 65.237 8.3891C67.0763 6.54467 69.4197 5.2886 71.9708 4.77972C74.522 4.27084 77.1663 4.53202 79.5694 5.53022C81.9726 6.52842 84.0265 8.2188 85.4716 10.3876C86.9168 12.5565 87.6881 15.1063 87.6881 17.7147C87.6914 17.9213 87.7238 18.1265 87.7844 18.324C87.9472 22.8629 89.8581 27.1619 93.1157 30.3175C96.3732 33.473 100.724 35.2395 105.253 35.2456C105.544 35.2559 105.834 35.2072 106.106 35.1027C106.377 34.9981 106.625 34.8397 106.835 34.637C107.044 34.4342 107.211 34.1912 107.325 33.9225C107.438 33.6539 107.497 33.3649 107.497 33.073C107.497 32.7811 107.438 32.4922 107.325 32.2235C107.211 31.9548 107.044 31.7118 106.835 31.5091C106.625 31.3063 106.377 31.1479 106.106 31.0434C105.834 30.9388 105.544 30.8902 105.253 30.9005C102.652 30.9005 100.109 30.127 97.9463 28.6778C95.7835 27.2286 94.0979 25.1689 93.1025 22.759C92.1071 20.3492 91.8466 17.6974 92.3541 15.1391C92.8615 12.5808 94.1141 10.2309 95.9534 8.38642C97.7926 6.54199 100.136 5.28591 102.687 4.77703C105.238 4.26815 107.883 4.52933 110.286 5.52753C112.689 6.52573 114.743 8.21612 116.188 10.3849C117.633 12.5538 118.404 15.1036 118.404 17.712C118.408 17.9196 118.44 18.1256 118.501 18.324C118.666 22.8608 120.578 27.1568 123.836 30.3096C127.093 33.4625 131.442 35.2269 135.969 35.2322C136.531 35.2124 137.062 34.9748 137.453 34.5695C137.843 34.1643 138.061 33.6229 138.061 33.0596C138.061 32.4963 137.843 31.9549 137.453 31.5497C137.062 31.1444 136.531 30.9068 135.969 30.887C133.368 30.887 130.825 30.1135 128.663 28.6644C126.5 27.2152 124.814 25.1555 123.819 22.7456C122.823 20.3357 122.563 17.684 123.07 15.1257C123.578 12.5674 124.83 10.2174 126.67 8.373C128.509 6.52857 130.852 5.27249 133.404 4.76362C135.955 4.25474 138.599 4.51592 141.002 5.51412C143.405 6.51232 145.459 8.2027 146.904 10.3715C148.349 12.5403 149.121 15.0902 149.121 17.6986C149.14 18.2616 149.377 18.7949 149.782 19.1862C150.186 19.5775 150.725 19.7962 151.287 19.7962C151.849 19.7962 152.389 19.5775 152.793 19.1862C153.197 18.7949 153.434 18.2616 153.454 17.6986C153.445 13.0525 151.599 8.59951 148.322 5.31546C145.044 2.03141 140.602 0.184148 135.969 0.178475Z" fill="url(#paint2_linear_703_3266)"/>
<path d="M129.771 22.5347L134.401 12.0517C134.534 11.7061 134.769 11.4095 135.074 11.2018C135.38 10.994 135.742 10.8851 136.111 10.8895H136.28C136.646 10.8849 137.006 10.994 137.308 11.2021C137.61 11.4102 137.841 11.7069 137.969 12.0517L142.601 22.5347C142.692 22.7187 142.743 22.92 142.751 23.1252C142.754 23.3091 142.72 23.4917 142.651 23.6624C142.583 23.833 142.481 23.9884 142.353 24.1194C142.224 24.2505 142.071 24.3546 141.902 24.4258C141.732 24.497 141.551 24.5339 141.368 24.5342C140.682 24.5342 140.227 24.1343 139.962 23.5251L139.071 21.4317H133.226L132.284 23.6217C132.178 23.8912 131.994 24.1224 131.756 24.2852C131.517 24.448 131.235 24.5348 130.946 24.5342C130.768 24.5342 130.592 24.4987 130.427 24.4295C130.263 24.3604 130.115 24.2592 129.99 24.1317C129.865 24.0043 129.767 23.8531 129.702 23.6872C129.636 23.5213 129.604 23.3439 129.608 23.1654C129.618 22.9462 129.674 22.7314 129.771 22.5347ZM137.987 18.8445L136.149 14.4483L134.307 18.8445H137.987Z" fill="url(#paint3_linear_703_3266)" stroke="url(#paint4_linear_703_3266)" stroke-width="3" stroke-miterlimit="10"/>
<defs>
<linearGradient id="paint0_linear_703_3266" x1="2" y1="43.7" x2="4.32817" y2="74.5602" gradientUnits="userSpaceOnUse">
<stop stop-color="white"/>
<stop offset="1" stop-color="#71717A"/>
</linearGradient>
<linearGradient id="paint1_linear_703_3266" x1="87.9541" y1="17.6774" x2="139.843" y2="17.6774" gradientUnits="userSpaceOnUse">
<stop stop-color="#8AF300"/>
<stop offset="0.36" stop-color="#56D757"/>
<stop offset="0.52" stop-color="#00A8E7"/>
</linearGradient>
<linearGradient id="paint2_linear_703_3266" x1="61.3288" y1="17.712" x2="160.84" y2="17.712" gradientUnits="userSpaceOnUse">
<stop stop-color="#8AF300"/>
<stop offset="0.45" stop-color="#00A8E7"/>
<stop offset="0.63" stop-color="#FF251A"/>
<stop offset="1" stop-color="#FFDE00"/>
</linearGradient>
<linearGradient id="paint3_linear_703_3266" x1="129.6" y1="17.7119" x2="142.751" y2="17.7119" gradientUnits="userSpaceOnUse">
<stop offset="0.07" stop-color="#FF251A"/>
<stop offset="1" stop-color="#FFDE00"/>
</linearGradient>
<linearGradient id="paint4_linear_703_3266" x1="129.198" y1="17.7119" x2="143.153" y2="17.7119" gradientUnits="userSpaceOnUse">
<stop offset="0.07" stop-color="#FF251A"/>
<stop offset="1" stop-color="#FFDE00"/>
</linearGradient>
</defs>
</svg>
