<svg width="97" height="36" viewBox="0 0 97 36" fill="none" xmlns="http://www.w3.org/2000/svg">
<path d="M23.2034 15.788L20.5056 18.4933L23.2034 21.1986C23.5585 21.6139 23.7445 22.1483 23.7241 22.695C23.7036 23.2418 23.4784 23.7607 23.0933 24.1482C22.7082 24.5358 22.1915 24.7634 21.6464 24.7858C21.1013 24.8082 20.5678 24.6236 20.1524 24.2689L17.4546 21.5636L14.7435 24.2689C14.3331 24.6565 13.7883 24.8686 13.2247 24.8601C12.661 24.8516 12.1228 24.6233 11.7242 24.2236C11.3256 23.8239 11.098 23.2842 11.0895 22.719C11.0811 22.1537 11.2926 21.6074 11.6791 21.1959L14.3768 18.4906L11.6791 15.788C11.4541 15.5921 11.2719 15.3518 11.1436 15.0822C11.0154 14.8125 10.944 14.5192 10.9339 14.2206C10.9237 13.922 10.9751 13.6246 11.0847 13.3468C11.1943 13.069 11.3598 12.8168 11.5709 12.606C11.782 12.3953 12.0342 12.2304 12.3117 12.1217C12.5892 12.013 12.8861 11.9628 13.1838 11.9743C13.4815 11.9858 13.7736 12.0587 14.042 12.1884C14.3103 12.3182 14.5491 12.502 14.7435 12.7284L17.4412 15.4122L20.1524 12.7284C20.5684 12.386 21.0965 12.2111 21.634 12.2375C22.1715 12.264 22.68 12.49 23.0606 12.8716C23.4411 13.2532 23.6665 13.7632 23.6929 14.3022C23.7193 14.8412 23.5448 15.3708 23.2034 15.788ZM55.5871 21.4455C55.7951 21.7396 55.9064 22.0914 55.9056 22.452C55.9056 23.3913 55.1643 23.9979 54.2356 24.0301C54.2115 24.0301 54.1901 23.8744 54.166 23.8744H42.366C42.2054 23.8744 42.0422 24.0167 41.8816 23.9737C41.6648 23.949 41.4568 23.8735 41.2745 23.7532C41.0922 23.6329 40.9408 23.4712 40.8325 23.2813C40.7107 23.0745 40.6349 22.8438 40.6103 22.6049C40.6103 22.5486 40.6103 22.4976 40.6103 22.4412C40.6101 22.2908 40.6299 22.1409 40.6692 21.9957C40.7098 21.8397 40.7729 21.6905 40.8565 21.5529L46.7445 11.314C46.8968 11.0499 47.1157 10.8305 47.3792 10.6781C47.6428 10.5256 47.9417 10.4453 48.2459 10.4453C48.5502 10.4453 48.8491 10.5256 49.1126 10.6781C49.3762 10.8305 49.5951 11.0499 49.7474 11.314L55.5871 21.4455ZM51.1631 20.9946L48.254 15.949L45.3448 20.9946H51.1631Z" fill="url(#paint0_linear_703_3293)"/>
<path d="M78.9692 0.178475C75.8243 0.181146 72.7383 1.03347 70.0354 2.64582C67.3326 4.25817 65.1129 6.571 63.6097 9.34113C62.1092 6.56932 59.8905 4.25502 57.1876 2.64236C54.4848 1.0297 51.398 0.178467 48.2529 0.178467C45.1078 0.178467 42.021 1.0297 39.3182 2.64236C36.6153 4.25502 34.3966 6.56932 32.8961 9.34113C31.4212 6.62014 29.2539 4.33946 26.6147 2.73108C23.9755 1.1227 20.9586 0.244018 17.8708 0.184413C14.7831 0.124808 11.7347 0.886405 9.03573 2.39174C6.33677 3.89707 4.08356 6.09242 2.50532 8.75447C0.927085 11.4165 0.0801276 14.4503 0.0506039 17.5471C0.0210802 20.644 0.810046 23.6934 2.33724 26.3852C3.86444 29.077 6.07538 31.3152 8.74514 32.872C11.4149 34.4288 14.4482 35.2487 17.5366 35.2483C18.098 35.2285 18.6298 34.9909 19.02 34.5856C19.4102 34.1804 19.6282 33.639 19.6282 33.0757C19.6282 32.5124 19.4102 31.971 19.02 31.5658C18.6298 31.1605 18.098 30.9229 17.5366 30.9031C14.9354 30.9031 12.3927 30.1296 10.23 28.6805C8.0672 27.2313 6.38154 25.1716 5.38613 22.7617C4.39072 20.3518 4.13028 17.7001 4.63773 15.1418C5.14518 12.5835 6.39774 10.2335 8.23702 8.3891C10.0763 6.54467 12.4197 5.2886 14.9708 4.77972C17.522 4.27084 20.1663 4.53202 22.5694 5.53022C24.9726 6.52842 27.0265 8.2188 28.4716 10.3876C29.9168 12.5565 30.6881 15.1063 30.6881 17.7147C30.6914 17.9213 30.7238 18.1265 30.7844 18.324C30.9472 22.8629 32.8581 27.1619 36.1157 30.3175C39.3732 33.473 43.7237 35.2395 48.2529 35.2456C48.5438 35.2559 48.8338 35.2072 49.1056 35.1027C49.3774 34.9981 49.6254 34.8397 49.8348 34.637C50.0442 34.4342 50.2108 34.1912 50.3245 33.9226C50.4383 33.6539 50.4969 33.3649 50.4969 33.073C50.4969 32.7811 50.4383 32.4922 50.3245 32.2235C50.2108 31.9548 50.0442 31.7118 49.8348 31.5091C49.6254 31.3063 49.3774 31.1479 49.1056 31.0434C48.8338 30.9388 48.5438 30.8902 48.2529 30.9005C45.6518 30.9005 43.1091 30.127 40.9463 28.6778C38.7835 27.2286 37.0979 25.1689 36.1025 22.759C35.1071 20.3492 34.8466 17.6974 35.3541 15.1391C35.8615 12.5808 37.1141 10.2309 38.9534 8.38642C40.7926 6.54199 43.136 5.28591 45.6872 4.77703C48.2383 4.26815 50.8826 4.52933 53.2858 5.52753C55.6889 6.52573 57.7429 8.21613 59.188 10.3849C60.6331 12.5538 61.4044 15.1036 61.4044 17.712C61.4075 17.9196 61.4399 18.1256 61.5008 18.324C61.6662 22.8608 63.5784 27.1568 66.8358 30.3096C70.0931 33.4625 74.4421 35.2269 78.9692 35.2322C79.5307 35.2124 80.0625 34.9748 80.4527 34.5695C80.8428 34.1643 81.0609 33.6229 81.0609 33.0596C81.0609 32.4963 80.8428 31.9549 80.4527 31.5497C80.0625 31.1444 79.5307 30.9068 78.9692 30.887C76.3681 30.887 73.8254 30.1135 71.6626 28.6644C69.4999 27.2152 67.8142 25.1555 66.8188 22.7456C65.8234 20.3357 65.563 17.684 66.0704 15.1257C66.5779 12.5674 67.8304 10.2174 69.6697 8.373C71.509 6.52857 73.8524 5.27249 76.4035 4.76362C78.9546 4.25474 81.599 4.51592 84.0021 5.51412C86.4052 6.51232 88.4592 8.2027 89.9043 10.3715C91.3494 12.5403 92.1208 15.0902 92.1208 17.6986C92.1405 18.2616 92.3774 18.7949 92.7815 19.1862C93.1857 19.5775 93.7255 19.7962 94.2873 19.7962C94.849 19.7962 95.3888 19.5775 95.793 19.1862C96.1971 18.7949 96.434 18.2616 96.4537 17.6986C96.4445 13.0525 94.599 8.59951 91.3217 5.31546C88.0443 2.03141 83.6024 0.184148 78.9692 0.178475Z" fill="url(#paint1_linear_703_3293)"/>
<path d="M72.7709 22.5347L77.401 12.0517C77.5337 11.7061 77.7687 11.4095 78.0744 11.2018C78.3801 10.994 78.7419 10.8851 79.1112 10.8895H79.2798C79.6465 10.8849 80.0056 10.994 80.3079 11.2021C80.6103 11.4102 80.841 11.7069 80.9686 12.0517L85.6013 22.5347C85.6923 22.7187 85.7433 22.92 85.7512 23.1252C85.7537 23.3091 85.7197 23.4917 85.6513 23.6624C85.5829 23.833 85.4815 23.9884 85.3528 24.1194C85.2241 24.2505 85.0707 24.3546 84.9016 24.4258C84.7325 24.497 84.5509 24.5339 84.3675 24.5342C83.6824 24.5342 83.2274 24.1343 82.9624 23.5251L82.0712 21.4317H76.2261L75.284 23.6217C75.1785 23.8912 74.9943 24.1224 74.7555 24.2852C74.5168 24.448 74.2346 24.5348 73.9459 24.5342C73.7679 24.5342 73.5916 24.4987 73.4275 24.4295C73.2634 24.3604 73.1147 24.2592 72.99 24.1317C72.8654 24.0043 72.7674 23.8531 72.7018 23.6872C72.6361 23.5213 72.6041 23.3439 72.6077 23.1654C72.618 22.9462 72.6736 22.7314 72.7709 22.5347ZM80.9873 18.8445L79.1487 14.4483L77.3073 18.8445H80.9873Z" fill="url(#paint2_linear_703_3293)" stroke="url(#paint3_linear_703_3293)" stroke-width="3" stroke-miterlimit="10"/>
<defs>
<linearGradient id="paint0_linear_703_3293" x1="30.9541" y1="17.6774" x2="82.843" y2="17.6774" gradientUnits="userSpaceOnUse">
<stop stop-color="#8AF300"/>
<stop offset="0.36" stop-color="#56D757"/>
<stop offset="0.52" stop-color="#00A8E7"/>
</linearGradient>
<linearGradient id="paint1_linear_703_3293" x1="4.32882" y1="17.712" x2="103.84" y2="17.712" gradientUnits="userSpaceOnUse">
<stop stop-color="#8AF300"/>
<stop offset="0.45" stop-color="#00A8E7"/>
<stop offset="0.63" stop-color="#FF251A"/>
<stop offset="1" stop-color="#FFDE00"/>
</linearGradient>
<linearGradient id="paint2_linear_703_3293" x1="72.5997" y1="17.7119" x2="85.7512" y2="17.7119" gradientUnits="userSpaceOnUse">
<stop offset="0.07" stop-color="#FF251A"/>
<stop offset="1" stop-color="#FFDE00"/>
</linearGradient>
<linearGradient id="paint3_linear_703_3293" x1="72.1982" y1="17.7119" x2="86.1526" y2="17.7119" gradientUnits="userSpaceOnUse">
<stop offset="0.07" stop-color="#FF251A"/>
<stop offset="1" stop-color="#FFDE00"/>
</linearGradient>
</defs>
</svg>
