<svg width="52" height="53" viewBox="0 0 52 53" fill="none" xmlns="http://www.w3.org/2000/svg">
<rect y="0.300049" width="52" height="52" rx="16" fill="white" fill-opacity="0.07"/>
<rect x="0.5" y="0.800049" width="51" height="51" rx="15.5" stroke="url(#paint0_linear_762_1233)" stroke-opacity="0.23"/>
<g clip-path="url(#clip0_762_1233)">
<path d="M23 36.3V35.3C23 33.646 21.654 32.3 20 32.3H19.627C20.29 31.047 21 29.536 21 28.8C21 27.419 19.881 26.35 18.5 26.35C17.119 26.35 16 27.419 16 28.8C16 29.536 16.71 31.047 17.373 32.3H17C15.346 32.3 14 33.646 14 35.3V36.3C13.447 36.3 13 36.747 13 37.3C13 37.853 13.447 38.3 14 38.3H23C23.553 38.3 24 37.853 24 37.3C24 36.747 23.553 36.3 23 36.3ZM21 36.3H16V35.3C16 34.748 16.448 34.3 17 34.3H20C20.552 34.3 21 34.748 21 35.3V36.3ZM29 25.3H25C24.447 25.3 24 24.853 24 24.3C24 23.747 24.447 23.3 25 23.3H29C29.553 23.3 30 23.747 30 24.3C30 24.853 29.553 25.3 29 25.3ZM37 19.3V33.3C37 36.057 34.757 38.3 32 38.3H27C26.447 38.3 26 37.853 26 37.3C26 36.747 26.447 36.3 27 36.3H32C33.654 36.3 35 34.954 35 33.3V19.3C35 17.646 33.654 16.3 32 16.3H24C22.346 16.3 21 17.646 21 19.3V23.351C21 23.904 20.553 24.351 20 24.351C19.447 24.351 19 23.904 19 23.351V19.3C19 16.543 21.243 14.3 24 14.3H32C34.757 14.3 37 16.543 37 19.3ZM26 30.8C26 32.73 27.57 34.3 29.5 34.3C31.43 34.3 33 32.73 33 30.8C33 28.87 31.43 27.3 29.5 27.3C27.57 27.3 26 28.87 26 30.8ZM31 30.8C31 31.627 30.327 32.3 29.5 32.3C28.673 32.3 28 31.627 28 30.8C28 29.973 28.673 29.3 29.5 29.3C30.327 29.3 31 29.973 31 30.8ZM32 20.3C32 20.853 31.553 21.3 31 21.3H25C24.447 21.3 24 20.853 24 20.3C24 19.747 24.447 19.3 25 19.3H31C31.553 19.3 32 19.747 32 20.3Z" fill="white"/>
</g>
<defs>
<linearGradient id="paint0_linear_762_1233" x1="26" y1="0.300049" x2="26" y2="52.3" gradientUnits="userSpaceOnUse">
<stop stop-color="white"/>
<stop offset="1" stop-color="white" stop-opacity="0"/>
</linearGradient>
<clipPath id="clip0_762_1233">
<rect width="24" height="24" fill="white" transform="translate(13 14.3)"/>
</clipPath>
</defs>
</svg>
