<svg width="52" height="53" viewBox="0 0 52 53" fill="none" xmlns="http://www.w3.org/2000/svg">
<rect y="0.300049" width="52" height="52" rx="16" fill="white" fill-opacity="0.07"/>
<rect x="0.5" y="0.800049" width="51" height="51" rx="15.5" stroke="url(#paint0_linear_762_1240)" stroke-opacity="0.23"/>
<path d="M35.1698 34.056C35.6938 33.265 35.9998 32.318 35.9998 31.3C35.9998 28.543 33.7568 26.3 30.9998 26.3C28.2429 26.3 25.9999 28.543 25.9999 31.3C25.9999 34.057 28.2429 36.3 30.9998 36.3C32.0178 36.3 32.9648 35.994 33.7558 35.47L36.2928 38.007C36.4878 38.202 36.7438 38.3 36.9998 38.3C37.2558 38.3 37.5118 38.202 37.7068 38.007C38.0977 37.616 38.0977 36.984 37.7068 36.593L35.1698 34.056ZM27.9999 31.3C27.9999 29.646 29.3458 28.3 30.9998 28.3C32.6538 28.3 33.9998 29.646 33.9998 31.3C33.9998 32.954 32.6538 34.3 30.9998 34.3C29.3458 34.3 27.9999 32.954 27.9999 31.3ZM19.9999 18.8C19.9999 19.628 19.3279 20.3 18.5 20.3C17.672 20.3 17 19.628 17 18.8C17 17.972 17.672 17.3 18.5 17.3C19.3279 17.3 19.9999 17.972 19.9999 18.8ZM23.9999 18.8C23.9999 19.628 23.3279 20.3 22.4999 20.3C21.6719 20.3 20.9999 19.628 20.9999 18.8C20.9999 17.972 21.6719 17.3 22.4999 17.3C23.3279 17.3 23.9999 17.972 23.9999 18.8ZM32.9998 14.3H18.9999C16.243 14.3 14 16.543 14 19.3V31.3C14 34.057 16.243 36.3 18.9999 36.3H23.9999C24.5529 36.3 24.9999 35.853 24.9999 35.3C24.9999 34.747 24.5529 34.3 23.9999 34.3H18.9999C17.346 34.3 16 32.954 16 31.3V23.3H35.9998V26.3C35.9998 26.852 36.4468 27.3 36.9998 27.3C37.5528 27.3 37.9998 26.852 37.9998 26.3V19.3C37.9998 16.543 35.7568 14.3 32.9998 14.3ZM16 21.3V19.3C16 17.646 17.346 16.3 18.9999 16.3H32.9998C34.6538 16.3 35.9998 17.646 35.9998 19.3V21.3H16Z" fill="white"/>
<defs>
<linearGradient id="paint0_linear_762_1240" x1="26" y1="0.300049" x2="26" y2="52.3" gradientUnits="userSpaceOnUse">
<stop stop-color="white"/>
<stop offset="1" stop-color="white" stop-opacity="0"/>
</linearGradient>
</defs>
</svg>
