<svg width="19" height="19" viewBox="0 0 19 19" fill="none" xmlns="http://www.w3.org/2000/svg">
<path fill-rule="evenodd" clip-rule="evenodd" d="M6.6875 3.48584L15.125 3.48584C15.2742 3.48584 15.4173 3.5451 15.5227 3.65059C15.6282 3.75608 15.6875 3.89916 15.6875 4.04834V12.4858C15.6875 12.7965 15.4357 13.0483 15.125 13.0483C14.8143 13.0483 14.5625 12.7965 14.5625 12.4858V5.40634L4.27275 15.6961C4.05308 15.9158 3.69692 15.9158 3.47725 15.6961C3.25758 15.4764 3.25758 15.1203 3.47725 14.9006L13.767 4.61084L6.6875 4.61084C6.37684 4.61084 6.125 4.359 6.125 4.04834C6.125 3.73768 6.37684 3.48584 6.6875 3.48584Z" fill="url(#paint0_linear_636_55367)"/>
<defs>
<linearGradient id="paint0_linear_636_55367" x1="21.0659" y1="9.67334" x2="3.3125" y2="9.67334" gradientUnits="userSpaceOnUse">
<stop stop-color="#44CD77"/>
<stop offset="1" stop-color="#2871FF"/>
</linearGradient>
</defs>
</svg>
