<svg width="42" height="42" viewBox="0 0 42 42" fill="none" xmlns="http://www.w3.org/2000/svg">
<g filter="url(#filter0_bi_698_3167)">
<mask id="path-1-inside-1_698_3167" fill="white">
<path fill-rule="evenodd" clip-rule="evenodd" d="M0 0H33.6357L42 8.36426V42H9.36367L0 32.6363V0Z"/>
</mask>
<path d="M33.6357 0L34.3428 -0.707107L34.05 -1H33.6357V0ZM0 0V-1H-1V0H0ZM42 8.36426H43V7.95004L42.7071 7.65715L42 8.36426ZM42 42V43H43V42H42ZM9.36367 42L8.65656 42.7071L8.94945 43H9.36367V42ZM0 32.6363H-1V33.0506L-0.707107 33.3434L0 32.6363ZM33.6357 -1H0V1H33.6357V-1ZM42.7071 7.65715L34.3428 -0.707107L32.9286 0.707107L41.2929 9.07136L42.7071 7.65715ZM43 42V8.36426H41V42H43ZM9.36367 43H42V41H9.36367V43ZM-0.707107 33.3434L8.65656 42.7071L10.0708 41.2929L0.707107 31.9292L-0.707107 33.3434ZM-1 0V32.6363H1V0H-1Z" fill="url(#paint0_linear_698_3167)" mask="url(#path-1-inside-1_698_3167)"/>
<g clip-path="url(#clip0_698_3167)">
<g clip-path="url(#clip1_698_3167)">
<path d="M22.499 22.1245H24.374L25.124 19.1245H22.499V17.6245C22.499 16.852 22.499 16.1245 23.999 16.1245H25.124V13.6045C24.8795 13.5723 23.9563 13.4995 22.9813 13.4995C20.945 13.4995 19.499 14.7423 19.499 17.0245V19.1245H17.249V22.1245H19.499V28.4996H22.499V22.1245Z" fill="#F4F4F4"/>
</g>
</g>
</g>
<defs>
<filter id="filter0_bi_698_3167" x="-48" y="-48" width="138" height="138" filterUnits="userSpaceOnUse" color-interpolation-filters="sRGB">
<feFlood flood-opacity="0" result="BackgroundImageFix"/>
<feGaussianBlur in="BackgroundImageFix" stdDeviation="24"/>
<feComposite in2="SourceAlpha" operator="in" result="effect1_backgroundBlur_698_3167"/>
<feBlend mode="normal" in="SourceGraphic" in2="effect1_backgroundBlur_698_3167" result="shape"/>
<feColorMatrix in="SourceAlpha" type="matrix" values="0 0 0 0 0 0 0 0 0 0 0 0 0 0 0 0 0 0 127 0" result="hardAlpha"/>
<feOffset/>
<feGaussianBlur stdDeviation="6"/>
<feComposite in2="hardAlpha" operator="arithmetic" k2="-1" k3="1"/>
<feColorMatrix type="matrix" values="0 0 0 0 1 0 0 0 0 1 0 0 0 0 1 0 0 0 0.2 0"/>
<feBlend mode="normal" in2="shape" result="effect2_innerShadow_698_3167"/>
</filter>
<linearGradient id="paint0_linear_698_3167" x1="60.2539" y1="21" x2="1.4092e-05" y2="21" gradientUnits="userSpaceOnUse">
<stop stop-color="#44CD77"/>
<stop offset="1" stop-color="#2871FF"/>
</linearGradient>
<clipPath id="clip0_698_3167">
<rect width="18" height="18" fill="white" transform="translate(12 12)"/>
</clipPath>
<clipPath id="clip1_698_3167">
<rect width="18" height="18" fill="white" transform="translate(12 12)"/>
</clipPath>
</defs>
</svg>
