<svg width="18" height="18" viewBox="0 0 18 18" fill="none" xmlns="http://www.w3.org/2000/svg">
<path d="M5.2041 3.74929C5.2039 4.14711 5.04567 4.52857 4.76422 4.80973C4.48278 5.0909 4.10118 5.24874 3.70335 5.24854C3.30552 5.24834 2.92407 5.09011 2.64291 4.80867C2.36175 4.52723 2.20389 4.14561 2.2041 3.74779C2.2043 3.34996 2.36252 2.96851 2.64397 2.68735C2.92542 2.40619 3.30702 2.24834 3.70485 2.24854C4.10267 2.24873 4.48413 2.40696 4.76529 2.68841C5.04645 2.96986 5.2043 3.35147 5.2041 3.74929ZM5.2491 6.35929H2.2491V15.7493H5.2491V6.35929ZM9.9891 6.35929H7.0041V15.7493H9.95913V10.8218C9.95913 8.07679 13.5366 7.82179 13.5366 10.8218V15.7493H16.4991V9.80177C16.4991 5.17429 11.2041 5.34679 9.95913 7.61929L9.9891 6.35929Z" fill="#F4F4F4"/>
</svg>
