<svg width="42" height="42" viewBox="0 0 42 42" fill="none" xmlns="http://www.w3.org/2000/svg">
<g filter="url(#filter0_bi_698_3189)">
<mask id="path-1-inside-1_698_3189" fill="white">
<path fill-rule="evenodd" clip-rule="evenodd" d="M0 0H33.6357L42 8.36426V42H9.36367L0 32.6363V0Z"/>
</mask>
<path fill-rule="evenodd" clip-rule="evenodd" d="M0 0H33.6357L42 8.36426V42H9.36367L0 32.6363V0Z" fill="url(#paint0_linear_698_3189)"/>
<path d="M33.6357 0L34.3428 -0.707107L34.05 -1H33.6357V0ZM0 0V-1H-1V0H0ZM42 8.36426H43V7.95004L42.7071 7.65715L42 8.36426ZM42 42V43H43V42H42ZM9.36367 42L8.65656 42.7071L8.94945 43H9.36367V42ZM0 32.6363H-1V33.0506L-0.707107 33.3434L0 32.6363ZM33.6357 -1H0V1H33.6357V-1ZM42.7071 7.65715L34.3428 -0.707107L32.9286 0.707107L41.2929 9.07136L42.7071 7.65715ZM43 42V8.36426H41V42H43ZM9.36367 43H42V41H9.36367V43ZM-0.707107 33.3434L8.65656 42.7071L10.0708 41.2929L0.707107 31.9292L-0.707107 33.3434ZM-1 0V32.6363H1V0H-1Z" fill="url(#paint1_linear_698_3189)" mask="url(#path-1-inside-1_698_3189)"/>
<g clip-path="url(#clip0_698_3189)">
<g clip-path="url(#clip1_698_3189)">
<path d="M17.2041 15.7493C17.2039 16.1471 17.0457 16.5286 16.7642 16.8097C16.4828 17.0909 16.1012 17.2487 15.7033 17.2485C15.3055 17.2483 14.9241 17.0901 14.6429 16.8087C14.3617 16.5272 14.2039 16.1456 14.2041 15.7478C14.2043 15.35 14.3625 14.9685 14.644 14.6873C14.9254 14.4062 15.307 14.2483 15.7049 14.2485C16.1027 14.2487 16.4841 14.407 16.7653 14.6884C17.0465 14.9699 17.2043 15.3515 17.2041 15.7493ZM17.2491 18.3593H14.2491V27.7493H17.2491V18.3593ZM21.9891 18.3593H19.0041V27.7493H21.9591V22.8218C21.9591 20.0768 25.5366 19.8218 25.5366 22.8218V27.7493H28.4991V21.8018C28.4991 17.1743 23.2041 17.3468 21.9591 19.6193L21.9891 18.3593Z" fill="#F4F4F4"/>
</g>
</g>
</g>
<defs>
<filter id="filter0_bi_698_3189" x="-48" y="-48" width="138" height="138" filterUnits="userSpaceOnUse" color-interpolation-filters="sRGB">
<feFlood flood-opacity="0" result="BackgroundImageFix"/>
<feGaussianBlur in="BackgroundImageFix" stdDeviation="24"/>
<feComposite in2="SourceAlpha" operator="in" result="effect1_backgroundBlur_698_3189"/>
<feBlend mode="normal" in="SourceGraphic" in2="effect1_backgroundBlur_698_3189" result="shape"/>
<feColorMatrix in="SourceAlpha" type="matrix" values="0 0 0 0 0 0 0 0 0 0 0 0 0 0 0 0 0 0 127 0" result="hardAlpha"/>
<feOffset/>
<feGaussianBlur stdDeviation="6"/>
<feComposite in2="hardAlpha" operator="arithmetic" k2="-1" k3="1"/>
<feColorMatrix type="matrix" values="0 0 0 0 1 0 0 0 0 1 0 0 0 0 1 0 0 0 0.2 0"/>
<feBlend mode="normal" in2="shape" result="effect2_innerShadow_698_3189"/>
</filter>
<linearGradient id="paint0_linear_698_3189" x1="60.2539" y1="21" x2="1.4092e-05" y2="21" gradientUnits="userSpaceOnUse">
<stop stop-color="#44CD77"/>
<stop offset="1" stop-color="#2871FF"/>
</linearGradient>
<linearGradient id="paint1_linear_698_3189" x1="60.2539" y1="21" x2="1.4092e-05" y2="21" gradientUnits="userSpaceOnUse">
<stop stop-color="#44CD77"/>
<stop offset="1" stop-color="#2871FF"/>
</linearGradient>
<clipPath id="clip0_698_3189">
<rect width="18" height="18" fill="white" transform="translate(12 12)"/>
</clipPath>
<clipPath id="clip1_698_3189">
<rect width="18" height="18" fill="white" transform="translate(12 12)"/>
</clipPath>
</defs>
</svg>
