<svg width="18" height="18" viewBox="0 0 18 18" fill="none" xmlns="http://www.w3.org/2000/svg">
<path d="M1.76768 2.08609C1.89269 1.84159 2.14415 1.68774 2.41875 1.68774H6.075C6.30981 1.68774 6.53033 1.8005 6.66781 1.99086L16.1741 15.1533C16.3349 15.376 16.3574 15.6699 16.2323 15.9144C16.1073 16.1589 15.8558 16.3127 15.5813 16.3127H11.925C11.6902 16.3127 11.4697 16.2 11.3322 16.0097L1.82594 2.84713C1.66517 2.62452 1.64266 2.33059 1.76768 2.08609Z" fill="#F4F4F4"/>
<path d="M1.90168 15.0644L15.0642 1.90192C15.3497 1.61635 15.8128 1.61635 16.0983 1.90192C16.3839 2.18749 16.3839 2.6505 16.0983 2.93607L2.93582 16.0985C2.65025 16.3841 2.18726 16.3841 1.90168 16.0985C1.61611 15.813 1.61611 15.35 1.90168 15.0644Z" fill="#F4F4F4"/>
</svg>
