<svg width="28" height="9" viewBox="0 0 28 9" fill="none" xmlns="http://www.w3.org/2000/svg">
<path d="M15.4142 6.58579L18.251 3.74904C19.6346 2.36542 20.3264 1.67361 21.1337 1.17888C21.8495 0.740251 22.6299 0.417017 23.4461 0.221043C24.3668 2.13799e-06 25.3452 2.21575e-06 27.3019 2.38681e-06L0.698067 6.10269e-08C2.65479 2.32089e-07 3.63316 3.07822e-07 4.55386 0.221041C5.37015 0.417015 6.1505 0.74025 6.86628 1.17888C7.67361 1.67361 8.36542 2.36542 9.74903 3.74904L12.5858 6.58579C13.3668 7.36684 14.6332 7.36684 15.4142 6.58579Z" fill="#131D30"/>
<path d="M0.698067 1C2.70239 1 3.54156 1.00643 4.32041 1.19341C5.03466 1.36489 5.71748 1.64772 6.34378 2.03152C7.02672 2.45003 7.62466 3.03887 9.04193 4.45614L11.8787 7.2929C13.0503 8.46447 14.9497 8.46446 16.1213 7.2929L18.9581 4.45614C20.3753 3.03887 20.9733 2.45003 21.6562 2.03152C22.2825 1.64772 22.9653 1.36489 23.6796 1.19341C24.4584 1.00643 25.2976 1 27.3019 1L28 1L28 2.44784e-06L27.3019 2.38681e-06C25.3452 2.21575e-06 24.3668 2.13799e-06 23.4461 0.221043C22.6299 0.417016 21.8495 0.740252 21.1337 1.17888C20.3264 1.67361 19.6346 2.36542 18.251 3.74904L15.4142 6.58579C14.6332 7.36684 13.3668 7.36684 12.5858 6.58579L9.74903 3.74904C8.36542 2.36542 7.67361 1.67361 6.86628 1.17888C6.1505 0.74025 5.37014 0.417015 4.55386 0.221041C3.63316 3.07822e-07 2.65479 2.32089e-07 0.698067 6.10269e-08L4.37114e-08 0L-4.37114e-08 1L0.698067 1Z" fill="#2B3153"/>
</svg>
