<svg width="18" height="18" viewBox="0 0 18 18" fill="none" xmlns="http://www.w3.org/2000/svg">
<path d="M16.6198 4.24268C16.0472 4.49595 15.44 4.66229 14.8183 4.73618C15.4736 4.34425 15.9641 3.72744 16.1983 3.00068C15.5833 3.36668 14.909 3.62318 14.2063 3.76193C13.7342 3.25686 13.1086 2.9219 12.4265 2.80911C11.7444 2.69633 11.0442 2.81205 10.4347 3.13827C9.82517 3.46449 9.34052 3.98294 9.05612 4.61302C8.77165 5.2431 8.70333 5.94951 8.86178 6.62243C7.6146 6.55992 6.39452 6.23582 5.28074 5.67118C4.16695 5.10653 3.18437 4.31397 2.39677 3.34493C2.11799 3.82376 1.97148 4.3681 1.97228 4.92218C1.97228 6.00968 2.52578 6.97043 3.36728 7.53293C2.86928 7.51725 2.38224 7.38276 1.94677 7.14068V7.17968C1.94692 7.90395 2.19755 8.60589 2.65616 9.16643C3.11476 9.72704 3.75313 10.1118 4.46303 10.2554C4.00073 10.3807 3.516 10.3992 3.04553 10.3094C3.24567 10.9329 3.63577 11.4781 4.16122 11.8688C4.68666 12.2595 5.32112 12.476 5.97577 12.4882C5.32514 12.9992 4.58015 13.3769 3.78344 13.5998C2.98671 13.8227 2.15387 13.8864 1.33252 13.7872C2.76629 14.7093 4.43534 15.1988 6.14002 15.1972C11.9098 15.1972 15.0651 10.4174 15.0651 6.27218C15.0651 6.13718 15.0613 6.00068 15.0553 5.86718C15.6694 5.42331 16.1995 4.87344 16.6205 4.24343L16.6198 4.24268Z" fill="#F4F4F4"/>
</svg>
