<svg width="42" height="42" viewBox="0 0 42 42" fill="none" xmlns="http://www.w3.org/2000/svg">
<g filter="url(#filter0_bi_698_3178)">
<mask id="path-1-inside-1_698_3178" fill="white">
<path fill-rule="evenodd" clip-rule="evenodd" d="M0 0H33.6357L42 8.36426V42H9.36367L0 32.6363V0Z"/>
</mask>
<path fill-rule="evenodd" clip-rule="evenodd" d="M0 0H33.6357L42 8.36426V42H9.36367L0 32.6363V0Z" fill="url(#paint0_linear_698_3178)"/>
<path d="M33.6357 0L34.3428 -0.707107L34.05 -1H33.6357V0ZM0 0V-1H-1V0H0ZM42 8.36426H43V7.95004L42.7071 7.65715L42 8.36426ZM42 42V43H43V42H42ZM9.36367 42L8.65656 42.7071L8.94945 43H9.36367V42ZM0 32.6363H-1V33.0506L-0.707107 33.3434L0 32.6363ZM33.6357 -1H0V1H33.6357V-1ZM42.7071 7.65715L34.3428 -0.707107L32.9286 0.707107L41.2929 9.07136L42.7071 7.65715ZM43 42V8.36426H41V42H43ZM9.36367 43H42V41H9.36367V43ZM-0.707107 33.3434L8.65656 42.7071L10.0708 41.2929L0.707107 31.9292L-0.707107 33.3434ZM-1 0V32.6363H1V0H-1Z" fill="url(#paint1_linear_698_3178)" mask="url(#path-1-inside-1_698_3178)"/>
<g clip-path="url(#clip0_698_3178)">
<g clip-path="url(#clip1_698_3178)">
<path d="M28.6198 16.2427C28.0472 16.4959 27.44 16.6623 26.8183 16.7362C27.4736 16.3443 27.9641 15.7274 28.1983 15.0007C27.5833 15.3667 26.909 15.6232 26.2063 15.7619C25.7342 15.2569 25.1086 14.9219 24.4265 14.8091C23.7444 14.6963 23.0442 14.812 22.4347 15.1383C21.8252 15.4645 21.3405 15.9829 21.0561 16.613C20.7716 17.2431 20.7033 17.9495 20.8618 18.6224C19.6146 18.5599 18.3945 18.2358 17.2807 17.6712C16.167 17.1065 15.1844 16.314 14.3968 15.3449C14.118 15.8238 13.9715 16.3681 13.9723 16.9222C13.9723 18.0097 14.5258 18.9704 15.3673 19.5329C14.8693 19.5172 14.3822 19.3828 13.9468 19.1407V19.1797C13.9469 19.904 14.1975 20.6059 14.6562 21.1664C15.1148 21.727 15.7531 22.1118 16.463 22.2554C16.0007 22.3807 15.516 22.3992 15.0455 22.3094C15.2457 22.9329 15.6358 23.4781 16.1612 23.8688C16.6867 24.2595 17.3211 24.476 17.9758 24.4882C17.3251 24.9992 16.5802 25.3769 15.7834 25.5998C14.9867 25.8227 14.1539 25.8864 13.3325 25.7872C14.7663 26.7093 16.4353 27.1988 18.14 27.1972C23.9098 27.1972 27.0651 22.4174 27.0651 18.2722C27.0651 18.1372 27.0613 18.0007 27.0553 17.8672C27.6694 17.4233 28.1995 16.8734 28.6205 16.2434L28.6198 16.2427Z" fill="#F4F4F4"/>
</g>
</g>
</g>
<defs>
<filter id="filter0_bi_698_3178" x="-48" y="-48" width="138" height="138" filterUnits="userSpaceOnUse" color-interpolation-filters="sRGB">
<feFlood flood-opacity="0" result="BackgroundImageFix"/>
<feGaussianBlur in="BackgroundImageFix" stdDeviation="24"/>
<feComposite in2="SourceAlpha" operator="in" result="effect1_backgroundBlur_698_3178"/>
<feBlend mode="normal" in="SourceGraphic" in2="effect1_backgroundBlur_698_3178" result="shape"/>
<feColorMatrix in="SourceAlpha" type="matrix" values="0 0 0 0 0 0 0 0 0 0 0 0 0 0 0 0 0 0 127 0" result="hardAlpha"/>
<feOffset/>
<feGaussianBlur stdDeviation="6"/>
<feComposite in2="hardAlpha" operator="arithmetic" k2="-1" k3="1"/>
<feColorMatrix type="matrix" values="0 0 0 0 1 0 0 0 0 1 0 0 0 0 1 0 0 0 0.2 0"/>
<feBlend mode="normal" in2="shape" result="effect2_innerShadow_698_3178"/>
</filter>
<linearGradient id="paint0_linear_698_3178" x1="60.2539" y1="21" x2="1.4092e-05" y2="21" gradientUnits="userSpaceOnUse">
<stop stop-color="#44CD77"/>
<stop offset="1" stop-color="#2871FF"/>
</linearGradient>
<linearGradient id="paint1_linear_698_3178" x1="60.2539" y1="21" x2="1.4092e-05" y2="21" gradientUnits="userSpaceOnUse">
<stop stop-color="#44CD77"/>
<stop offset="1" stop-color="#2871FF"/>
</linearGradient>
<clipPath id="clip0_698_3178">
<rect width="18" height="18" fill="white" transform="translate(12 12)"/>
</clipPath>
<clipPath id="clip1_698_3178">
<rect width="18" height="18" fill="white" transform="translate(12 12)"/>
</clipPath>
</defs>
</svg>
