<svg width="42" height="42" viewBox="0 0 42 42" fill="none" xmlns="http://www.w3.org/2000/svg">
<g filter="url(#filter0_bi_698_3168)">
<mask id="path-1-inside-1_698_3168" fill="white">
<path fill-rule="evenodd" clip-rule="evenodd" d="M0 0H33.6357L42 8.36426V42H9.36367L0 32.6363V0Z"/>
</mask>
<path d="M33.6357 0L34.3428 -0.707107L34.05 -1H33.6357V0ZM0 0V-1H-1V0H0ZM42 8.36426H43V7.95004L42.7071 7.65715L42 8.36426ZM42 42V43H43V42H42ZM9.36367 42L8.65656 42.7071L8.94945 43H9.36367V42ZM0 32.6363H-1V33.0506L-0.707107 33.3434L0 32.6363ZM33.6357 -1H0V1H33.6357V-1ZM42.7071 7.65715L34.3428 -0.707107L32.9286 0.707107L41.2929 9.07136L42.7071 7.65715ZM43 42V8.36426H41V42H43ZM9.36367 43H42V41H9.36367V43ZM-0.707107 33.3434L8.65656 42.7071L10.0708 41.2929L0.707107 31.9292L-0.707107 33.3434ZM-1 0V32.6363H1V0H-1Z" fill="url(#paint0_linear_698_3168)" mask="url(#path-1-inside-1_698_3168)"/>
<g clip-path="url(#clip0_698_3168)">
<path d="M21.0022 12H20.9978C16.0354 12 12 16.0365 12 21C12 22.9688 12.6345 24.7935 13.7134 26.2751L12.5918 29.6186L16.0511 28.5128C17.4743 29.4555 19.1719 30 21.0022 30C25.9646 30 30 25.9624 30 21C30 16.0376 25.9646 12 21.0022 12ZM26.2391 24.7091C26.022 25.3222 25.1602 25.8307 24.4729 25.9792C24.0026 26.0794 23.3884 26.1593 21.3206 25.302C18.6757 24.2063 16.9725 21.5186 16.8398 21.3442C16.7126 21.1699 15.771 19.9211 15.771 18.6296C15.771 17.3381 16.4269 16.7093 16.6913 16.4393C16.9084 16.2176 17.2672 16.1164 17.6115 16.1164C17.7229 16.1164 17.823 16.122 17.913 16.1265C18.1774 16.1377 18.3101 16.1535 18.4845 16.5709C18.7016 17.094 19.2304 18.3855 19.2934 18.5183C19.3575 18.651 19.4216 18.831 19.3316 19.0054C19.2473 19.1854 19.173 19.2652 19.0402 19.4182C18.9075 19.5712 18.7815 19.6883 18.6487 19.8525C18.5272 19.9954 18.39 20.1484 18.543 20.4128C18.696 20.6715 19.2247 21.5344 20.0032 22.2274C21.0079 23.1217 21.8224 23.4075 22.1137 23.529C22.3309 23.619 22.5896 23.5976 22.7482 23.4289C22.9496 23.2118 23.1982 22.8518 23.4514 22.4974C23.6314 22.2431 23.8586 22.2116 24.0971 22.3016C24.3401 22.386 25.626 23.0216 25.8904 23.1532C26.1548 23.286 26.3291 23.349 26.3932 23.4604C26.4562 23.5718 26.4562 24.0949 26.2391 24.7091Z" fill="#F4F4F4"/>
</g>
</g>
<defs>
<filter id="filter0_bi_698_3168" x="-48" y="-48" width="138" height="138" filterUnits="userSpaceOnUse" color-interpolation-filters="sRGB">
<feFlood flood-opacity="0" result="BackgroundImageFix"/>
<feGaussianBlur in="BackgroundImageFix" stdDeviation="24"/>
<feComposite in2="SourceAlpha" operator="in" result="effect1_backgroundBlur_698_3168"/>
<feBlend mode="normal" in="SourceGraphic" in2="effect1_backgroundBlur_698_3168" result="shape"/>
<feColorMatrix in="SourceAlpha" type="matrix" values="0 0 0 0 0 0 0 0 0 0 0 0 0 0 0 0 0 0 127 0" result="hardAlpha"/>
<feOffset/>
<feGaussianBlur stdDeviation="6"/>
<feComposite in2="hardAlpha" operator="arithmetic" k2="-1" k3="1"/>
<feColorMatrix type="matrix" values="0 0 0 0 1 0 0 0 0 1 0 0 0 0 1 0 0 0 0.2 0"/>
<feBlend mode="normal" in2="shape" result="effect2_innerShadow_698_3168"/>
</filter>
<linearGradient id="paint0_linear_698_3168" x1="60.2539" y1="21" x2="1.4092e-05" y2="21" gradientUnits="userSpaceOnUse">
<stop stop-color="#44CD77"/>
<stop offset="1" stop-color="#2871FF"/>
</linearGradient>
<clipPath id="clip0_698_3168">
<rect width="18" height="18" fill="white" transform="translate(12 12)"/>
</clipPath>
</defs>
</svg>
