<svg width="42" height="42" viewBox="0 0 42 42" fill="none" xmlns="http://www.w3.org/2000/svg">
<g filter="url(#filter0_bi_698_3200)">
<mask id="path-1-inside-1_698_3200" fill="white">
<path fill-rule="evenodd" clip-rule="evenodd" d="M0 0H33.6357L42 8.36426V42H9.36367L0 32.6363V0Z"/>
</mask>
<path fill-rule="evenodd" clip-rule="evenodd" d="M0 0H33.6357L42 8.36426V42H9.36367L0 32.6363V0Z" fill="url(#paint0_linear_698_3200)"/>
<path d="M33.6357 0L34.3428 -0.707107L34.05 -1H33.6357V0ZM0 0V-1H-1V0H0ZM42 8.36426H43V7.95004L42.7071 7.65715L42 8.36426ZM42 42V43H43V42H42ZM9.36367 42L8.65656 42.7071L8.94945 43H9.36367V42ZM0 32.6363H-1V33.0506L-0.707107 33.3434L0 32.6363ZM33.6357 -1H0V1H33.6357V-1ZM42.7071 7.65715L34.3428 -0.707107L32.9286 0.707107L41.2929 9.07136L42.7071 7.65715ZM43 42V8.36426H41V42H43ZM9.36367 43H42V41H9.36367V43ZM-0.707107 33.3434L8.65656 42.7071L10.0708 41.2929L0.707107 31.9292L-0.707107 33.3434ZM-1 0V32.6363H1V0H-1Z" fill="url(#paint1_linear_698_3200)" mask="url(#path-1-inside-1_698_3200)"/>
<path d="M13.7677 14.0861C13.8927 13.8416 14.1441 13.6877 14.4188 13.6877H18.075C18.3098 13.6877 18.5303 13.8005 18.6678 13.9909L28.1741 27.1533C28.3349 27.376 28.3574 27.6699 28.2323 27.9144C28.1073 28.1589 27.8558 28.3127 27.5813 28.3127H23.925C23.6902 28.3127 23.4697 28.2 23.3322 28.0097L13.8259 14.8471C13.6652 14.6245 13.6427 14.3306 13.7677 14.0861Z" fill="#F4F4F4"/>
<path d="M13.9017 27.0644L27.0642 13.9019C27.3497 13.6164 27.8128 13.6164 28.0983 13.9019C28.3839 14.1875 28.3839 14.6505 28.0983 14.9361L14.9358 28.0985C14.6503 28.3841 14.1873 28.3841 13.9017 28.0985C13.6161 27.813 13.6161 27.35 13.9017 27.0644Z" fill="#F4F4F4"/>
</g>
<defs>
<filter id="filter0_bi_698_3200" x="-48" y="-48" width="138" height="138" filterUnits="userSpaceOnUse" color-interpolation-filters="sRGB">
<feFlood flood-opacity="0" result="BackgroundImageFix"/>
<feGaussianBlur in="BackgroundImageFix" stdDeviation="24"/>
<feComposite in2="SourceAlpha" operator="in" result="effect1_backgroundBlur_698_3200"/>
<feBlend mode="normal" in="SourceGraphic" in2="effect1_backgroundBlur_698_3200" result="shape"/>
<feColorMatrix in="SourceAlpha" type="matrix" values="0 0 0 0 0 0 0 0 0 0 0 0 0 0 0 0 0 0 127 0" result="hardAlpha"/>
<feOffset/>
<feGaussianBlur stdDeviation="6"/>
<feComposite in2="hardAlpha" operator="arithmetic" k2="-1" k3="1"/>
<feColorMatrix type="matrix" values="0 0 0 0 1 0 0 0 0 1 0 0 0 0 1 0 0 0 0.2 0"/>
<feBlend mode="normal" in2="shape" result="effect2_innerShadow_698_3200"/>
</filter>
<linearGradient id="paint0_linear_698_3200" x1="60.2539" y1="21" x2="1.4092e-05" y2="21" gradientUnits="userSpaceOnUse">
<stop stop-color="#44CD77"/>
<stop offset="1" stop-color="#2871FF"/>
</linearGradient>
<linearGradient id="paint1_linear_698_3200" x1="60.2539" y1="21" x2="1.4092e-05" y2="21" gradientUnits="userSpaceOnUse">
<stop stop-color="#44CD77"/>
<stop offset="1" stop-color="#2871FF"/>
</linearGradient>
</defs>
</svg>
